<?xml version="1.0" standalone="no"?>
<!DOCTYPE svg PUBLIC "-//W3C//DTD SVG 1.1//EN" "http://www.w3.org/Graphics/SVG/1.1/DTD/svg11.dtd" >
<svg xmlns="http://www.w3.org/2000/svg">
<metadata>
Created by FontPrep 20130207 at Sat May 16 09:02:54 2015
 By Rezki Bangsawan
Copyright (c) 2011 Linotype Corp., www.linotype.com. All rights reserved. This font software may not be reproduced, modified, disclosed or transferred without the express written approval of Linotype Corp. Neue Haas Grotesk is a trademark of Linotype Corp. registered in the U.S. Patent and Trademark Office and may be registered in certain other jurisdictions in the name of Linotype Corp. or its licensee Linotype GmbH. This typeface is original artwork of Christian Schwartz. The design may be protected in certain jurisdictions.
</metadata>
<defs>
<font id="d0f7b610c66149e8de9f99f0c2972dc3" horiz-adv-x='1024' >
  <font-face 
    font-family="NHaasGroteskTXW02-65Md"
    font-weight="500"
    font-stretch="normal"
    units-per-em="2048"
    panose-1="2 11 6 4 2 2 2 2 2 4"
    ascent="1599"
    descent="-449"
    x-height="1094"
    cap-height="1524"
    bbox="-565 -522 2632 2023"
    underline-thickness="102"
    underline-position="-102"
    unicode-range="U+0020-FB02"
  />
<missing-glyph horiz-adv-x="518" 
 />
    <glyph glyph-name=".notdef" horiz-adv-x="518" 
 />
    <glyph glyph-name=".null" horiz-adv-x="0" 
 />
    <glyph glyph-name="nonmarkingreturn" horiz-adv-x="681" 
 />
    <glyph glyph-name="space" unicode=" " horiz-adv-x="518" 
 />
    <glyph glyph-name="exclam" unicode="!" horiz-adv-x="567" 
d="M141 285h287v-285h-287v285zM145 1524h275v-426l-68 -609h-137l-70 609v426z" />
    <glyph glyph-name="quotedbl" unicode="&#x22;" horiz-adv-x="829" 
d="M106 1524h232v-549h-232v549zM496 1524h227v-549h-227v549z" />
    <glyph glyph-name="numbersign" unicode="#" horiz-adv-x="1292" 
d="M496 602h258l43 279h-258zM184 1085h205l57 375h181l-58 -375h258l58 375h178l-57 -375h211l-35 -204h-207l-43 -279h209l-35 -207h-205l-59 -395h-180l59 395h-256l-59 -395h-181l60 395h-209l35 207h204l43 279h-208z" />
    <glyph glyph-name="dollar" unicode="$" horiz-adv-x="1335" 
d="M379 1086q0 -81 56.5 -122.5t176.5 -74.5v389q-109 -10 -171 -60.5t-62 -131.5zM985 409q0 85 -58 127.5t-188 77.5v-419q168 20 207 94t39 120zM612 645q-23 0 -155.5 42t-237 113.5t-104.5 263.5t138 299.5t359 115.5v157h127v-159q221 -16 343 -120t139 -284h-258
q-25 170 -224 201v-414q106 -25 200.5 -54.5t204 -104.5t109.5 -274t-142.5 -314t-371.5 -127v-226h-127v226q-261 15 -401 147t-150 332h269q14 -117 80.5 -184.5t201.5 -83.5v448z" />
    <glyph glyph-name="percent" unicode="%" horiz-adv-x="1873" 
d="M1439 125q79 0 116.5 74.5t37.5 191.5t-40.5 194t-116.5 77t-115 -77t-39 -194t39 -191.5t118 -74.5zM437 801q79 0 118 74.5t39 190.5t-40 193.5t-118 77.5t-115.5 -75.5t-37.5 -193.5t37.5 -192.5t116.5 -74.5zM1172.5 699q103.5 116 264.5 116q162 0 264.5 -116
t102.5 -309t-103 -309t-264 -116t-264.5 117t-103.5 309t103.5 308zM1255 1458h175l-814 -1458h-172zM70 1020q0 143 27.5 222t76.5 134.5t115.5 85t186 29.5t222.5 -113t103 -309q0 -195 -101 -310.5t-264.5 -115.5t-264.5 117t-101 260z" />
    <glyph glyph-name="ampersand" unicode="&#x26;" horiz-adv-x="1421" 
d="M805 1198q0 68 -39.5 110t-103.5 42t-105 -41t-41 -104.5t32 -117t85 -108.5l12 -16q160 95 160 235zM392.5 577q-52.5 -71 -52.5 -168t75.5 -159t201.5 -62t249 101l-327 418q-94 -59 -146.5 -130zM72 406q0 234 137 324.5t209 129.5l-4 6q-140 161 -140 321
t108.5 257.5t276.5 97.5q169 0 277 -91.5t108 -252.5q0 -187 -114.5 -267.5t-171.5 -111.5l24 -28q8 -12 36 -48t67.5 -88.5t124.5 -160.5q46 109 59 260h227q-12 -243 -135 -439l252 -315h-317l-97 123q-188 -152 -412 -152t-369.5 119t-145.5 316z" />
    <glyph glyph-name="quotesingle" unicode="'" horiz-adv-x="444" 
d="M106 1524h232v-549h-232v549z" />
    <glyph glyph-name="parenleft" unicode="(" horiz-adv-x="722" 
d="M143 670q0 267 91 512t237 424h213q-262 -415 -262 -936q0 -287 73 -515t189 -429h-213q-328 434 -328 944z" />
    <glyph glyph-name="parenright" unicode=")" horiz-adv-x="722" 
d="M39 -274q266 451 266 953t-266 927h215q223 -269 301 -657q27 -134 27 -279q0 -510 -328 -944h-215z" />
    <glyph glyph-name="asterisk" unicode="*" horiz-adv-x="907" 
d="M373 1524h164v-262l227 75l53 -141l-235 -78l153 -213l-127 -90l-151 225l-156 -225l-127 90l152 213l-240 78l57 141l230 -75v262z" />
    <glyph glyph-name="plus" unicode="+" horiz-adv-x="1236" 
d="M119 801h389v409h221v-409h389v-207h-389v-410h-221v410h-389v207z" />
    <glyph glyph-name="comma" unicode="," horiz-adv-x="483" 
d="M233 -12v12h-133v285h285v-283q0 -168 -78 -251t-205 -97v127q131 36 131 207z" />
    <glyph glyph-name="hyphen" unicode="-" horiz-adv-x="753" 
d="M90 676h574v-230h-574v230z" />
    <glyph glyph-name="period" unicode="." horiz-adv-x="483" 
d="M100 285h285v-285h-285v285z" />
    <glyph glyph-name="slash" unicode="/" horiz-adv-x="927" 
d="M668 1606h245l-710 -1880h-246z" />
    <glyph glyph-name="zero" unicode="0" horiz-adv-x="1392" 
d="M697 186q327 0 327 543q0 392 -121 468.5t-206 76.5t-147.5 -39t-102 -109.5t-59 -172t-19.5 -224.5t19.5 -223t80.5 -210t228 -110zM257 1284q167 207 442 207q274 0 439 -205t165 -557t-164.5 -558t-442.5 -206q-275 0 -440.5 207.5t-165.5 556t167 555.5z" />
    <glyph glyph-name="one" unicode="1" horiz-adv-x="854" 
d="M414 997h-338v181q247 7 316 111t81 181h211v-1470h-270v997z" />
    <glyph glyph-name="two" unicode="2" horiz-adv-x="1236" 
d="M628 1270q-122 0 -190 -78q-74 -80 -73 -238h-265q0 216 115 361q140 174 432 174q234 0 372 -129.5t138 -330.5q0 -202 -111.5 -292t-171.5 -129q-57 -43 -121.5 -85t-170 -116t-158.5 -163v-11h721v-233h-1073q7 238 155 403q92 102 212 182.5t200 132.5t162 112.5
t82 204.5q0 102 -66.5 168.5t-188.5 66.5z" />
    <glyph glyph-name="three" unicode="3" horiz-adv-x="1280" 
d="M1157 1085q0 -217 -246 -299v-4q293 -82 293 -368q0 -213 -157 -331t-407 -118q-249 0 -416 133t-171 379h258q6 -133 88.5 -215t228.5 -82t224 64.5t78 185.5q0 240 -316 240h-90v194h84q137 0 210 55.5t73 154.5t-70.5 155.5t-160.5 56.5q-152 0 -227 -75t-79 -191
h-256q4 209 149.5 340t384.5 131t382 -110t143 -296z" />
    <glyph glyph-name="four" unicode="4" horiz-adv-x="1310" 
d="M504 545h289v418q0 116 10 219h-4q-23 -35 -58 -88t-77 -109l-209 -264q-23 -29 -51.5 -59.5t-55.5 -61.5t-57 -61v-4q195 10 213 10zM793 342h-695v240l711 893h246v-930h225v-203h-225v-342h-262v342z" />
    <glyph glyph-name="five" unicode="5" horiz-adv-x="1251" 
d="M369 860q121 125 320 125t344 -138.5t145 -367.5t-155.5 -370.5t-398 -141.5t-398 120.5t-171.5 315.5h267q20 -96 91.5 -154.5t200.5 -58.5t209 81t80 215t-81 212t-189 78q-191 0 -281 -114h-256l156 796h835v-223h-643l-79 -375h4z" />
    <glyph glyph-name="six" unicode="6" horiz-adv-x="1310" 
d="M977 473q0 130 -82.5 214.5t-215.5 84.5q-134 0 -218 -84t-84 -215t89.5 -216t217.5 -85q127 0 210 85.5t83 215.5zM729 981q208 0 355 -145t147 -361t-153 -363t-401 -147t-403 172q-181 192 -183 572t159 585q160 197 442 197q216 0 344 -109.5t154 -267.5h-262
q-22 114 -100 144t-132 30q-174 0 -256 -132t-92 -380h4q133 205 377 205z" />
    <glyph glyph-name="seven" unicode="7" horiz-adv-x="1159" 
d="M537 1227h-476v231h1051v-211q-363 -342 -459 -693t-104 -554h-285q19 371 189.5 707.5t394.5 525.5v4q-113 -10 -311 -10z" />
    <glyph glyph-name="eight" unicode="8" horiz-adv-x="1306" 
d="M654 174q144 0 226.5 68.5t82.5 188.5t-81 190.5t-226.5 70.5t-227.5 -70.5t-82 -191.5t82 -188.5t226 -67.5zM653 879q123 0 189.5 55t66.5 151.5t-66.5 152.5t-189.5 56t-190.5 -56t-67.5 -152.5t67.5 -151.5t190.5 -55zM139 1098q0 174 141 283.5t373.5 109.5
t373 -106.5t140.5 -282.5q0 -106 -58 -185t-175 -118v-6q143 -37 222 -135.5t79 -224.5t-46 -212t-125 -143.5t-183.5 -85t-290.5 -27.5t-352 117t-166 334q0 141 80.5 236.5t222.5 135.5v7q-236 79 -236 303z" />
    <glyph glyph-name="nine" unicode="9" horiz-adv-x="1312" 
d="M858 767q84 83 84 216t-86.5 217t-219.5 84q-132 0 -216 -84t-84 -215t85 -216t219 -85t218 83zM965 666q-146 -189 -367 -189t-368.5 145t-147.5 363t157 362t386.5 144t386.5 -129q115 -94 163 -249t48 -370q0 -443 -185 -626q-148 -152 -382 -152t-377 110.5
t-164 278.5h264q12 -73 78.5 -128.5t177.5 -55.5q154 0 233 111q89 112 101 385h-4z" />
    <glyph glyph-name="colon" unicode=":" horiz-adv-x="497" 
d="M106 285h285v-285h-285v285zM106 936h285v-283h-285v283z" />
    <glyph glyph-name="semicolon" unicode=";" horiz-adv-x="497" 
d="M240 -12v12h-134v285h285v-283q0 -168 -77.5 -251t-204.5 -97v127q131 36 131 207zM106 936h285v-283h-285v283z" />
    <glyph glyph-name="less" unicode="&#x3c;" horiz-adv-x="1114" 
d="M117 539v243l870 369v-231l-403 -160q-108 -40 -285 -98v-5q49 -14 96 -29t97.5 -30.5t91.5 -32.5l403 -157v-238z" />
    <glyph glyph-name="equal" unicode="=" horiz-adv-x="1232" 
d="M127 559h983v-203h-983v203zM127 971h983v-203h-983v203z" />
    <glyph glyph-name="greater" unicode="&#x3e;" horiz-adv-x="1114" 
d="M997 782v-243l-870 -369v229l405 162q78 30 285 98v5q-49 14 -96 29t-97.5 30.5t-91.5 32.5l-405 157v238z" />
    <glyph glyph-name="question" unicode="?" horiz-adv-x="1157" 
d="M428 489q0 136 50 233.5t192.5 202.5t142.5 216q0 84 -61.5 136t-179.5 52t-189.5 -76.5t-75.5 -193.5h-260q4 207 148 349t384 142t374 -113t134 -283q0 -169 -80 -250t-173.5 -150.5t-121.5 -103.5t-37 -69.5t-11 -91.5h-236zM401 285h285v-285h-285v285z" />
    <glyph glyph-name="at" unicode="@" horiz-adv-x="1929" 
d="M940 375q94 0 150.5 89.5t56.5 207.5q0 232 -168 231q-149 0 -178 -123.5t-29 -203.5t37 -140.5t131 -60.5zM84 620q0 204 78 375.5t205 288.5t291.5 177.5t336.5 60.5t326 -51.5t270.5 -152.5t186 -250.5t69.5 -312.5t-31.5 -261.5t-116.5 -198.5t-267 -100
q-106 0 -180 44t-99 130h-4q-93 -170 -281 -170q-152 0 -244 105t-92 303q0 199 113.5 336.5t289.5 137.5t236 -151h5l14 131h229l-67 -553q-18 -154 94 -154q149 0 187 130t38 264t-50 253t-183.5 239t-440.5 120t-459.5 -147.5t-211 -289t-58.5 -303.5q0 -318 179 -506
t497 -188q199 0 393 78l58 -141q-195 -94 -415 -94t-379 59t-273.5 168.5t-179 264.5t-64.5 359z" />
    <glyph glyph-name="A" unicode="A" horiz-adv-x="1470" 
d="M508 571h438l-117 353q-39 116 -61 213q-22 98 -35 153h-4q-72 -284 -100 -366zM582 1524h303l555 -1524h-303l-121 362h-578l-123 -362h-286z" />
    <glyph glyph-name="B" unicode="B" horiz-adv-x="1435" 
d="M831 231q127 -1 191 61t63 170q0 108 -73.5 165t-188.5 57h-399v-453h407zM793 895q111 0 175 52.5t64 148.5t-60.5 148t-164.5 52h-383v-401h369zM143 1524h691q238 0 358 -117q117 -106 117 -279q0 -236 -250 -311v-6q143 -35 227 -129t84 -240q0 -201 -135 -315
q-137 -127 -379 -127h-713v1524z" />
    <glyph glyph-name="C" unicode="C" horiz-adv-x="1540" 
d="M82 758q0 347 200.5 570.5t534.5 223.5q260 0 422 -125q186 -146 215 -393h-283q-20 123 -112.5 201t-222.5 78t-212.5 -42t-167.5 -155t-85 -358q0 -246 123 -398.5t323 -152.5q164 0 260.5 96.5t108.5 239.5h284q-4 -115 -111 -345.5t-544 -230.5q-327 0 -530 222
t-203 569z" />
    <glyph glyph-name="D" unicode="D" horiz-adv-x="1517" 
d="M711 242q225 0 330.5 136t105.5 376q0 380 -158 454t-270 74h-289v-1040h281zM145 1524h600q324 0 508.5 -209t184.5 -559t-185.5 -553t-523.5 -203h-584v1524z" />
    <glyph glyph-name="E" unicode="E" horiz-adv-x="1368" 
d="M143 1524h1114v-242h-831v-377h735v-227h-735v-430h850v-248h-1133v1524z" />
    <glyph glyph-name="F" unicode="F" horiz-adv-x="1294" 
d="M143 1524h1082v-244h-799v-391h666v-236h-666v-653h-283v1524z" />
    <glyph glyph-name="G" unicode="G" horiz-adv-x="1603" 
d="M1255 209q-144 -244 -457 -244t-514 217q-200 217 -200 585t231 593q192 192 508 192q270 0 436.5 -130.5t208.5 -354.5h-286q-31 106 -117.5 177t-220.5 71t-218.5 -43t-168.5 -156t-84 -360t125.5 -400t317.5 -153t298.5 107.5t106.5 260.5v19h-369v221h641v-811h-190
l-39 209h-9z" />
    <glyph glyph-name="H" unicode="H" horiz-adv-x="1525" 
d="M143 1524h283v-613h674v613h284v-1524h-284v676h-674v-676h-283v1524z" />
    <glyph glyph-name="I" unicode="I" horiz-adv-x="573" 
d="M143 1524h285v-1524h-285v1524z" />
    <glyph glyph-name="J" unicode="J" horiz-adv-x="1146" 
d="M57 465v78h267v-70q0 -152 54 -210t161 -58q201 0 200 225v1094h285v-1104q0 -193 -102 -303q-127 -146 -371 -146t-369 126t-125 368z" />
    <glyph glyph-name="K" unicode="K" horiz-adv-x="1460" 
d="M143 1524h283v-353q0 -176 -10 -323l647 676h344l-598 -611l641 -913h-332l-512 731l-180 -182v-549h-283v1524z" />
    <glyph glyph-name="L" unicode="L" horiz-adv-x="1228" 
d="M143 1524h283v-1276h741v-248h-1024v1524z" />
    <glyph glyph-name="M" unicode="M" horiz-adv-x="1808" 
d="M397 795v-795h-254v1524h375l250 -725q43 -126 133 -512h6q67 313 131 512l246 725h383v-1524h-264v795q0 205 18 475h-4q-56 -254 -112 -432l-289 -838h-230l-290 838q-68 216 -113 432h-4q18 -405 18 -475z" />
    <glyph glyph-name="N" unicode="N" horiz-adv-x="1529" 
d="M1120 760v764h269v-1524h-291l-504 795q-33 51 -65.5 113.5t-63.5 120.5t-64 122h-4q3 -70 9 -172t6 -217v-762h-269v1524h291l506 -799q31 -51 63.5 -112.5t63.5 -119.5t63 -122h7q-17 297 -17 389z" />
    <glyph glyph-name="O" unicode="O" horiz-adv-x="1662" 
d="M1171.5 1162.5q-118.5 156.5 -338.5 156.5t-341 -157.5t-121 -404.5t121.5 -399.5t340.5 -152.5t338 152t119 400.5t-118.5 405zM82 760q0 349 205 570.5t544.5 221.5t544.5 -222t205 -570q0 -349 -204 -572t-545.5 -223t-545.5 223t-204 572z" />
    <glyph glyph-name="P" unicode="P" horiz-adv-x="1368" 
d="M430 801h340q131 0 197.5 65.5t66.5 179.5t-67.5 174t-192.5 60h-344v-479zM143 1524h660q361 0 438.5 -187t77.5 -293q0 -215 -134 -343t-370 -128h-385v-573h-287v1524z" />
    <glyph glyph-name="Q" unicode="Q" horiz-adv-x="1660" 
d="M1178 360q110 152 110 399t-119 403.5t-339 156.5t-339.5 -158t-119.5 -404.5t120 -402t340 -155.5q106 0 191 37l-188 165l129 148zM82 760q0 349 205 570.5t544 221.5q172 0 311.5 -60t288 -222.5t148.5 -512.5t-203 -569l201 -174l-131 -145l-225 194
q-171 -98 -367 -98q-364 0 -568 223t-204 572z" />
    <glyph glyph-name="R" unicode="R" horiz-adv-x="1449" 
d="M1067 1055q0 237 -262 237h-379v-469h369q135 0 203.5 62.5t68.5 169.5zM1352 1096q0 -289 -281 -377v-6q121 -37 173 -113t68 -230t25 -246.5t39 -109.5v-14h-286q-29 18 -36.5 106.5t-19.5 232.5t-78.5 205.5t-203.5 61.5h-326v-606h-283v1524h719q217 0 353.5 -116.5
t136.5 -311.5z" />
    <glyph glyph-name="S" unicode="S" horiz-adv-x="1396" 
d="M1028 418q0 110 -87.5 156.5t-249.5 84.5t-370 100t-208 357q0 209 155.5 321.5t415.5 112.5t408.5 -119.5t171.5 -330.5h-277q-16 113 -98 173t-214 60t-209 -50t-77 -145t89 -138t245 -76q155 -34 373.5 -102.5t218.5 -383.5q0 -224 -166.5 -348.5t-440.5 -124.5
q-292 0 -467.5 142.5t-183.5 379.5h285q31 -295 383 -294q211 0 257 82.5t46 142.5z" />
    <glyph glyph-name="T" unicode="T" horiz-adv-x="1353" 
d="M59 1524h1237v-244h-477v-1280h-284v1280h-476v244z" />
    <glyph glyph-name="U" unicode="U" horiz-adv-x="1464" 
d="M123 514v1010h283v-1006q0 -309 329 -309q156 0 240 80t84 233v1002h284v-1010q0 -264 -161 -402.5t-448 -138.5q-286 0 -448.5 134.5t-162.5 406.5z" />
    <glyph glyph-name="V" unicode="V" horiz-adv-x="1388" 
d="M27 1524h299l276 -865q40 -134 96 -391h4q59 272 97 391l272 865h291l-518 -1524h-303z" />
    <glyph glyph-name="W" unicode="W" horiz-adv-x="2013" 
d="M27 1524h290l181 -738q43 -193 80 -497h4q52 341 92 506l186 729h279l184 -727q29 -122 51 -269t37 -239h4q43 320 88 499l180 736h291l-422 -1524h-276l-195 797q-30 111 -49 240q-18 130 -31 216h-4q-45 -319 -77 -456l-205 -797h-283z" />
    <glyph glyph-name="X" unicode="X" horiz-adv-x="1435" 
d="M557 791l-477 733h326l172 -281q62 -110 145 -280h4q27 49 70 135t82 145l172 281h311l-477 -733l510 -791h-336l-195 328q-66 109 -145 284h-4q-98 -193 -154 -284l-201 -328h-321z" />
    <glyph glyph-name="Y" unicode="Y" horiz-adv-x="1417" 
d="M848 0h-285v602l-534 922h313l215 -385q40 -74 82 -170q43 -96 70 -156h4q89 211 153 326l217 385h301l-536 -926v-598z" />
    <glyph glyph-name="Z" unicode="Z" horiz-adv-x="1390" 
d="M944 1292q-212 -8 -299 -8h-514v240h1141v-224l-631 -796q-142 -167 -242 -262v-6q285 10 314 10h590v-246h-1227v242l647 807q58 74 221 237v6z" />
    <glyph glyph-name="bracketleft" unicode="[" horiz-adv-x="806" 
d="M160 1606h559v-205h-305v-1469h305v-206h-559v1880z" />
    <glyph glyph-name="backslash" unicode="\" horiz-adv-x="927" 
d="M725 -274l-709 1880h246l709 -1880h-246z" />
    <glyph glyph-name="bracketright" unicode="]" horiz-adv-x="806" 
d="M86 -68h303v1469h-303v205h559v-1880h-559v206z" />
    <glyph glyph-name="asciicircum" unicode="^" horiz-adv-x="1017" 
d="M393 1524h232l358 -621h-254l-217 387h-4l-221 -387h-252z" />
    <glyph glyph-name="underscore" unicode="_" horiz-adv-x="894" 
d="M-4 -184h903v-174h-903v174z" />
    <glyph glyph-name="grave" unicode="`" horiz-adv-x="1101" 
d="M256 1581h309l109 -315h-201z" />
    <glyph glyph-name="a" unicode="a" horiz-adv-x="1159" 
d="M330 303q0 -151 188 -151q125 0 201 72.5t76 172.5v162q-60 -38 -197 -67q-137 -28 -202.5 -63.5t-65.5 -125.5zM590 1122q450 0 448 -374v-576q0 -124 41 -154v-18h-252q-28 37 -36 141h-5q-53 -72 -132.5 -120t-185.5 -48q-194 0 -296 85.5t-102 247.5t112 232t291 91
q180 22 247.5 52.5t67.5 102.5t-49 115t-153 43t-158.5 -47t-58.5 -129h-246q4 152 126 254t341 102z" />
    <glyph glyph-name="b" unicode="b" horiz-adv-x="1245" 
d="M657 178q131 0 197 102.5t66 266.5q0 260 -98.5 316.5t-168.5 56.5q-138 0 -211 -104.5t-73 -270.5q0 -255 108 -311t180 -56zM377 932q117 190 333 190t345 -158t129 -422q0 -263 -127 -420t-356 -157t-324 193h-6v-158h-252v1524h260v-361q0 -145 -8 -231h6z" />
    <glyph glyph-name="c" unicode="c" horiz-adv-x="1165" 
d="M63 546q0 249 152 412.5t399 163.5q205 0 335 -106t159 -287h-254q-18 90 -78 142.5t-146 52.5q-155 0 -228.5 -105.5t-73.5 -271.5t74 -271.5t214 -105.5q109 0 171.5 59.5t72.5 167.5h254q-12 -195 -147.5 -312.5t-356.5 -117.5q-239 0 -393 165t-154 414z" />
    <glyph glyph-name="d" unicode="d" horiz-adv-x="1249" 
d="M592 178q210 0 249.5 143.5t39.5 224.5q0 167 -74.5 270.5t-209.5 103.5q-134 0 -201.5 -102t-67.5 -269q0 -166 65.5 -268.5t198.5 -102.5zM874 160q-104 -195 -329 -195q-226 0 -354 158t-128 420t133 420.5t348 158.5t330 -186h5q-9 101 -9 227v361h260v-1524h-251
v160h-5z" />
    <glyph glyph-name="e" unicode="e" horiz-adv-x="1202" 
d="M601 934q-124 0 -191.5 -80t-83.5 -209h544q-8 135 -76.5 212t-192.5 77zM623 166q186 0 241 143h254q-41 -152 -171 -247t-326 -95q-255 0 -406.5 164t-151.5 414t152 413.5t386.5 163.5t381.5 -153q160 -172 156 -488h-817q14 -141 88.5 -228t212.5 -87z" />
    <glyph glyph-name="f" unicode="f" horiz-adv-x="765" 
d="M51 1094h168v120q0 162 88 240t283 74q55 0 117 -6v-195q-136 4 -170.5 -13.5t-46 -44t-11.5 -71.5v-104h226v-181h-226v-913h-260v913h-168v181z" />
    <glyph glyph-name="g" unicode="g" horiz-adv-x="1239" 
d="M874 590q0 151 -67.5 240.5t-202.5 89.5t-202.5 -89.5t-67.5 -241t68.5 -240.5t202.5 -89t201.5 89.5t67.5 240.5zM862 227q-104 -168 -308 -168t-341 143t-137 383.5t130 388.5t345 148t311 -170h4v142h252v-1022q0 -224 -135 -338q-135 -115 -367 -115q-233 0 -362 85
t-150 241h250q27 -135 246 -135q264 0 264 239v27q0 95 4 151h-6z" />
    <glyph glyph-name="h" unicode="h" horiz-adv-x="1206" 
d="M719 1122q178 0 277.5 -101t99.5 -280v-741h-260v698q0 98 -54.5 153.5t-159.5 55.5t-174 -75t-69 -191v-641h-260v1524h260v-410q0 -84 -4 -178h6q116 186 338 186z" />
    <glyph glyph-name="i" unicode="i" horiz-adv-x="495" 
d="M119 1094h260v-1094h-260v1094zM115 1524h266v-252h-266v252z" />
    <glyph glyph-name="j" unicode="j" horiz-adv-x="497" 
d="M115 1524h266v-252h-266v252zM78 -360q-74 0 -139 14v190h10q18 0 34.5 -1t50.5 2t59.5 26t25.5 82v1141h260v-1151q0 -162 -76 -233q-76 -70 -225 -70z" />
    <glyph glyph-name="k" unicode="k" horiz-adv-x="1163" 
d="M377 0h-258v1524h258v-590q0 -80 -8 -268l411 428h310l-402 -400l449 -694h-303l-328 524l-129 -129v-395z" />
    <glyph glyph-name="l" unicode="l" horiz-adv-x="505" 
d="M123 1524h262v-1524h-262v1524z" />
    <glyph glyph-name="m" unicode="m" horiz-adv-x="1808" 
d="M1698 741v-741h-260v707q0 94 -49 147t-137 53t-151 -71.5t-63 -188.5v-647h-260v707q0 94 -45 147t-131 53t-154.5 -72.5t-68.5 -187.5v-647h-260v1094h252v-166h6q112 194 328 194t290 -204h4q127 204 344 204q168 0 261.5 -101t93.5 -280z" />
    <glyph glyph-name="n" unicode="n" horiz-adv-x="1206" 
d="M719 1122q178 0 277.5 -101t99.5 -280v-741h-260v698q0 98 -54.5 153.5t-159.5 55.5t-174 -75t-69 -191v-641h-260v1094h254v-160h6q108 188 340 188z" />
    <glyph glyph-name="o" unicode="o" horiz-adv-x="1241" 
d="M620.5 164q71.5 0 126 28.5t91 80t56 121t19.5 151.5t-19.5 152.5t-56 122.5t-91 81t-126 29t-127 -29t-92 -81t-55 -122.5t-18.5 -152.5t18.5 -151.5t55 -121t92 -80t127 -28.5zM63 546q0 248 154.5 412t404 164t403 -163t153.5 -413t-154 -414.5t-402.5 -164.5
t-403.5 165.5t-155 413.5z" />
    <glyph glyph-name="p" unicode="p" horiz-adv-x="1251" 
d="M856 274q68 102 68 265q0 260 -99.5 316t-170.5 56t-125 -28.5t-90 -79.5t-53 -119t-17 -145.5t17 -144t73.5 -144.5t192.5 -78t204 102zM379 -74v-293h-260v1461h252v-162h6q119 190 336 190t346 -158t129 -420q0 -261 -128.5 -420t-352.5 -159t-330 174h-6
q8 -62 8 -213z" />
    <glyph glyph-name="q" unicode="q" horiz-adv-x="1251" 
d="M811.5 809q-73.5 102 -209.5 102q-137 0 -204.5 -100.5t-67.5 -266.5q0 -167 67.5 -269.5t203.5 -102.5q137 0 210.5 101t73.5 267.5t-73.5 268.5zM68 545q0 263 130 420t349 157t327 -186h7v158h252v-1461h-259v293q0 70 7 213h-4q-114 -174 -333.5 -174t-347.5 158.5
t-128 421.5z" />
    <glyph glyph-name="r" unicode="r" horiz-adv-x="811" 
d="M371 897h6q104 213 313 213q47 0 70 -10v-234h-8q-33 8 -72 8q-129 2 -215 -82.5t-86 -242.5v-549h-260v1094h252v-197z" />
    <glyph glyph-name="s" unicode="s" horiz-adv-x="1087" 
d="M770 286q0 54 -20.5 79.5t-63.5 46t-160 41.5q-117 22 -277.5 68t-160.5 276q0 150 116.5 237.5t325.5 87.5t321 -89t132 -232h-248q-29 145 -217 145q-92 0 -138 -37t-46 -84t20.5 -69.5t57.5 -38t87.5 -25.5t120.5 -23q191 -36 297.5 -104.5t106.5 -242.5
t-129.5 -265.5t-351.5 -91.5t-352 102.5t-142 268.5h250q30 -186 260 -186q109 0 160 41t51 95z" />
    <glyph glyph-name="t" unicode="t" horiz-adv-x="759" 
d="M527 -10q-151 0 -228.5 59.5t-77.5 196.5v669h-168v179h168v348h256v-348h219v-179h-219v-612q0 -59 30.5 -80.5t84.5 -21.5t86 8h12v-203q-88 -16 -163 -16z" />
    <glyph glyph-name="u" unicode="u" horiz-adv-x="1193" 
d="M823 0v156h-4q-59 -90 -136 -137.5t-194 -47.5q-180 0 -279 103.5t-99 281.5v738h260v-701q0 -98 53.5 -151.5t157.5 -53.5t169.5 75t65.5 190v641h258v-1094h-252z" />
    <glyph glyph-name="v" unicode="v" horiz-adv-x="1071" 
d="M10 1094h273l159 -510q47 -160 62 -233q16 -73 31 -134h6q48 242 90 367l166 510h264l-387 -1094h-285z" />
    <glyph glyph-name="w" unicode="w" horiz-adv-x="1644" 
d="M16 1094h271l141 -510q21 -82 68 -330h4q37 211 71 330l136 510h229l139 -510q23 -88 40 -180t30 -152h4q41 245 70 332l145 510h262l-348 -1094h-250l-137 520q-46 197 -68 322h-4q-32 -164 -69 -322l-142 -520h-250z" />
    <glyph glyph-name="x" unicode="x" horiz-adv-x="1179" 
d="M434 573l-354 521h299l108 -172q16 -29 34 -62.5t35 -65.5t34 -67h4q16 35 34 67t35 65.5t33 62.5l111 172h278l-346 -508l402 -586h-301l-144 219q-57 92 -110 207h-4q-38 -79 -67.5 -128.5t-45.5 -78.5l-145 -219h-287z" />
    <glyph glyph-name="y" unicode="y" horiz-adv-x="1103" 
d="M307 -373q-67 0 -125.5 5.5t-64.5 7.5v210h14q19 -10 97 -10t116.5 28t54.5 93l1 71q1 72 -13 111l-377 951h277l180 -508q45 -140 61 -210t31 -130h4q35 150 94 340l174 508h263l-424 -1155q-71 -183 -148.5 -247.5t-214.5 -64.5z" />
    <glyph glyph-name="z" unicode="z" horiz-adv-x="1077" 
d="M455 885h-332v209h858v-179l-434 -532q-23 -27 -84 -86q-60 -58 -90 -88v-6q205 10 237 10h398v-213h-926v197l436 534q20 23 48 51.5t54 55.5t56 53v6q-123 -12 -221 -12z" />
    <glyph glyph-name="braceleft" unicode="{" horiz-adv-x="786" 
d="M659 -274q-213 0 -312 83.5t-99 294.5v316q0 76 -41 111.5t-144 39.5v201q102 4 143.5 40t41.5 112v309q0 210 98.5 291.5t312.5 81.5h60v-205h-51q-88 0 -127 -33t-39 -137v-336q0 -94 -36 -145.5t-114 -73.5v-6q78 -25 114 -75t36 -144v-347q0 -102 39 -137t127 -35h51
v-206h-60z" />
    <glyph glyph-name="bar" unicode="|" horiz-adv-x="503" 
d="M160 1606h182v-1880h-182v1880z" />
    <glyph glyph-name="braceright" unicode="}" horiz-adv-x="786" 
d="M86 -68h39q88 0 127 34t39 136v344q0 94 37 144.5t114 75.5v6q-78 23 -114.5 74t-36.5 145v338q0 102 -39 137t-127 35h-39v205h47q214 0 313 -83t99 -294v-309q0 -74 39 -111t137 -41v-199q-98 -4 -137 -40.5t-39 -110.5v-316q0 -211 -98.5 -293.5t-313.5 -82.5h-47v206
z" />
    <glyph glyph-name="asciitilde" unicode="~" horiz-adv-x="927" 
d="M631 549q-70 -1 -141 31q-70 32 -100 45.5t-58 13.5q-66 0 -72 -92h-178q2 154 66.5 232.5t149.5 78.5t151 -34q67 -34 94.5 -46t61.5 -12q65 0 69 90h178q-2 -141 -56 -224t-165 -83z" />
    <glyph glyph-name="uni00A0" unicode="&#xa0;" horiz-adv-x="493" 
 />
    <glyph glyph-name="exclamdown" unicode="&#xa1;" horiz-adv-x="567" 
d="M428 969h-287v284h287v-284zM422 -270h-275v426l68 608h137l70 -608v-426z" />
    <glyph glyph-name="cent" unicode="&#xa2;" horiz-adv-x="1169" 
d="M324 546q0 -144 57 -244.5t170 -127.5v744q-113 -25 -170 -126.5t-57 -245.5zM676 -254h-125v225q-222 23 -355 183.5t-133 391t132 390.5t356 184v180h125v-180q186 -16 298.5 -123.5t139.5 -273.5h-252q-34 167 -186 197v-748q171 33 192 227h248q-12 -180 -127.5 -297
t-312.5 -133v-223z" />
    <glyph glyph-name="sterling" unicode="&#xa3;" horiz-adv-x="1253" 
d="M289 508q0 66 -21 121h-178v166h111q-27 59 -47.5 120.5t-20.5 146.5q0 185 141 306t375 121q235 0 373 -115q156 -129 160 -383h-262q-2 152 -76 217.5t-190 65.5t-177 -60.5t-61 -146.5t21.5 -147.5t45.5 -124.5h297v-166h-250q6 -41 7 -80q0 -94 -46.5 -168
t-144.5 -152l4 -6q107 56 181 56q102 0 190.5 -34t150.5 -34q110 0 209 94l127 -203q-152 -131 -336 -131q-76 0 -130 17.5t-103 37t-97 37t-111.5 17.5t-117 -28.5t-100.5 -63.5l-139 200q92 63 153.5 137t61.5 183z" />
    <glyph glyph-name="currency" unicode="&#xa4;" horiz-adv-x="1073" 
d="M534 1163q128 0 230 -65l139 143l131 -125l-143 -143q67 -104 67 -241t-67 -243l143 -143l-131 -127l-141 143q-92 -61 -225.5 -61t-227.5 61l-141 -143l-129 127l139 141q-68 109 -68 243t68 243l-139 143l129 125l139 -143q99 65 227 65zM536.5 465q104.5 0 160 74.5
t55.5 191.5t-55.5 192.5t-160 75.5t-163 -75.5t-58.5 -192.5t58.5 -191.5t163 -74.5z" />
    <glyph glyph-name="yen" unicode="&#xa5;" horiz-adv-x="1323" 
d="M162 686h323l-452 774h301l162 -303q44 -77 168 -364h4q111 260 170 364l161 303h293l-452 -774h327v-125h-370v-155h370v-125h-370v-281h-265v281h-370v125h370v155h-370v125z" />
    <glyph glyph-name="brokenbar" unicode="&#xa6;" horiz-adv-x="503" 
d="M160 575h182v-849h-182v849zM160 1606h182v-815h-182v815z" />
    <glyph glyph-name="section" unicode="&#xa7;" horiz-adv-x="1323" 
d="M997 467q0 69 -61 115.5t-239 133.5t-234 118q-68 -16 -104.5 -54.5t-36.5 -82.5t14 -71.5t63.5 -67.5t225.5 -128t231 -119q141 39 141 156zM995 201q127 -109 127 -256q0 -148 -119 -241t-332 -93t-347 116.5t-138 288.5h248q4 -84 65 -141t165 -57t152 41t48 91
t-23.5 79.5t-69.5 59.5t-115.5 62.5t-163.5 77.5q-216 103 -314 194t-98 220q0 240 258 305q-51 45 -80 95.5t-29 164t121.5 206.5t323.5 93q201 0 318.5 -103.5t127.5 -273.5h-239q-8 74 -57.5 123.5t-148.5 49.5t-144.5 -36.5t-45.5 -84.5t20.5 -75.5t64.5 -56t184 -93.5
q141 -66 317 -158.5t176 -288.5q0 -139 -69.5 -210t-182.5 -99z" />
    <glyph glyph-name="dieresis" unicode="&#xa8;" 
d="M160 1524h250v-252h-250v252zM614 1524h250v-252h-250v252z" />
    <glyph glyph-name="copyright" unicode="&#xa9;" horiz-adv-x="1771" 
d="M1180 397q-113 -100 -293 -100q-181 0 -304.5 129t-123.5 334.5t121 337t317 131.5q149 0 248 -78q115 -80 133 -238h-207q-10 57 -54.5 98.5t-110.5 41.5q-119 0 -175.5 -81t-56.5 -210t60.5 -209t154.5 -80t139 47t53 113h203q-9 -149 -104 -236zM886.5 57
q143.5 0 265.5 53.5t211 146.5t140 221t51 277.5t-51 278.5t-140 222.5t-211 146.5t-265.5 53t-266 -53t-213 -146.5t-141.5 -222.5t-51 -278.5t51 -277.5t141.5 -221t213 -146.5t266 -53.5zM887 -37q-164 0 -307.5 59.5t-249 166t-166 252t-60.5 316.5t60.5 316.5t166 251
t249 165.5t307.5 60t307 -60t248.5 -165.5t166 -251t60.5 -316.5t-60.5 -316.5t-166 -252t-248.5 -166t-307 -59.5z" />
    <glyph glyph-name="ordfeminine" unicode="&#xaa;" horiz-adv-x="1089" 
d="M326 746.5q0 -103.5 156 -103.5q116 0 180.5 62t64.5 149v131q-55 -30 -188 -55q-109 -16 -161 -48t-52 -135.5zM88 766q0 218 158 255.5t262 49.5t159.5 35.5t55.5 122t-171 98.5t-196 -151h-225q9 134 117 224.5t293 90.5t282 -61q131 -85 131 -269v-512
q0 -109 35 -133v-14h-235q-25 34 -33 127h-2q-103 -148 -295 -148q-147 0 -241.5 75.5t-94.5 209.5z" />
    <glyph glyph-name="guillemotleft" unicode="&#xab;" horiz-adv-x="1050" 
d="M139 432v252l326 309v-243l-199 -193v-4l199 -193v-237zM584 432v252l327 309v-243l-200 -193v-4l200 -193v-237z" />
    <glyph glyph-name="logicalnot" unicode="&#xac;" horiz-adv-x="1136" 
d="M119 901h872v-561h-223v350h-649v211z" />
    <glyph glyph-name="uni00AD" unicode="&#xad;" horiz-adv-x="753" 
d="M90 676h574v-230h-574v230z" />
    <glyph glyph-name="registered" unicode="&#xae;" horiz-adv-x="1345" 
d="M582 993h120q98 0 99 80q0 35 -23.5 56.5t-72.5 21.5h-123v-158zM946 1090q0 -116 -123 -150v-4q53 -14 75 -40t29 -81t10 -103t19 -55v-12h-143q-14 6 -17 50t-10 96q-6 92 -104 92h-100v-238h-148v623h297q90 0 152.5 -46t62.5 -132zM673.5 436q106.5 0 197 39
t156 107.5t102 163t36.5 205t-36.5 205.5t-102 164t-156 107.5t-197 38.5t-196.5 -38.5t-155.5 -107.5t-102.5 -164t-37 -205.5t37 -205t102.5 -163t155.5 -107.5t196.5 -39zM674 352q-123 0 -231.5 45t-188.5 125t-126 189.5t-46 238.5t46 239.5t126 190.5t188.5 125
t231.5 45t230.5 -45t187 -125t126 -190.5t46.5 -239.5t-46.5 -238.5t-126 -189.5t-187 -125t-230.5 -45z" />
    <glyph glyph-name="macron" unicode="&#xaf;" 
d="M213 1495h602v-192h-602v192z" />
    <glyph glyph-name="degree" unicode="&#xb0;" horiz-adv-x="843" 
d="M422 981q78 0 124 52t46 130t-46 132.5t-124 54.5t-124 -54.5t-46 -132.5t46 -130t124 -52zM185 1396q99 95 237 95t238 -94.5t100 -232t-99 -231t-239 -93.5t-238 94t-98 230.5t99 231.5z" />
    <glyph glyph-name="plusminus" unicode="&#xb1;" horiz-adv-x="1236" 
d="M119 201h999v-201h-999v201zM119 905h389v348h221v-348h389v-205h-389v-350h-221v350h-389v205z" />
    <glyph glyph-name="uni00B2" unicode="&#xb2;" horiz-adv-x="851" 
d="M573 1248q0 52 -36.5 89t-105.5 37t-110.5 -48t-41.5 -128h-205q0 164 100 254t263 90t256 -85t93 -221t-102 -214.5t-210.5 -141.5t-143.5 -120h456v-172h-729q5 189 124.5 292t197.5 148t114.5 73.5t58 61.5t21.5 85z" />
    <glyph glyph-name="uni00B3" unicode="&#xb3;" horiz-adv-x="870" 
d="M811 858q0 -143 -105 -218t-278 -75t-279 92.5t-106 233.5h205q4 -68 47 -115t128 -47q171 0 171 137.5t-178 137.5h-58v149h52q161 0 161 119q0 55 -38.5 87t-108.5 32t-107.5 -43t-42.5 -103h-202q4 130 103 214.5t256 84.5t252 -71t95 -198t-166 -183v-2
q199 -49 199 -232z" />
    <glyph glyph-name="acute" unicode="&#xb4;" 
d="M498 1581h307l-215 -315h-201z" />
    <glyph glyph-name="mu" unicode="&#xb5;" horiz-adv-x="1202" 
d="M379 -367h-260v1461h260v-701q0 -98 53 -151.5t158 -53.5t170 75t65 190v641h258v-1094h-252v156h-4q-111 -176 -305 -176q-100 0 -145 49h-4l6 -205v-191z" />
    <glyph glyph-name="paragraph" unicode="&#xb6;" horiz-adv-x="1206" 
d="M494 733q-199 0 -308.5 106.5t-109.5 284.5t112 289q112 110 320 111h557v-1811h-166v1626h-166v-1626h-164v1020h-75z" />
    <glyph glyph-name="periodcentered" unicode="&#xb7;" horiz-adv-x="503" 
d="M109 815h286v-287h-286v287z" />
    <glyph glyph-name="cedilla" unicode="&#xb8;" 
d="M455 -195q-41 0 -78 -14l-35 53l147 156h132l-129 -113v-4q85 13 153 -24t68 -118t-68.5 -125t-160.5 -44q-154 0 -248 61l36 74q70 -33 148 -33q112 0 112 70q0 61 -77 61z" />
    <glyph glyph-name="uni00B9" unicode="&#xb9;" horiz-adv-x="643" 
d="M510 1534v-946h-217v610h-234v145q241 9 273 191h178z" />
    <glyph glyph-name="ordmasculine" unicode="&#xba;" horiz-adv-x="1132" 
d="M567.5 651q61.5 0 106.5 24.5t75.5 68.5t46 104.5t15.5 132.5t-15.5 133.5t-46 105.5t-75.5 69.5t-106.5 25.5t-107.5 -25.5t-77 -69.5t-46 -105.5t-15 -133.5t15 -132.5t46 -104.5t77 -68.5t107.5 -24.5zM567.5 475q-112.5 0 -204 39t-155 107.5t-98 160.5t-34.5 198.5
t34.5 200t98 163t155 108.5t204 39t203.5 -39t154.5 -108.5t97.5 -163t34 -200t-34 -198.5t-97.5 -160.5t-154.5 -107.5t-203.5 -39z" />
    <glyph glyph-name="guillemotright" unicode="&#xbb;" horiz-adv-x="1050" 
d="M911 682v-252l-327 -307v242l200 192v4l-200 193v239zM465 682v-252l-326 -307v242l201 192v4l-201 193v239z" />
    <glyph glyph-name="onequarter" unicode="&#xbc;" horiz-adv-x="1789" 
d="M1227 135h162v227q0 58 14 156h-4q-15 -27 -31 -48t-32.5 -45t-32.5 -40l-113 -139q-38 -48 -68 -73q-29 -25 -49 -44v-4q145 10 154 10zM516 1534v-946h-217v610h-233v145q242 9 272 191h178zM1419 1524h197l-1307 -1790h-194zM1389 -20h-455v188l457 553h213v-586h141
v-155h-141v-205h-215v205z" />
    <glyph glyph-name="onehalf" unicode="&#xbd;" horiz-adv-x="1884" 
d="M1411 1524h197l-1307 -1790h-195zM516 1534v-946h-217v610h-233v145q242 9 272 191h178zM1597 435q0 52 -36.5 89t-105.5 37t-110.5 -48t-41.5 -128h-205q0 162 100 253t263 91t256 -85t93 -221t-102 -214.5t-210.5 -141.5t-143.5 -120h456v-172h-729q5 191 124 291.5
t197.5 147t115 75t58 61.5t21.5 85z" />
    <glyph glyph-name="threequarters" unicode="&#xbe;" horiz-adv-x="1970" 
d="M1407 135h162v227q0 58 14 156h-4q-15 -27 -31 -48t-32.5 -45t-32.5 -40l-113 -139q-38 -48 -68 -73q-29 -25 -49 -44v-4q145 10 154 10zM1591 1524h197l-1307 -1790h-194zM817 858q0 -143 -105 -218t-278 -75t-279 92.5t-106 233.5h205q4 -68 47 -115t128 -47
q171 0 171 137.5t-178 137.5h-57v149h51q162 0 162 119q0 55 -39 87t-109 32t-107.5 -43t-41.5 -103h-203q4 130 103 214.5t256 84.5t252 -71t95 -198t-166 -183v-2q199 -49 199 -232zM1569 -20h-455v188l457 553h213v-586h141v-155h-141v-205h-215v205z" />
    <glyph glyph-name="questiondown" unicode="&#xbf;" horiz-adv-x="1157" 
d="M727 764q0 -194 -83.5 -287t-145.5 -138.5t-109 -96.5t-47 -132t62 -133.5t180 -52.5t190 77t76 194h258q-9 -212 -149 -352t-381 -140t-374.5 113t-133.5 290q0 119 51 197t123 134t122 94t78 72q48 60 48 161h235zM756 969h-287v284h287v-284z" />
    <glyph glyph-name="Agrave" unicode="&#xc0;" horiz-adv-x="1470" 
d="M422 1870h315l97 -262h-207zM508 571h438l-117 353q-39 116 -61 213q-22 98 -35 153h-4q-72 -284 -100 -366zM582 1524h303l555 -1524h-303l-121 362h-578l-123 -362h-286z" />
    <glyph glyph-name="Aacute" unicode="&#xc1;" horiz-adv-x="1470" 
d="M715 1870h315l-205 -262h-209zM508 571h438l-117 353q-39 116 -61 213q-22 98 -35 153h-4q-72 -284 -100 -366zM582 1524h303l555 -1524h-303l-121 362h-578l-123 -362h-286z" />
    <glyph glyph-name="Acircumflex" unicode="&#xc2;" horiz-adv-x="1470" 
d="M600 1860h264l213 -252h-239l-103 121h-4l-106 -121h-240zM508 571h438l-117 353q-39 116 -61 213q-22 98 -35 153h-4q-72 -284 -100 -366zM582 1524h303l555 -1524h-303l-121 362h-578l-123 -362h-286z" />
    <glyph glyph-name="Atilde" unicode="&#xc3;" horiz-adv-x="1470" 
d="M852 1786q54 0 63 76h156q-4 -117 -52 -184.5t-129 -67.5t-139.5 27.5t-85 41t-50.5 13.5t-42 -22.5t-22 -59.5h-154q2 127 57.5 191.5t133.5 64.5t131 -28t78.5 -40t54.5 -12zM508 571h438l-117 353q-39 116 -61 213q-22 98 -35 153h-4q-72 -284 -100 -366zM582 1524
h303l555 -1524h-303l-121 362h-578l-123 -362h-286z" />
    <glyph glyph-name="Adieresis" unicode="&#xc4;" horiz-adv-x="1470" 
d="M377 1858h256v-250h-256v250zM838 1858h256v-250h-256v250zM508 571h438l-117 353q-39 116 -61 213q-22 98 -35 153h-4q-72 -284 -100 -366zM582 1524h303l555 -1524h-303l-121 362h-578l-123 -362h-286z" />
    <glyph glyph-name="Aring" unicode="&#xc5;" horiz-adv-x="1470" 
d="M735 1694q49 0 80 32.5t31 80.5t-31 82t-80 34t-79.5 -34t-30.5 -82t30.5 -80.5t79.5 -32.5zM508 571h438l-117 353q-39 116 -61 213q-22 98 -35 153h-4q-72 -284 -100 -366zM577 1654q-65 63 -65 153t66 153t157 63t157 -62t66 -154t-65.5 -154t-157.5 -62
q-93 0 -158 63zM582 1524h303l555 -1524h-303l-121 362h-578l-123 -362h-286z" />
    <glyph glyph-name="AE" unicode="&#xc6;" horiz-adv-x="2107" 
d="M942 575v707h-188l-240 -707h428zM1991 1282h-762v-379h667v-227h-667v-422h786v-254h-1073v367h-500l-125 -367h-282l534 1524h1422v-242z" />
    <glyph glyph-name="Ccedilla" unicode="&#xc7;" horiz-adv-x="1540" 
d="M725 -195q-38 0 -78 -14l-35 53l119 127q-292 28 -470.5 245.5t-178.5 553.5t200.5 559t534.5 223q260 0 422 -125q186 -146 215 -393h-283q-20 123 -112.5 201t-222.5 78t-212.5 -42t-167.5 -155t-85 -358q0 -246 123 -398.5t323 -152.5q164 0 260.5 96.5t108.5 239.5
h284q-4 -115 -108 -338.5t-508 -235.5l-92 -82v-4q139 21 180 -39.5t41 -105.5q0 -78 -68.5 -122t-160.5 -44q-151 0 -248 61l37 74q70 -33 147 -33q113 0 113 70q0 61 -78 61z" />
    <glyph glyph-name="Egrave" unicode="&#xc8;" horiz-adv-x="1368" 
d="M410 1870h315l96 -262h-207zM143 1524h1114v-242h-831v-377h735v-227h-735v-430h850v-248h-1133v1524z" />
    <glyph glyph-name="Eacute" unicode="&#xc9;" horiz-adv-x="1368" 
d="M702 1870h316l-205 -262h-209zM143 1524h1114v-242h-831v-377h735v-227h-735v-430h850v-248h-1133v1524z" />
    <glyph glyph-name="Ecircumflex" unicode="&#xca;" horiz-adv-x="1368" 
d="M586 1860h264l213 -252h-240l-102 121h-4l-107 -121h-239zM143 1524h1114v-242h-831v-377h735v-227h-735v-430h850v-248h-1133v1524z" />
    <glyph glyph-name="Edieresis" unicode="&#xcb;" horiz-adv-x="1368" 
d="M825 1858h256v-250h-256v250zM365 1858h256v-250h-256v250zM143 1524h1114v-242h-831v-377h735v-227h-735v-430h850v-248h-1133v1524z" />
    <glyph glyph-name="Igrave" unicode="&#xcc;" horiz-adv-x="573" 
d="M-25 1870h316l96 -262h-207zM143 1524h285v-1524h-285v1524z" />
    <glyph glyph-name="Iacute" unicode="&#xcd;" horiz-adv-x="573" 
d="M268 1870h316l-205 -262h-209zM143 1524h285v-1524h-285v1524z" />
    <glyph glyph-name="Icircumflex" unicode="&#xce;" horiz-adv-x="573" 
d="M152 1860h264l213 -252h-240l-102 121h-4l-107 -121h-239zM143 1524h285v-1524h-285v1524z" />
    <glyph glyph-name="Idieresis" unicode="&#xcf;" horiz-adv-x="573" 
d="M-41 1858h246v-250h-246v250zM369 1858h243v-250h-243v250zM143 1524h285v-1524h-285v1524z" />
    <glyph glyph-name="Eth" unicode="&#xd0;" horiz-adv-x="1529" 
d="M725 242q225 0 330.5 136t105.5 376q0 380 -157.5 454t-270.5 74h-291v-399h387v-228h-387v-413h283zM23 883h135v641h602q328 0 510 -210t182 -559t-184.5 -552t-526.5 -203h-583v655h-135v228z" />
    <glyph glyph-name="Ntilde" unicode="&#xd1;" horiz-adv-x="1529" 
d="M1120 760v764h269v-1524h-291l-504 795q-33 51 -65.5 113.5t-63.5 120.5t-64 122h-4q3 -70 9 -172t6 -217v-762h-269v1524h291l506 -799q31 -51 63.5 -112.5t63.5 -119.5t63 -122h7q-17 297 -17 389zM662 1692q-24 0 -42 -22.5t-22 -59.5h-154q2 127 57.5 191.5
t133.5 64.5t131 -28t78.5 -40t55.5 -12q52 0 63 76h155q-4 -117 -52 -184.5t-129 -67.5t-139.5 27.5t-85 41t-50.5 13.5z" />
    <glyph glyph-name="Ograve" unicode="&#xd2;" horiz-adv-x="1662" 
d="M1171.5 1162.5q-118.5 156.5 -338.5 156.5t-341 -157.5t-121 -404.5t121.5 -399.5t340.5 -152.5t338 152t119 400.5t-118.5 405zM82 760q0 349 205 570.5t544.5 221.5t544.5 -222t205 -570q0 -349 -204 -572t-545.5 -223t-545.5 223t-204 572zM518 1870h316l96 -262h-207
z" />
    <glyph glyph-name="Oacute" unicode="&#xd3;" horiz-adv-x="1662" 
d="M1171.5 1162.5q-118.5 156.5 -338.5 156.5t-341 -157.5t-121 -404.5t121.5 -399.5t340.5 -152.5t338 152t119 400.5t-118.5 405zM82 760q0 349 205 570.5t544.5 221.5t544.5 -222t205 -570q0 -349 -204 -572t-545.5 -223t-545.5 223t-204 572zM811 1870h315l-204 -262
h-209z" />
    <glyph glyph-name="Ocircumflex" unicode="&#xd4;" horiz-adv-x="1662" 
d="M694 1860h264l213 -252h-239l-103 121h-4l-106 -121h-240zM1171.5 1162.5q-118.5 156.5 -338.5 156.5t-341 -157.5t-121 -404.5t121.5 -399.5t340.5 -152.5t338 152t119 400.5t-118.5 405zM82 760q0 349 205 570.5t544.5 221.5t544.5 -222t205 -570q0 -349 -204 -572
t-545.5 -223t-545.5 223t-204 572z" />
    <glyph glyph-name="Otilde" unicode="&#xd5;" horiz-adv-x="1662" 
d="M1171.5 1162.5q-118.5 156.5 -338.5 156.5t-341 -157.5t-121 -404.5t121.5 -399.5t340.5 -152.5t338 152t119 400.5t-118.5 405zM82 760q0 349 205 570.5t544.5 221.5t544.5 -222t205 -570q0 -349 -204 -572t-545.5 -223t-545.5 223t-204 572zM948 1786q55 0 64 76h155
q-4 -117 -52 -184.5t-129 -67.5t-139.5 27.5t-84.5 41t-50 13.5t-42.5 -22.5t-22.5 -59.5h-153q2 127 57 191.5t133 64.5t131 -28t79 -40t54 -12z" />
    <glyph glyph-name="Odieresis" unicode="&#xd6;" horiz-adv-x="1662" 
d="M1171.5 1162.5q-118.5 156.5 -338.5 156.5t-341 -157.5t-121 -404.5t121.5 -399.5t340.5 -152.5t338 152t119 400.5t-118.5 405zM82 760q0 349 205 570.5t544.5 221.5t544.5 -222t205 -570q0 -349 -204 -572t-545.5 -223t-545.5 223t-204 572zM473 1858h256v-250h-256
v250zM934 1858h256v-250h-256v250z" />
    <glyph glyph-name="multiply" unicode="&#xd7;" horiz-adv-x="1234" 
d="M137 354l338 340l-336 338l144 144l333 -338l336 338l146 -144l-338 -338l338 -338l-146 -143l-336 338l-335 -338z" />
    <glyph glyph-name="Oslash" unicode="&#xd8;" horiz-adv-x="1662" 
d="M1290 758q0 186 -67 325l-699 -766q120 -112 324 -112t323 152t119 401zM1141 1200q-115 119 -321 119t-327.5 -157.5t-121.5 -403.5q0 -193 69 -326zM252 227q-170 210 -170 546q0 335 205 557t544 222q283 0 482 -163l180 198l106 -92l-188 -207q170 -216 170 -547
t-204 -553.5t-546 -222.5q-286 0 -481 162l-192 -213l-105 94z" />
    <glyph glyph-name="Ugrave" unicode="&#xd9;" horiz-adv-x="1464" 
d="M123 514v1010h283v-1006q0 -309 329 -309q156 0 240 80t84 233v1002h284v-1010q0 -264 -161 -402.5t-448 -138.5q-286 0 -448.5 134.5t-162.5 406.5zM428 1870h315l97 -262h-207z" />
    <glyph glyph-name="Uacute" unicode="&#xda;" horiz-adv-x="1464" 
d="M123 514v1010h283v-1006q0 -309 329 -309q156 0 240 80t84 233v1002h284v-1010q0 -264 -161 -402.5t-448 -138.5q-286 0 -448.5 134.5t-162.5 406.5zM719 1870h315l-205 -262h-208z" />
    <glyph glyph-name="Ucircumflex" unicode="&#xdb;" horiz-adv-x="1464" 
d="M596 1860h264l213 -252h-239l-103 121h-4l-106 -121h-240zM123 514v1010h283v-1006q0 -309 329 -309q156 0 240 80t84 233v1002h284v-1010q0 -264 -161 -402.5t-448 -138.5q-286 0 -448.5 134.5t-162.5 406.5z" />
    <glyph glyph-name="Udieresis" unicode="&#xdc;" horiz-adv-x="1464" 
d="M123 514v1010h283v-1006q0 -309 329 -309q156 0 240 80t84 233v1002h284v-1010q0 -264 -161 -402.5t-448 -138.5q-286 0 -448.5 134.5t-162.5 406.5zM373 1858h256v-250h-256v250zM834 1858h256v-250h-256v250z" />
    <glyph glyph-name="Yacute" unicode="&#xdd;" horiz-adv-x="1417" 
d="M690 1870h316l-205 -262h-209zM848 0h-285v602l-534 922h313l215 -385q40 -74 82 -170q43 -96 70 -156h4q89 211 153 326l217 385h301l-536 -926v-598z" />
    <glyph glyph-name="Thorn" unicode="&#xde;" horiz-adv-x="1368" 
d="M430 1038v-479h340q131 0 197.5 65.5t66.5 179.5t-67.5 174t-192.5 60h-344zM143 1524h287v-240h373q254 0 387 -147q129 -133 129 -340t-133 -336t-371 -129h-385v-332h-287v1524z" />
    <glyph glyph-name="germandbls" unicode="&#xdf;" horiz-adv-x="1185" 
d="M661 -20q-86 0 -145 14v196h6q156 -23 249 50.5t93 223.5q0 304 -289 304h-51v166h39q109 0 175.5 55t66.5 151t-53.5 149.5t-154.5 53.5t-159.5 -60t-58.5 -167v-1116h-260v1126q0 192 128 306t339 114q210 0 337.5 -103t127.5 -278q0 -111 -55.5 -184.5t-178.5 -112.5
v-6q147 -37 226 -137.5t79 -238.5t-34.5 -228t-98 -151.5t-153 -94t-175.5 -32.5z" />
    <glyph glyph-name="agrave" unicode="&#xe0;" horiz-adv-x="1159" 
d="M281 1581h309l108 -315h-200zM330 303q0 -151 188 -151q125 0 201 72.5t76 172.5v162q-60 -38 -197 -67q-137 -28 -202.5 -63.5t-65.5 -125.5zM590 1122q450 0 448 -374v-576q0 -124 41 -154v-18h-252q-28 37 -36 141h-5q-53 -72 -132.5 -120t-185.5 -48
q-194 0 -296 85.5t-102 247.5t112 232t291 91q180 22 247.5 52.5t67.5 102.5t-49 115t-153 43t-158.5 -47t-58.5 -129h-246q4 152 126 254t341 102z" />
    <glyph glyph-name="aacute" unicode="&#xe1;" horiz-adv-x="1159" 
d="M586 1581h307l-215 -315h-201zM330 303q0 -151 188 -151q125 0 201 72.5t76 172.5v162q-60 -38 -197 -67q-137 -28 -202.5 -63.5t-65.5 -125.5zM590 1122q450 0 448 -374v-576q0 -124 41 -154v-18h-252q-28 37 -36 141h-5q-53 -72 -132.5 -120t-185.5 -48
q-194 0 -296 85.5t-102 247.5t112 232t291 91q180 22 247.5 52.5t67.5 102.5t-49 115t-153 43t-158.5 -47t-58.5 -129h-246q4 152 126 254t341 102z" />
    <glyph glyph-name="acircumflex" unicode="&#xe2;" horiz-adv-x="1159" 
d="M451 1550h264l209 -278h-238l-100 158h-4l-105 -158h-237zM330 303q0 -151 188 -151q125 0 201 72.5t76 172.5v162q-60 -38 -197 -67q-137 -28 -202.5 -63.5t-65.5 -125.5zM590 1122q450 0 448 -374v-576q0 -124 41 -154v-18h-252q-28 37 -36 141h-5q-53 -72 -132.5 -120
t-185.5 -48q-194 0 -296 85.5t-102 247.5t112 232t291 91q180 22 247.5 52.5t67.5 102.5t-49 115t-153 43t-158.5 -47t-58.5 -129h-246q4 152 126 254t341 102z" />
    <glyph glyph-name="atilde" unicode="&#xe3;" horiz-adv-x="1159" 
d="M707 1446q54 0 63 78h154q-4 -117 -52.5 -184.5t-129.5 -67.5t-139 27.5t-84.5 41t-49.5 13.5q-57 0 -68 -82h-151q2 129 57 192.5t129 63.5t132.5 -29t84 -41t54.5 -12zM330 303q0 -151 188 -151q125 0 201 72.5t76 172.5v162q-60 -38 -197 -67q-137 -28 -202.5 -63.5
t-65.5 -125.5zM590 1122q450 0 448 -374v-576q0 -124 41 -154v-18h-252q-28 37 -36 141h-5q-53 -72 -132.5 -120t-185.5 -48q-194 0 -296 85.5t-102 247.5t112 232t291 91q180 22 247.5 52.5t67.5 102.5t-49 115t-153 43t-158.5 -47t-58.5 -129h-246q4 152 126 254t341 102z
" />
    <glyph glyph-name="adieresis" unicode="&#xe4;" horiz-adv-x="1159" 
d="M233 1524h250v-252h-250v252zM688 1524h250v-252h-250v252zM330 303q0 -151 188 -151q125 0 201 72.5t76 172.5v162q-60 -38 -197 -67q-137 -28 -202.5 -63.5t-65.5 -125.5zM590 1122q450 0 448 -374v-576q0 -124 41 -154v-18h-252q-28 37 -36 141h-5
q-53 -72 -132.5 -120t-185.5 -48q-194 0 -296 85.5t-102 247.5t112 232t291 91q180 22 247.5 52.5t67.5 102.5t-49 115t-153 43t-158.5 -47t-58.5 -129h-246q4 152 126 254t341 102z" />
    <glyph glyph-name="aring" unicode="&#xe5;" horiz-adv-x="1159" 
d="M586 1325q49 0 79.5 33t30.5 82t-30.5 82.5t-79.5 33.5t-80 -33.5t-31 -82.5t31 -82t80 -33zM330 303q0 -151 188 -151q125 0 201 72.5t76 172.5v162q-60 -38 -197 -67q-137 -28 -202.5 -63.5t-65.5 -125.5zM427 1286q-65 63 -65 153t67 154t157 64q91 0 157 -64t66 -154
t-64.5 -153t-158.5 -63t-159 63zM590 1122q450 0 448 -374v-576q0 -124 41 -154v-18h-252q-28 37 -36 141h-5q-53 -72 -132.5 -120t-185.5 -48q-194 0 -296 85.5t-102 247.5t112 232t291 91q180 22 247.5 52.5t67.5 102.5t-49 115t-153 43t-158.5 -47t-58.5 -129h-246
q4 152 126 254t341 102z" />
    <glyph glyph-name="ae" unicode="&#xe6;" horiz-adv-x="1896" 
d="M1309 934q-117 0 -181.5 -80t-80.5 -209h518q-6 135 -72.5 212t-183.5 77zM536 152q52 0 104 21.5t105.5 72.5t53.5 151v160q-64 -38 -199 -65q-135 -28 -200.5 -63.5t-65.5 -125.5q0 -120 75 -135.5t127 -15.5zM1335 -33q-294 0 -424 228q-82 -119 -184.5 -171.5
t-268.5 -52.5t-275 83t-109 249t112 235.5t291 90.5q180 22 248 52t68 101.5t-49.5 115.5t-147.5 44q-212 0 -225 -176h-244q4 152 126 254t341 102q272 0 369 -155q131 155 355 155t363 -151q156 -164 152 -490h-789q12 -141 83 -228t210 -87q88 0 144.5 39t81.5 104h254
q-37 -152 -161 -247t-321 -95z" />
    <glyph glyph-name="ccedilla" unicode="&#xe7;" horiz-adv-x="1165" 
d="M532 -195q-40 0 -77 -14l-35 53l121 129q-216 23 -347 185t-131 400t152 401t399 163q205 0 335 -106t159 -287h-254q-18 90 -78 142.5t-146 52.5q-155 0 -228.5 -105.5t-73.5 -271.5t74 -271.5t214 -105.5q109 0 171.5 59.5t72.5 167.5h254q-12 -182 -131 -298.5
t-321 -129.5l-93 -82v-4q86 13 154 -24t68 -118t-68.5 -125t-160.5 -44q-152 0 -249 61l37 74q70 -33 148 -33q112 0 112 70q0 61 -78 61z" />
    <glyph glyph-name="egrave" unicode="&#xe8;" horiz-adv-x="1202" 
d="M303 1581h309l109 -315h-201zM601 934q-124 0 -191.5 -80t-83.5 -209h544q-8 135 -76.5 212t-192.5 77zM623 166q186 0 241 143h254q-41 -152 -171 -247t-326 -95q-255 0 -406.5 164t-151.5 414t152 413.5t386.5 163.5t381.5 -153q160 -172 156 -488h-817
q14 -141 88.5 -228t212.5 -87z" />
    <glyph glyph-name="eacute" unicode="&#xe9;" horiz-adv-x="1202" 
d="M608 1581h307l-215 -315h-200zM601 934q-124 0 -191.5 -80t-83.5 -209h544q-8 135 -76.5 212t-192.5 77zM623 166q186 0 241 143h254q-41 -152 -171 -247t-326 -95q-255 0 -406.5 164t-151.5 414t152 413.5t386.5 163.5t381.5 -153q160 -172 156 -488h-817
q14 -141 88.5 -228t212.5 -87z" />
    <glyph glyph-name="ecircumflex" unicode="&#xea;" horiz-adv-x="1202" 
d="M473 1550h264l209 -278h-237l-101 158h-4l-104 -158h-238zM601 934q-124 0 -191.5 -80t-83.5 -209h544q-8 135 -76.5 212t-192.5 77zM623 166q186 0 241 143h254q-41 -152 -171 -247t-326 -95q-255 0 -406.5 164t-151.5 414t152 413.5t386.5 163.5t381.5 -153
q160 -172 156 -488h-817q14 -141 88.5 -228t212.5 -87z" />
    <glyph glyph-name="edieresis" unicode="&#xeb;" horiz-adv-x="1202" 
d="M711 1524h250v-252h-250v252zM256 1524h250v-252h-250v252zM601 934q-124 0 -191.5 -80t-83.5 -209h544q-8 135 -76.5 212t-192.5 77zM623 166q186 0 241 143h254q-41 -152 -171 -247t-326 -95q-255 0 -406.5 164t-151.5 414t152 413.5t386.5 163.5t381.5 -153
q160 -172 156 -488h-817q14 -141 88.5 -228t212.5 -87z" />
    <glyph glyph-name="igrave" unicode="&#xec;" horiz-adv-x="495" 
d="M-55 1581h309l108 -315h-200zM119 1094h260v-1094h-260v1094z" />
    <glyph glyph-name="iacute" unicode="&#xed;" horiz-adv-x="495" 
d="M119 1094h260v-1094h-260v1094zM250 1581h307l-215 -315h-201z" />
    <glyph glyph-name="icircumflex" unicode="&#xee;" horiz-adv-x="495" 
d="M119 1094h260v-1094h-260v1094zM115 1550h264l209 -278h-238l-100 158h-4l-105 -158h-237z" />
    <glyph glyph-name="idieresis" unicode="&#xef;" horiz-adv-x="495" 
d="M-41 1524h227v-252h-227v252zM309 1524h228v-252h-228v252zM119 1094h260v-1094h-260v1094z" />
    <glyph glyph-name="eth" unicode="&#xf0;" horiz-adv-x="1243" 
d="M836 270q75 106 75 275t-76.5 274t-252 105t-215 -148.5t-39.5 -231.5t18.5 -152.5t75.5 -148.5t198 -79t216 106zM362 1524h322q64 -44 121 -92l215 65l49 -113l-166 -51q275 -305 275 -715q0 -289 -141 -470t-402 -181t-416.5 165.5t-155.5 412.5t138 405t362 158
q184 0 283 -119h6q-64 143 -186 271l-293 -91l-47 115l235 72q-89 75 -199 153v15z" />
    <glyph glyph-name="ntilde" unicode="&#xf1;" horiz-adv-x="1206" 
d="M731 1446q55 0 64 78h153q-4 -117 -52 -184.5t-129 -67.5t-139.5 27.5t-85 41t-50.5 13.5t-43 -21.5t-23 -60.5h-152q2 129 57.5 192.5t130.5 63.5t132 -29t82.5 -41t54.5 -12zM719 1122q178 0 277.5 -101t99.5 -280v-741h-260v698q0 98 -54.5 153.5t-159.5 55.5
t-174 -75t-69 -191v-641h-260v1094h254v-160h6q108 188 340 188z" />
    <glyph glyph-name="ograve" unicode="&#xf2;" horiz-adv-x="1241" 
d="M315 1581h310l108 -315h-201zM620.5 164q71.5 0 126 28.5t91 80t56 121t19.5 151.5t-19.5 152.5t-56 122.5t-91 81t-126 29t-127 -29t-92 -81t-55 -122.5t-18.5 -152.5t18.5 -151.5t55 -121t92 -80t127 -28.5zM63 546q0 248 154.5 412t404 164t403 -163t153.5 -413
t-154 -414.5t-402.5 -164.5t-403.5 165.5t-155 413.5z" />
    <glyph glyph-name="oacute" unicode="&#xf3;" horiz-adv-x="1241" 
d="M620.5 164q71.5 0 126 28.5t91 80t56 121t19.5 151.5t-19.5 152.5t-56 122.5t-91 81t-126 29t-127 -29t-92 -81t-55 -122.5t-18.5 -152.5t18.5 -151.5t55 -121t92 -80t127 -28.5zM63 546q0 248 154.5 412t404 164t403 -163t153.5 -413t-154 -414.5t-402.5 -164.5
t-403.5 165.5t-155 413.5zM621 1581h307l-215 -315h-201z" />
    <glyph glyph-name="ocircumflex" unicode="&#xf4;" horiz-adv-x="1241" 
d="M620.5 164q71.5 0 126 28.5t91 80t56 121t19.5 151.5t-19.5 152.5t-56 122.5t-91 81t-126 29t-127 -29t-92 -81t-55 -122.5t-18.5 -152.5t18.5 -151.5t55 -121t92 -80t127 -28.5zM63 546q0 248 154.5 412t404 164t403 -163t153.5 -413t-154 -414.5t-402.5 -164.5
t-403.5 165.5t-155 413.5zM485 1550h265l208 -278h-237l-100 158h-5l-104 -158h-238z" />
    <glyph glyph-name="otilde" unicode="&#xf5;" horiz-adv-x="1241" 
d="M741 1446q55 0 64 78h153q-4 -117 -52 -184.5t-129 -67.5t-139 27.5t-85 41t-51 13.5t-43 -21.5t-23 -60.5h-151q2 129 57.5 192.5t129.5 63.5t132 -29t83.5 -41t53.5 -12zM620.5 164q71.5 0 126 28.5t91 80t56 121t19.5 151.5t-19.5 152.5t-56 122.5t-91 81t-126 29
t-127 -29t-92 -81t-55 -122.5t-18.5 -152.5t18.5 -151.5t55 -121t92 -80t127 -28.5zM63 546q0 248 154.5 412t404 164t403 -163t153.5 -413t-154 -414.5t-402.5 -164.5t-403.5 165.5t-155 413.5z" />
    <glyph glyph-name="odieresis" unicode="&#xf6;" horiz-adv-x="1241" 
d="M620.5 164q71.5 0 126 28.5t91 80t56 121t19.5 151.5t-19.5 152.5t-56 122.5t-91 81t-126 29t-127 -29t-92 -81t-55 -122.5t-18.5 -152.5t18.5 -151.5t55 -121t92 -80t127 -28.5zM63 546q0 248 154.5 412t404 164t403 -163t153.5 -413t-154 -414.5t-402.5 -164.5
t-403.5 165.5t-155 413.5zM268 1524h250v-252h-250v252zM723 1524h250v-252h-250v252z" />
    <glyph glyph-name="divide" unicode="&#xf7;" horiz-adv-x="1232" 
d="M475 428h285v-264h-285v264zM125 803h983v-209h-983v209zM475 1233h285v-266h-285v266z" />
    <glyph glyph-name="oslash" unicode="&#xf8;" horiz-adv-x="1241" 
d="M915 545q0 111 -30 196l-459 -503q74 -74 205 -74t207.5 106.5t76.5 274.5zM324 528q0 -100 34 -188l463 508q-74 84 -206 84t-211.5 -106t-79.5 -298zM195 158q-132 163 -132 400q0 236 154.5 400t405.5 164q200 0 346 -114l143 157l88 -78l-147 -161q125 -161 125 -395
t-154 -399t-401 -165q-197 0 -344 109l-152 -166l-88 78z" />
    <glyph glyph-name="ugrave" unicode="&#xf9;" horiz-adv-x="1193" 
d="M287 1581h309l109 -315h-201zM823 0v156h-4q-59 -90 -136 -137.5t-194 -47.5q-180 0 -279 103.5t-99 281.5v738h260v-701q0 -98 53.5 -151.5t157.5 -53.5t169.5 75t65.5 190v641h258v-1094h-252z" />
    <glyph glyph-name="uacute" unicode="&#xfa;" horiz-adv-x="1193" 
d="M592 1581h307l-215 -315h-201zM823 0v156h-4q-59 -90 -136 -137.5t-194 -47.5q-180 0 -279 103.5t-99 281.5v738h260v-701q0 -98 53.5 -151.5t157.5 -53.5t169.5 75t65.5 190v641h258v-1094h-252z" />
    <glyph glyph-name="ucircumflex" unicode="&#xfb;" horiz-adv-x="1193" 
d="M457 1550h264l209 -278h-238l-100 158h-4l-105 -158h-237zM823 0v156h-4q-59 -90 -136 -137.5t-194 -47.5q-180 0 -279 103.5t-99 281.5v738h260v-701q0 -98 53.5 -151.5t157.5 -53.5t169.5 75t65.5 190v641h258v-1094h-252z" />
    <glyph glyph-name="udieresis" unicode="&#xfc;" horiz-adv-x="1193" 
d="M694 1524h250v-252h-250v252zM240 1524h249v-252h-249v252zM823 0v156h-4q-59 -90 -136 -137.5t-194 -47.5q-180 0 -279 103.5t-99 281.5v738h260v-701q0 -98 53.5 -151.5t157.5 -53.5t169.5 75t65.5 190v641h258v-1094h-252z" />
    <glyph glyph-name="yacute" unicode="&#xfd;" horiz-adv-x="1103" 
d="M559 1581h307l-215 -315h-200zM307 -373q-67 0 -125.5 5.5t-64.5 7.5v210h14q19 -10 97 -10t116.5 28t54.5 93l1 71q1 72 -13 111l-377 951h277l180 -508q45 -140 61 -210t31 -130h4q35 150 94 340l174 508h263l-424 -1155q-71 -183 -148.5 -247.5t-214.5 -64.5z" />
    <glyph glyph-name="thorn" unicode="&#xfe;" horiz-adv-x="1249" 
d="M856 274q68 102 68 265q0 260 -99.5 316t-170.5 56t-125 -28.5t-90 -79.5t-53 -119t-17 -145.5t17 -144t73.5 -144.5t192.5 -78t204 102zM377 932q117 190 335 190t347 -158t129 -420q0 -261 -128.5 -420t-346.5 -159q-111 0 -198 45t-138 129h-6q8 -62 8 -213v-284h-260
v1882h260v-361q0 -145 -8 -231h6z" />
    <glyph glyph-name="ydieresis" unicode="&#xff;" horiz-adv-x="1103" 
d="M207 1524h250v-252h-250v252zM662 1524h249v-252h-249v252zM307 -373q-67 0 -125.5 5.5t-64.5 7.5v210h14q19 -10 97 -10t116.5 28t54.5 93l1 71q1 72 -13 111l-377 951h277l180 -508q45 -140 61 -210t31 -130h4q35 150 94 340l174 508h263l-424 -1155
q-71 -183 -148.5 -247.5t-214.5 -64.5z" />
    <glyph glyph-name="Amacron" unicode="&#x100;" horiz-adv-x="1470" 
d="M428 1815h612v-193h-612v193zM508 571h438l-117 353q-39 116 -61 213q-22 98 -35 153h-4q-72 -284 -100 -366zM582 1524h303l555 -1524h-303l-121 362h-578l-123 -362h-286z" />
    <glyph glyph-name="amacron" unicode="&#x101;" horiz-adv-x="1159" 
d="M283 1495h602v-192h-602v192zM330 303q0 -151 188 -151q125 0 201 72.5t76 172.5v162q-60 -38 -197 -67q-137 -28 -202.5 -63.5t-65.5 -125.5zM590 1122q450 0 448 -374v-576q0 -124 41 -154v-18h-252q-28 37 -36 141h-5q-53 -72 -132.5 -120t-185.5 -48
q-194 0 -296 85.5t-102 247.5t112 232t291 91q180 22 247.5 52.5t67.5 102.5t-49 115t-153 43t-158.5 -47t-58.5 -129h-246q4 152 126 254t341 102z" />
    <glyph glyph-name="Abreve" unicode="&#x102;" horiz-adv-x="1470" 
d="M737 1595q-131 0 -217 77t-92 202h162q23 -107 145 -107q63 0 99 31t47 76h157q-4 -118 -87 -198.5t-214 -80.5zM508 571h438l-117 353q-39 116 -61 213q-22 98 -35 153h-4q-72 -284 -100 -366zM582 1524h303l555 -1524h-303l-121 362h-578l-123 -362h-286z" />
    <glyph glyph-name="abreve" unicode="&#x103;" horiz-adv-x="1159" 
d="M593 1255q-132 0 -220 78t-94 213h161q17 -121 148 -121q63 0 101 34t46 87h158q-4 -129 -86 -210t-214 -81zM330 303q0 -151 188 -151q125 0 201 72.5t76 172.5v162q-60 -38 -197 -67q-137 -28 -202.5 -63.5t-65.5 -125.5zM590 1122q450 0 448 -374v-576q0 -124 41 -154
v-18h-252q-28 37 -36 141h-5q-53 -72 -132.5 -120t-185.5 -48q-194 0 -296 85.5t-102 247.5t112 232t291 91q180 22 247.5 52.5t67.5 102.5t-49 115t-153 43t-158.5 -47t-58.5 -129h-246q4 152 126 254t341 102z" />
    <glyph glyph-name="Aogonek" unicode="&#x104;" horiz-adv-x="1470" 
d="M510 571h436l-117 353q-39 116 -61 213q-22 98 -35 153h-4q-72 -284 -100 -366zM1290 -383q-106 0 -165.5 48t-59.5 128q0 104 66.5 149.5t95.5 57.5h-90l-123 362h-576l-123 -362h-286l553 1524h303l553 -1518q-74 -35 -113 -82t-39 -88q0 -63 76 -63q41 0 72 10h6v-148
q-44 -18 -150 -18z" />
    <glyph glyph-name="aogonek" unicode="&#x105;" horiz-adv-x="1171" 
d="M536 152q52 0 104 21.5t105.5 72.5t53.5 151v162q-61 -39 -198 -67q-136 -28 -201.5 -63.5t-65.5 -125.5q0 -120 75 -135.5t127 -15.5zM594 1122q450 0 448 -374v-576q0 -124 41 -154v-18q-66 -25 -105.5 -71t-39.5 -93q0 -63 78 -63q39 0 69 10h7v-148q-45 -18 -151 -18
t-164 48t-58 126t50 130t105 83h-45q-29 38 -36 137h-2q-124 -168 -319 -168q-194 0 -296 85.5t-102 247.5t112 232t291 91q180 22 248 52.5t68 102.5t-49.5 115t-147.5 43q-212 0 -225 -176h-244q4 152 126 254t341 102z" />
    <glyph glyph-name="Cacute" unicode="&#x106;" horiz-adv-x="1540" 
d="M774 1870h316l-205 -262h-209zM82 758q0 347 200.5 570.5t534.5 223.5q260 0 422 -125q186 -146 215 -393h-283q-20 123 -112.5 201t-222.5 78t-212.5 -42t-167.5 -155t-85 -358q0 -246 123 -398.5t323 -152.5q164 0 260.5 96.5t108.5 239.5h284q-4 -115 -111 -345.5
t-544 -230.5q-327 0 -530 222t-203 569z" />
    <glyph glyph-name="cacute" unicode="&#x107;" horiz-adv-x="1165" 
d="M63 546q0 249 152 412.5t399 163.5q205 0 335 -106t159 -287h-254q-18 90 -78 142.5t-146 52.5q-155 0 -228.5 -105.5t-73.5 -271.5t74 -271.5t214 -105.5q109 0 171.5 59.5t72.5 167.5h254q-12 -195 -147.5 -312.5t-356.5 -117.5q-239 0 -393 165t-154 414zM602 1581
h307l-215 -315h-200z" />
    <glyph glyph-name="Ccircumflex" unicode="&#x108;" horiz-adv-x="1540" 
d="M657 1860h265l213 -252h-240l-102 121h-5l-106 -121h-240zM82 758q0 347 200.5 570.5t534.5 223.5q260 0 422 -125q186 -146 215 -393h-283q-20 123 -112.5 201t-222.5 78t-212.5 -42t-167.5 -155t-85 -358q0 -246 123 -398.5t323 -152.5q164 0 260.5 96.5t108.5 239.5
h284q-4 -115 -111 -345.5t-544 -230.5q-327 0 -530 222t-203 569z" />
    <glyph glyph-name="ccircumflex" unicode="&#x109;" horiz-adv-x="1165" 
d="M63 546q0 249 152 412.5t399 163.5q205 0 335 -106t159 -287h-254q-18 90 -78 142.5t-146 52.5q-155 0 -228.5 -105.5t-73.5 -271.5t74 -271.5t214 -105.5q109 0 171.5 59.5t72.5 167.5h254q-12 -195 -147.5 -312.5t-356.5 -117.5q-239 0 -393 165t-154 414zM467 1550
h264l209 -278h-238l-100 158h-4l-104 -158h-238z" />
    <glyph glyph-name="Cdotaccent" unicode="&#x10a;" horiz-adv-x="1540" 
d="M82 758q0 347 200.5 570.5t534.5 223.5q260 0 422 -125q186 -146 215 -393h-283q-20 123 -112.5 201t-222.5 78t-212.5 -42t-167.5 -155t-85 -358q0 -246 123 -398.5t323 -152.5q164 0 260.5 96.5t108.5 239.5h284q-4 -115 -111 -345.5t-544 -230.5q-327 0 -530 222
t-203 569zM659 1858h267v-250h-267v250z" />
    <glyph glyph-name="cdotaccent" unicode="&#x10b;" horiz-adv-x="1165" 
d="M469 1524h266v-252h-266v252zM63 546q0 249 152 412.5t399 163.5q205 0 335 -106t159 -287h-254q-18 90 -78 142.5t-146 52.5q-155 0 -228.5 -105.5t-73.5 -271.5t74 -271.5t214 -105.5q109 0 171.5 59.5t72.5 167.5h254q-12 -195 -147.5 -312.5t-356.5 -117.5
q-239 0 -393 165t-154 414z" />
    <glyph glyph-name="Ccaron" unicode="&#x10c;" horiz-adv-x="1540" 
d="M924 1608h-265l-213 252h240l102 -121h5l106 121h240zM82 758q0 347 200.5 570.5t534.5 223.5q260 0 422 -125q186 -146 215 -393h-283q-20 123 -112.5 201t-222.5 78t-212.5 -42t-167.5 -155t-85 -358q0 -246 123 -398.5t323 -152.5q164 0 260.5 96.5t108.5 239.5h284
q-4 -115 -111 -345.5t-544 -230.5q-327 0 -530 222t-203 569z" />
    <glyph glyph-name="ccaron" unicode="&#x10d;" horiz-adv-x="1165" 
d="M63 546q0 249 152 412.5t399 163.5q205 0 335 -106t159 -287h-254q-18 90 -78 142.5t-146 52.5q-155 0 -228.5 -105.5t-73.5 -271.5t74 -271.5t214 -105.5q109 0 171.5 59.5t72.5 167.5h254q-12 -195 -147.5 -312.5t-356.5 -117.5q-239 0 -393 165t-154 414zM733 1266
h-264l-209 280h238l100 -157h4l105 157h237z" />
    <glyph glyph-name="Dcaron" unicode="&#x10e;" horiz-adv-x="1517" 
d="M711 242q225 0 330.5 136t105.5 376q0 380 -158 454t-270 74h-289v-1040h281zM145 1524h600q324 0 508.5 -209t184.5 -559t-185.5 -553t-523.5 -203h-584v1524zM834 1608h-265l-213 252h240l102 -121h4l107 121h240z" />
    <glyph glyph-name="dcaron" unicode="&#x10f;" horiz-adv-x="1249" 
d="M1462 1374q0 -125 -64.5 -180t-174.5 -61v96q106 15 110 104h-108v191h237v-150zM592 178q210 0 249.5 143.5t39.5 224.5q0 167 -74.5 270.5t-209.5 103.5q-134 0 -201.5 -102t-67.5 -269q0 -166 65.5 -268.5t198.5 -102.5zM874 160q-104 -195 -329 -195q-226 0 -354 158
t-128 420t133 420.5t348 158.5t330 -186h5q-9 101 -9 227v361h260v-1524h-251v160h-5z" />
    <glyph glyph-name="Dcroat" unicode="&#x110;" horiz-adv-x="1529" 
d="M725 242q225 0 330.5 136t105.5 376q0 380 -157.5 454t-270.5 74h-291v-399h387v-228h-387v-413h283zM23 883h135v641h602q328 0 510 -210t182 -559t-184.5 -552t-526.5 -203h-583v655h-135v228z" />
    <glyph glyph-name="dcroat" unicode="&#x111;" horiz-adv-x="1249" 
d="M592 178q210 0 249.5 143.5t39.5 224.5q0 167 -74.5 270.5t-209.5 103.5q-134 0 -201.5 -102t-67.5 -269q0 -166 65.5 -268.5t198.5 -102.5zM870 1163v70h-295v145h295v146h260v-146h134v-145h-134v-1233h-251v160h-5q-104 -195 -329 -195q-226 0 -354 158t-128 420
t133 420.5t348 158.5t330 -186h5q-9 101 -9 227z" />
    <glyph glyph-name="Emacron" unicode="&#x112;" horiz-adv-x="1368" 
d="M416 1815h612v-193h-612v193zM143 1524h1114v-242h-831v-377h735v-227h-735v-430h850v-248h-1133v1524z" />
    <glyph glyph-name="emacron" unicode="&#x113;" horiz-adv-x="1202" 
d="M305 1495h602v-192h-602v192zM601 934q-124 0 -191.5 -80t-83.5 -209h544q-8 135 -76.5 212t-192.5 77zM623 166q186 0 241 143h254q-41 -152 -171 -247t-326 -95q-255 0 -406.5 164t-151.5 414t152 413.5t386.5 163.5t381.5 -153q160 -172 156 -488h-817
q14 -141 88.5 -228t212.5 -87z" />
    <glyph glyph-name="Ebreve" unicode="&#x114;" horiz-adv-x="1368" 
d="M725 1595q-131 0 -217 77t-92 202h162q23 -107 145 -107q63 0 99 31t46 76h158q-4 -118 -87 -198.5t-214 -80.5zM143 1524h1114v-242h-831v-377h735v-227h-735v-430h850v-248h-1133v1524z" />
    <glyph glyph-name="ebreve" unicode="&#x115;" horiz-adv-x="1202" 
d="M613 1255q-132 0 -220 78t-94 213h162q17 -121 147 -121q63 0 101.5 34t46.5 87h157q-4 -129 -86 -210t-214 -81zM601 934q-124 0 -191.5 -80t-83.5 -209h544q-8 135 -76.5 212t-192.5 77zM623 166q186 0 241 143h254q-41 -152 -171 -247t-326 -95q-255 0 -406.5 164
t-151.5 414t152 413.5t386.5 163.5t381.5 -153q160 -172 156 -488h-817q14 -141 88.5 -228t212.5 -87z" />
    <glyph glyph-name="Edotaccent" unicode="&#x116;" horiz-adv-x="1368" 
d="M590 1858h266v-250h-266v250zM143 1524h1114v-242h-831v-377h735v-227h-735v-430h850v-248h-1133v1524z" />
    <glyph glyph-name="edotaccent" unicode="&#x117;" horiz-adv-x="1202" 
d="M475 1524h266v-252h-266v252zM601 934q-124 0 -191.5 -80t-83.5 -209h544q-8 135 -76.5 212t-192.5 77zM623 166q186 0 241 143h254q-41 -152 -171 -247t-326 -95q-255 0 -406.5 164t-151.5 414t152 413.5t386.5 163.5t381.5 -153q160 -172 156 -488h-817
q14 -141 88.5 -228t212.5 -87z" />
    <glyph glyph-name="Eogonek" unicode="&#x118;" horiz-adv-x="1368" 
d="M823 -209q0 78 47.5 129t104.5 80h-832v1524h1114v-242h-831v-377h735v-227h-735v-430h850v-248h-119q-113 -94 -113 -164q0 -63 76 -63q41 0 72 10h4v-148q-46 -18 -150 -18t-163.5 48t-59.5 126z" />
    <glyph glyph-name="eogonek" unicode="&#x119;" horiz-adv-x="1202" 
d="M602 934q-123 0 -191.5 -81t-84.5 -208h544q-8 135 -76.5 212t-191.5 77zM535 -218q0 116 114 187q-4 -2 -7 -2h-21q-255 0 -406.5 164t-151.5 414t152 413.5t386.5 163.5t381.5 -153q160 -172 156 -488h-817q14 -141 88.5 -228t212.5 -87q186 0 241 143h254
q-25 -94 -75 -151.5t-97 -98.5q-141 -109 -166.5 -151.5t-25.5 -71.5q0 -63 77 -63q39 0 70 10h6v-148q-45 -18 -151 -18t-163.5 47.5t-57.5 117.5z" />
    <glyph glyph-name="Ecaron" unicode="&#x11a;" horiz-adv-x="1368" 
d="M854 1608h-264l-213 252h239l103 -121h4l106 121h240zM143 1524h1114v-242h-831v-377h735v-227h-735v-430h850v-248h-1133v1524z" />
    <glyph glyph-name="ecaron" unicode="&#x11b;" horiz-adv-x="1202" 
d="M739 1266h-264l-209 280h238l100 -157h4l105 157h237zM601 934q-124 0 -191.5 -80t-83.5 -209h544q-8 135 -76.5 212t-192.5 77zM623 166q186 0 241 143h254q-41 -152 -171 -247t-326 -95q-255 0 -406.5 164t-151.5 414t152 413.5t386.5 163.5t381.5 -153
q160 -172 156 -488h-817q14 -141 88.5 -228t212.5 -87z" />
    <glyph glyph-name="Gcircumflex" unicode="&#x11c;" horiz-adv-x="1603" 
d="M670 1860h264l213 -252h-240l-102 121h-4l-107 -121h-239zM1255 209q-144 -244 -457 -244t-514 217q-200 217 -200 585t231 593q192 192 508 192q270 0 436.5 -130.5t208.5 -354.5h-286q-31 106 -117.5 177t-220.5 71t-218.5 -43t-168.5 -156t-84 -360t125.5 -400
t317.5 -153t298.5 107.5t106.5 260.5v19h-369v221h641v-811h-190l-39 209h-9z" />
    <glyph glyph-name="gcircumflex" unicode="&#x11d;" horiz-adv-x="1239" 
d="M477 1550h264l209 -278h-237l-101 158h-4l-104 -158h-238zM874 590q0 151 -67.5 240.5t-202.5 89.5t-202.5 -89.5t-67.5 -241t68.5 -240.5t202.5 -89t201.5 89.5t67.5 240.5zM862 227q-104 -168 -308 -168t-341 143t-137 383.5t130 388.5t345 148t311 -170h4v142h252
v-1022q0 -224 -135 -338q-135 -115 -367 -115q-233 0 -362 85t-150 241h250q27 -135 246 -135q264 0 264 239v27q0 95 4 151h-6z" />
    <glyph glyph-name="Gbreve" unicode="&#x11e;" horiz-adv-x="1603" 
d="M809 1595q-131 0 -217 77t-92 202h162q23 -107 145 -107q63 0 99 31t46 76h158q-4 -118 -87 -198.5t-214 -80.5zM1255 209q-144 -244 -457 -244t-514 217q-200 217 -200 585t231 593q192 192 508 192q270 0 436.5 -130.5t208.5 -354.5h-286q-31 106 -117.5 177t-220.5 71
t-218.5 -43t-168.5 -156t-84 -360t125.5 -400t317.5 -153t298.5 107.5t106.5 260.5v19h-369v221h641v-811h-190l-39 209h-9z" />
    <glyph glyph-name="gbreve" unicode="&#x11f;" horiz-adv-x="1239" 
d="M617 1255q-132 0 -220 78t-94 213h162q17 -121 147 -121q63 0 101.5 34t46.5 87h158q-4 -129 -86.5 -210t-214.5 -81zM874 590q0 151 -67.5 240.5t-202.5 89.5t-202.5 -89.5t-67.5 -241t68.5 -240.5t202.5 -89t201.5 89.5t67.5 240.5zM862 227q-104 -168 -308 -168
t-341 143t-137 383.5t130 388.5t345 148t311 -170h4v142h252v-1022q0 -224 -135 -338q-135 -115 -367 -115q-233 0 -362 85t-150 241h250q27 -135 246 -135q264 0 264 239v27q0 95 4 151h-6z" />
    <glyph glyph-name="Gdotaccent" unicode="&#x120;" horiz-adv-x="1603" 
d="M674 1858h266v-250h-266v250zM1255 209q-144 -244 -457 -244t-514 217q-200 217 -200 585t231 593q192 192 508 192q270 0 436.5 -130.5t208.5 -354.5h-286q-31 106 -117.5 177t-220.5 71t-218.5 -43t-168.5 -156t-84 -360t125.5 -400t317.5 -153t298.5 107.5
t106.5 260.5v19h-369v221h641v-811h-190l-39 209h-9z" />
    <glyph glyph-name="gdotaccent" unicode="&#x121;" horiz-adv-x="1239" 
d="M479 1524h266v-252h-266v252zM874 590q0 151 -67.5 240.5t-202.5 89.5t-202.5 -89.5t-67.5 -241t68.5 -240.5t202.5 -89t201.5 89.5t67.5 240.5zM862 227q-104 -168 -308 -168t-341 143t-137 383.5t130 388.5t345 148t311 -170h4v142h252v-1022q0 -224 -135 -338
q-135 -115 -367 -115q-233 0 -362 85t-150 241h250q27 -135 246 -135q264 0 264 239v27q0 95 4 151h-6z" />
    <glyph glyph-name="uni0122" unicode="&#x122;" horiz-adv-x="1603" 
d="M942 -268q0 -127 -77 -186.5t-195 -67.5v100q129 22 129 113h-125v205h268v-164zM1255 209q-144 -244 -457 -244t-514 217q-200 217 -200 585t231 593q192 192 508 192q270 0 436.5 -130.5t208.5 -354.5h-286q-31 106 -117.5 177t-220.5 71t-218.5 -43t-168.5 -156
t-84 -360t125.5 -400t317.5 -153t298.5 107.5t106.5 260.5v19h-369v221h641v-811h-190l-39 209h-9z" />
    <glyph glyph-name="uni0123" unicode="&#x123;" horiz-adv-x="1239" 
d="M475 1434q0 127 77 187t196 67v-101q-130 -22 -130 -112h125v-203h-268v162zM874 590q0 151 -67.5 240.5t-202.5 89.5t-202.5 -89.5t-67.5 -241t68.5 -240.5t202.5 -89t201.5 89.5t67.5 240.5zM862 227q-104 -168 -308 -168t-341 143t-137 383.5t130 388.5t345 148
t311 -170h4v142h252v-1022q0 -224 -135 -338q-135 -115 -367 -115q-233 0 -362 85t-150 241h250q27 -135 246 -135q264 0 264 239v27q0 95 4 151h-6z" />
    <glyph glyph-name="Hcircumflex" unicode="&#x124;" horiz-adv-x="1525" 
d="M627 1860h264l213 -252h-240l-102 121h-4l-107 -121h-239zM143 1524h283v-613h674v613h284v-1524h-284v676h-674v-676h-283v1524z" />
    <glyph glyph-name="hcircumflex" unicode="&#x125;" horiz-adv-x="1206" 
d="M471 1860h264l213 -252h-239l-103 121h-4l-106 -121h-240zM719 1122q178 0 277.5 -101t99.5 -280v-741h-260v698q0 98 -54.5 153.5t-159.5 55.5t-174 -75t-69 -191v-641h-260v1524h260v-410q0 -84 -4 -178h6q116 186 338 186z" />
    <glyph glyph-name="Hbar" unicode="&#x126;" horiz-adv-x="1525" 
d="M426 905h674v199h-674v-199zM4 1274h139v250h283v-250h674v250h284v-250h138v-170h-138v-1104h-284v676h-674v-676h-283v1104h-139v170z" />
    <glyph glyph-name="hbar" unicode="&#x127;" horiz-adv-x="1206" 
d="M719 1122q178 0 277.5 -101t99.5 -280v-741h-260v698q0 98 -54.5 153.5t-159.5 55.5t-174 -75t-69 -191v-641h-260v1233h-133v145h133v146h260v-146h295v-145h-295v-119q0 -84 -4 -178h6q116 186 338 186z" />
    <glyph glyph-name="Itilde" unicode="&#x128;" horiz-adv-x="573" 
d="M406 1786q54 0 63 76h156q-4 -117 -52.5 -184.5t-129.5 -67.5t-139 27.5t-84.5 41t-50.5 13.5t-42 -22.5t-23 -59.5h-153q2 127 57 191.5t132 64.5t131.5 -28t80 -40t54.5 -12zM143 1524h285v-1524h-285v1524z" />
    <glyph glyph-name="itilde" unicode="&#x129;" horiz-adv-x="495" 
d="M369 1446q54 0 63 78h154q-4 -117 -52.5 -184.5t-129.5 -67.5t-139 27.5t-84.5 41t-49.5 13.5q-57 0 -68 -82h-151q2 129 57.5 192.5t129.5 63.5t132 -29t83.5 -41t54.5 -12zM119 1094h260v-1094h-260v1094z" />
    <glyph glyph-name="Imacron" unicode="&#x12a;" horiz-adv-x="573" 
d="M12 1815h549v-193h-549v193zM143 1524h285v-1524h-285v1524z" />
    <glyph glyph-name="imacron" unicode="&#x12b;" horiz-adv-x="495" 
d="M8 1495h479v-192h-479v192zM119 1094h260v-1094h-260v1094z" />
    <glyph glyph-name="Iogonek" unicode="&#x12e;" horiz-adv-x="573" 
d="M74 -207q0 124 155 207h-86v1524h285v-1522q-61 -33 -97 -79t-36 -87q0 -63 78 -63q39 0 69 10h7v-148q-45 -18 -151 -18t-165 48t-59 128z" />
    <glyph glyph-name="iogonek" unicode="&#x12f;" horiz-adv-x="495" 
d="M115 1524h266v-252h-266v252zM31 -207q0 125 153 207h-65v1094h260v-1092q-59 -35 -94 -81t-35 -85q0 -63 76 -63q41 0 71 10h4v-148q-45 -18 -149 -18q-103 0 -162 48t-59 128z" />
    <glyph glyph-name="Idotaccent" unicode="&#x130;" horiz-adv-x="573" 
d="M156 1858h266v-250h-266v250zM143 1524h285v-1524h-285v1524z" />
    <glyph glyph-name="dotlessi" unicode="&#x131;" horiz-adv-x="495" 
d="M119 1094h260v-1094h-260v1094z" />
    <glyph glyph-name="IJ" unicode="&#x132;" horiz-adv-x="1675" 
d="M584 465v78h266v-70q0 -152 54 -210t161 -58q201 0 201 225v1094h284v-1104q0 -193 -102 -303q-127 -146 -371 -146t-368.5 126t-124.5 368zM143 1524h285v-1524h-285v1524z" />
    <glyph glyph-name="ij" unicode="&#x133;" horiz-adv-x="993" 
d="M115 1524h266v-252h-266v252zM610 1524h267v-252h-267v252zM119 1094h260v-1094h-260v1094zM575 -360q-73 0 -141 14v190h10q18 0 35 -1t51 2q84 8 84 108v1141h260v-1151q0 -161 -77 -236q-74 -67 -222 -67z" />
    <glyph glyph-name="Jcircumflex" unicode="&#x134;" horiz-adv-x="1146" 
d="M739 1860h265l213 -252h-240l-103 121h-4l-106 -121h-240zM57 465v78h267v-70q0 -152 54 -210t161 -58q201 0 200 225v1094h285v-1104q0 -193 -102 -303q-127 -146 -371 -146t-369 126t-125 368z" />
    <glyph glyph-name="jcircumflex" unicode="&#x135;" horiz-adv-x="497" 
d="M113 1550h264l209 -278h-238l-100 158h-4l-105 -158h-237zM78 -360q-74 0 -139 14v190h10q18 0 34.5 -1t50.5 2t59.5 26t25.5 82v1141h260v-1151q0 -162 -76 -233q-76 -70 -225 -70z" />
    <glyph glyph-name="uni0136" unicode="&#x136;" horiz-adv-x="1460" 
d="M870 -268q0 -127 -76.5 -186.5t-195.5 -67.5v100q129 22 129 113h-125v205h268v-164zM143 1524h283v-353q0 -176 -10 -323l647 676h344l-598 -611l641 -913h-332l-512 731l-180 -182v-549h-283v1524z" />
    <glyph glyph-name="uni0137" unicode="&#x137;" horiz-adv-x="1163" 
d="M717 -268q0 -127 -77 -186.5t-196 -67.5v100q129 22 129 113h-124v205h268v-164zM377 0h-258v1524h258v-590q0 -80 -8 -268l411 428h310l-402 -400l449 -694h-303l-328 524l-129 -129v-395z" />
    <glyph glyph-name="Lacute" unicode="&#x139;" horiz-adv-x="1228" 
d="M143 1524h283v-1276h741v-248h-1024v1524zM264 1870h316l-205 -262h-209z" />
    <glyph glyph-name="lacute" unicode="&#x13a;" horiz-adv-x="505" 
d="M123 1524h262v-1524h-262v1524zM236 1870h315l-205 -262h-209z" />
    <glyph glyph-name="uni013B" unicode="&#x13b;" horiz-adv-x="1228" 
d="M143 1524h283v-1276h741v-248h-1024v1524zM795 -268q0 -127 -77 -186.5t-196 -67.5v100q129 22 129 113h-125v205h269v-164z" />
    <glyph glyph-name="uni013C" unicode="&#x13c;" horiz-adv-x="505" 
d="M123 1524h262v-1524h-262v1524zM391 -268q0 -127 -76.5 -186.5t-195.5 -67.5v100q129 22 129 113h-125v205h268v-164z" />
    <glyph glyph-name="Lcaron" unicode="&#x13d;" horiz-adv-x="1228" 
d="M954 1337q0 -133 -69.5 -192.5t-179.5 -65.5v97q57 8 82.5 37.5t27.5 82.5h-108v228h247v-187zM143 1524h283v-1276h741v-248h-1024v1524z" />
    <glyph glyph-name="lcaron" unicode="&#x13e;" horiz-adv-x="505" 
d="M123 1524h262v-1524h-262v1524zM717 1374q0 -125 -64.5 -180t-175.5 -61v96q107 15 111 104h-109v191h238v-150z" />
    <glyph glyph-name="Ldot" unicode="&#x13f;" horiz-adv-x="1228" 
d="M784 868h265v-264h-265v264zM143 1524h283v-1276h741v-248h-1024v1524z" />
    <glyph glyph-name="ldot" unicode="&#x140;" horiz-adv-x="772" 
d="M508 868h264v-264h-264v264zM123 1524h262v-1524h-262v1524z" />
    <glyph glyph-name="Lslash" unicode="&#x141;" horiz-adv-x="1234" 
d="M150 1524h282v-682l471 250v-207l-471 -250v-387h744v-248h-1026v485l-140 -73v206l140 74v832z" />
    <glyph glyph-name="lslash" unicode="&#x142;" horiz-adv-x="600" 
d="M168 1524h262v-557l168 127v-207l-168 -127v-760h-262v561l-150 -112v206l150 113v756z" />
    <glyph glyph-name="Nacute" unicode="&#x143;" horiz-adv-x="1529" 
d="M1120 760v764h269v-1524h-291l-504 795q-33 51 -65.5 113.5t-63.5 120.5t-64 122h-4q3 -70 9 -172t6 -217v-762h-269v1524h291l506 -799q31 -51 63.5 -112.5t63.5 -119.5t63 -122h7q-17 297 -17 389zM762 1870h315l-205 -262h-208z" />
    <glyph glyph-name="nacute" unicode="&#x144;" horiz-adv-x="1206" 
d="M612 1581h308l-215 -315h-201zM719 1122q178 0 277.5 -101t99.5 -280v-741h-260v698q0 98 -54.5 153.5t-159.5 55.5t-174 -75t-69 -191v-641h-260v1094h254v-160h6q108 188 340 188z" />
    <glyph glyph-name="uni0145" unicode="&#x145;" horiz-adv-x="1529" 
d="M1120 760v764h269v-1524h-291l-504 795q-33 51 -65.5 113.5t-63.5 120.5t-64 122h-4q3 -70 9 -172t6 -217v-762h-269v1524h291l506 -799q31 -51 63.5 -112.5t63.5 -119.5t63 -122h7q-17 297 -17 389zM899 -268q0 -127 -77 -186.5t-195 -67.5v100q129 22 129 113h-125v205
h268v-164z" />
    <glyph glyph-name="uni0146" unicode="&#x146;" horiz-adv-x="1206" 
d="M748 -268q0 -127 -77 -186.5t-196 -67.5v100q129 22 129 113h-125v205h269v-164zM719 1122q178 0 277.5 -101t99.5 -280v-741h-260v698q0 98 -54.5 153.5t-159.5 55.5t-174 -75t-69 -191v-641h-260v1094h254v-160h6q108 188 340 188z" />
    <glyph glyph-name="Ncaron" unicode="&#x147;" horiz-adv-x="1529" 
d="M1120 760v764h269v-1524h-291l-504 795q-33 51 -65.5 113.5t-63.5 120.5t-64 122h-4q3 -70 9 -172t6 -217v-762h-269v1524h291l506 -799q31 -51 63.5 -112.5t63.5 -119.5t63 -122h7q-17 297 -17 389zM913 1608h-264l-213 252h240l102 -121h4l107 121h239z" />
    <glyph glyph-name="ncaron" unicode="&#x148;" horiz-adv-x="1206" 
d="M743 1266h-264l-209 280h238l100 -157h4l105 157h237zM719 1122q178 0 277.5 -101t99.5 -280v-741h-260v698q0 98 -54.5 153.5t-159.5 55.5t-174 -75t-69 -191v-641h-260v1094h254v-160h6q108 188 340 188z" />
    <glyph glyph-name="napostrophe" unicode="&#x149;" horiz-adv-x="1206" 
d="M166 1374q0 -125 -64.5 -180t-175.5 -61v96q107 15 111 104h-109v191h238v-150zM719 1122q178 0 277.5 -101t99.5 -280v-741h-260v698q0 98 -54.5 153.5t-159.5 55.5t-174 -75t-69 -191v-641h-260v1094h254v-160h6q108 188 340 188z" />
    <glyph glyph-name="Omacron" unicode="&#x14c;" horiz-adv-x="1662" 
d="M1171.5 1162.5q-118.5 156.5 -338.5 156.5t-341 -157.5t-121 -404.5t121.5 -399.5t340.5 -152.5t338 152t119 400.5t-118.5 405zM82 760q0 349 205 570.5t544.5 221.5t544.5 -222t205 -570q0 -349 -204 -572t-545.5 -223t-545.5 223t-204 572zM524 1815h613v-193h-613
v193z" />
    <glyph glyph-name="omacron" unicode="&#x14d;" horiz-adv-x="1241" 
d="M620.5 164q71.5 0 126 28.5t91 80t56 121t19.5 151.5t-19.5 152.5t-56 122.5t-91 81t-126 29t-127 -29t-92 -81t-55 -122.5t-18.5 -152.5t18.5 -151.5t55 -121t92 -80t127 -28.5zM63 546q0 248 154.5 412t404 164t403 -163t153.5 -413t-154 -414.5t-402.5 -164.5
t-403.5 165.5t-155 413.5zM317 1495h603v-192h-603v192z" />
    <glyph glyph-name="Obreve" unicode="&#x14e;" horiz-adv-x="1662" 
d="M1171.5 1162.5q-118.5 156.5 -338.5 156.5t-341 -157.5t-121 -404.5t121.5 -399.5t340.5 -152.5t338 152t119 400.5t-118.5 405zM82 760q0 349 205 570.5t544.5 221.5t544.5 -222t205 -570q0 -349 -204 -572t-545.5 -223t-545.5 223t-204 572zM835 1595q-132 0 -218.5 77
t-92.5 202h162q23 -107 145 -107q63 0 99.5 31t46.5 76h158q-4 -117 -86 -198t-214 -81z" />
    <glyph glyph-name="obreve" unicode="&#x14f;" horiz-adv-x="1241" 
d="M626 1255q-132 0 -220.5 78t-94.5 213h162q17 -121 148 -121q63 0 101 34t46 87h158q-4 -129 -86 -210t-214 -81zM620.5 164q71.5 0 126 28.5t91 80t56 121t19.5 151.5t-19.5 152.5t-56 122.5t-91 81t-126 29t-127 -29t-92 -81t-55 -122.5t-18.5 -152.5t18.5 -151.5
t55 -121t92 -80t127 -28.5zM63 546q0 248 154.5 412t404 164t403 -163t153.5 -413t-154 -414.5t-402.5 -164.5t-403.5 165.5t-155 413.5z" />
    <glyph glyph-name="Ohungarumlaut" unicode="&#x150;" horiz-adv-x="1662" 
d="M625 1870h264l-154 -262h-180zM979 1870h262l-154 -262h-176zM1171.5 1162.5q-118.5 156.5 -338.5 156.5t-341 -157.5t-121 -404.5t121.5 -399.5t340.5 -152.5t338 152t119 400.5t-118.5 405zM82 760q0 349 205 570.5t544.5 221.5t544.5 -222t205 -570q0 -349 -204 -572
t-545.5 -223t-545.5 223t-204 572z" />
    <glyph glyph-name="ohungarumlaut" unicode="&#x151;" horiz-adv-x="1241" 
d="M620.5 164q71.5 0 126 28.5t91 80t56 121t19.5 151.5t-19.5 152.5t-56 122.5t-91 81t-126 29t-127 -29t-92 -81t-55 -122.5t-18.5 -152.5t18.5 -151.5t55 -121t92 -80t127 -28.5zM63 546q0 248 154.5 412t404 164t403 -163t153.5 -413t-154 -414.5t-402.5 -164.5
t-403.5 165.5t-155 413.5zM438 1581h258l-170 -315h-174zM786 1581h256l-168 -315h-172z" />
    <glyph glyph-name="OE" unicode="&#x152;" horiz-adv-x="2324" 
d="M794 203q171 0 271 104t100 279v332q0 181 -100.5 291t-257.5 110q-202 0 -319 -157.5t-117 -403t84 -358.5t166 -155t173 -42zM795 -35q-314 0 -513.5 224.5t-199.5 570.5t202 569t511 223q242 0 383 -184v156h1030v-242h-770v-379h673v-227h-673v-422h794v-254h-1054
v143q-137 -178 -383 -178z" />
    <glyph glyph-name="oe" unicode="&#x153;" horiz-adv-x="1990" 
d="M1407 934q-119 0 -184.5 -80t-81.5 -209h518q-8 135 -70.5 212t-181.5 77zM814 821.5q-73 108.5 -210 108.5t-206.5 -107t-69.5 -277t70 -276t207 -106q136 0 209 107t73 274.5t-73 276zM1427 166q166 0 228 143h252q-36 -149 -163.5 -245.5t-318.5 -96.5
q-276 0 -411 219q-61 -100 -163.5 -159.5t-236.5 -59.5q-251 0 -401 164.5t-150 414.5t149.5 413t391.5 163q279 0 412 -221q61 102 161.5 161.5t235.5 59.5q227 0 361 -151q155 -167 155 -490h-792q14 -141 87.5 -228t202.5 -87z" />
    <glyph glyph-name="Racute" unicode="&#x154;" horiz-adv-x="1449" 
d="M692 1870h316l-205 -262h-209zM1067 1055q0 237 -262 237h-379v-469h369q135 0 203.5 62.5t68.5 169.5zM1352 1096q0 -289 -281 -377v-6q121 -37 173 -113t68 -230t25 -246.5t39 -109.5v-14h-286q-29 18 -36.5 106.5t-19.5 232.5t-78.5 205.5t-203.5 61.5h-326v-606h-283
v1524h719q217 0 353.5 -116.5t136.5 -311.5z" />
    <glyph glyph-name="racute" unicode="&#x155;" horiz-adv-x="811" 
d="M455 1581h307l-215 -315h-201zM371 897h6q104 213 313 213q47 0 70 -10v-234h-8q-33 8 -72 8q-129 2 -215 -82.5t-86 -242.5v-549h-260v1094h252v-197z" />
    <glyph glyph-name="uni0156" unicode="&#x156;" horiz-adv-x="1449" 
d="M870 -268q0 -127 -76.5 -186.5t-195.5 -67.5v100q129 22 129 113h-125v205h268v-164zM1067 1055q0 237 -262 237h-379v-469h369q135 0 203.5 62.5t68.5 169.5zM1352 1096q0 -289 -281 -377v-6q121 -37 173 -113t68 -230t25 -246.5t39 -109.5v-14h-286q-29 18 -36.5 106.5
t-19.5 232.5t-78.5 205.5t-203.5 61.5h-326v-606h-283v1524h719q217 0 353.5 -116.5t136.5 -311.5z" />
    <glyph glyph-name="uni0157" unicode="&#x157;" horiz-adv-x="811" 
d="M383 -268q0 -127 -77 -186.5t-195 -67.5v100q129 22 129 113h-125v205h268v-164zM371 897h6q104 213 313 213q47 0 70 -10v-234h-8q-33 8 -72 8q-129 2 -215 -82.5t-86 -242.5v-549h-260v1094h252v-197z" />
    <glyph glyph-name="Rcaron" unicode="&#x158;" horiz-adv-x="1449" 
d="M844 1608h-264l-213 252h239l103 -121h4l106 121h240zM1067 1055q0 237 -262 237h-379v-469h369q135 0 203.5 62.5t68.5 169.5zM1352 1096q0 -289 -281 -377v-6q121 -37 173 -113t68 -230t25 -246.5t39 -109.5v-14h-286q-29 18 -36.5 106.5t-19.5 232.5t-78.5 205.5
t-203.5 61.5h-326v-606h-283v1524h719q217 0 353.5 -116.5t136.5 -311.5z" />
    <glyph glyph-name="rcaron" unicode="&#x159;" horiz-adv-x="811" 
d="M594 1266h-264l-209 280h237l101 -157h4l104 157h238zM371 897h6q104 213 313 213q47 0 70 -10v-234h-8q-33 8 -72 8q-129 2 -215 -82.5t-86 -242.5v-549h-260v1094h252v-197z" />
    <glyph glyph-name="Sacute" unicode="&#x15a;" horiz-adv-x="1396" 
d="M664 1870h315l-205 -262h-209zM1028 418q0 110 -87.5 156.5t-249.5 84.5t-370 100t-208 357q0 209 155.5 321.5t415.5 112.5t408.5 -119.5t171.5 -330.5h-277q-16 113 -98 173t-214 60t-209 -50t-77 -145t89 -138t245 -76q155 -34 373.5 -102.5t218.5 -383.5
q0 -224 -166.5 -348.5t-440.5 -124.5q-292 0 -467.5 142.5t-183.5 379.5h285q31 -295 383 -294q211 0 257 82.5t46 142.5z" />
    <glyph glyph-name="sacute" unicode="&#x15b;" horiz-adv-x="1087" 
d="M770 286q0 54 -20.5 79.5t-63.5 46t-160 41.5q-117 22 -277.5 68t-160.5 276q0 150 116.5 237.5t325.5 87.5t321 -89t132 -232h-248q-29 145 -217 145q-92 0 -138 -37t-46 -84t20.5 -69.5t57.5 -38t87.5 -25.5t120.5 -23q191 -36 297.5 -104.5t106.5 -242.5
t-129.5 -265.5t-351.5 -91.5t-352 102.5t-142 268.5h250q30 -186 260 -186q109 0 160 41t51 95zM532 1581h308l-215 -315h-201z" />
    <glyph glyph-name="Scircumflex" unicode="&#x15c;" horiz-adv-x="1396" 
d="M545 1860h264l213 -252h-240l-102 121h-4l-107 -121h-239zM1028 418q0 110 -87.5 156.5t-249.5 84.5t-370 100t-208 357q0 209 155.5 321.5t415.5 112.5t408.5 -119.5t171.5 -330.5h-277q-16 113 -98 173t-214 60t-209 -50t-77 -145t89 -138t245 -76
q155 -34 373.5 -102.5t218.5 -383.5q0 -224 -166.5 -348.5t-440.5 -124.5q-292 0 -467.5 142.5t-183.5 379.5h285q31 -295 383 -294q211 0 257 82.5t46 142.5z" />
    <glyph glyph-name="scircumflex" unicode="&#x15d;" horiz-adv-x="1087" 
d="M770 286q0 54 -20.5 79.5t-63.5 46t-160 41.5q-117 22 -277.5 68t-160.5 276q0 150 116.5 237.5t325.5 87.5t321 -89t132 -232h-248q-29 145 -217 145q-92 0 -138 -37t-46 -84t20.5 -69.5t57.5 -38t87.5 -25.5t120.5 -23q191 -36 297.5 -104.5t106.5 -242.5
t-129.5 -265.5t-351.5 -91.5t-352 102.5t-142 268.5h250q30 -186 260 -186q109 0 160 41t51 95zM399 1550h265l208 -278h-237l-100 158h-5l-104 -158h-238z" />
    <glyph glyph-name="Scedilla" unicode="&#x15e;" horiz-adv-x="1396" 
d="M616 -195q-40 0 -77 -14l-35 53l119 125q-262 24 -410 162.5t-156 355.5h285q31 -295 383 -294q211 0 257 82.5t46 142.5q0 110 -87.5 156.5t-249.5 84.5t-370 100t-208 357q0 209 155.5 321.5t415.5 112.5t408.5 -119.5t171.5 -330.5h-277q-16 113 -98 173t-214 60
t-209 -50t-77 -145t89 -138t245 -76q155 -34 373.5 -102.5t218.5 -383.5q0 -216 -160.5 -342.5t-413.5 -130.5l-88 -78v-4q86 13 153.5 -24t67.5 -118t-68 -125t-160 -44q-152 0 -249 61l37 74q70 -33 148 -33q112 0 112 70q0 61 -78 61z" />
    <glyph glyph-name="scedilla" unicode="&#x15f;" horiz-adv-x="1087" 
d="M770 286q0 54 -20.5 79.5t-63.5 46t-160 41.5q-117 22 -277.5 68t-160.5 276q0 150 116.5 237.5t325.5 87.5t321 -89t132 -232h-248q-29 145 -217 145q-92 0 -138 -37t-46 -84t20.5 -69.5t57.5 -38t87.5 -25.5t120.5 -23q191 -36 297.5 -104.5t106.5 -239.5t-117 -260.5
t-315 -97.5l-90 -80v-4q85 13 153 -24t68 -118t-68.5 -125t-160.5 -44q-151 0 -248 61l37 74q70 -33 147 -33q113 0 113 70q0 61 -78 61q-41 0 -78 -14l-35 53l117 125q-193 20 -301.5 117.5t-118.5 249.5h250q30 -186 260 -186q109 0 160 41t51 95z" />
    <glyph glyph-name="Scaron" unicode="&#x160;" horiz-adv-x="1396" 
d="M803 1608h-264l-213 252h239l103 -121h4l106 121h240zM1028 418q0 110 -87.5 156.5t-249.5 84.5t-370 100t-208 357q0 209 155.5 321.5t415.5 112.5t408.5 -119.5t171.5 -330.5h-277q-16 113 -98 173t-214 60t-209 -50t-77 -145t89 -138t245 -76q155 -34 373.5 -102.5
t218.5 -383.5q0 -224 -166.5 -348.5t-440.5 -124.5q-292 0 -467.5 142.5t-183.5 379.5h285q31 -295 383 -294q211 0 257 82.5t46 142.5z" />
    <glyph glyph-name="scaron" unicode="&#x161;" horiz-adv-x="1087" 
d="M770 286q0 54 -20.5 79.5t-63.5 46t-160 41.5q-117 22 -277.5 68t-160.5 276q0 150 116.5 237.5t325.5 87.5t321 -89t132 -232h-248q-29 145 -217 145q-92 0 -138 -37t-46 -84t20.5 -69.5t57.5 -38t87.5 -25.5t120.5 -23q191 -36 297.5 -104.5t106.5 -242.5
t-129.5 -265.5t-351.5 -91.5t-352 102.5t-142 268.5h250q30 -186 260 -186q109 0 160 41t51 95zM662 1266h-265l-209 280h238l100 -157h4l105 157h237z" />
    <glyph glyph-name="uni0162" unicode="&#x162;" horiz-adv-x="1353" 
d="M813 -268q0 -127 -77 -186.5t-195 -67.5v100q129 22 129 113h-125v205h268v-164zM59 1524h1237v-244h-477v-1280h-284v1280h-476v244z" />
    <glyph glyph-name="uni0163" unicode="&#x163;" horiz-adv-x="759" 
d="M571 -268q0 -127 -76.5 -186.5t-195.5 -67.5v100q129 22 129 113h-125v205h268v-164zM527 -10q-151 0 -228.5 59.5t-77.5 196.5v669h-168v179h168v348h256v-348h219v-179h-219v-612q0 -59 30.5 -80.5t84.5 -21.5t86 8h12v-203q-88 -16 -163 -16z" />
    <glyph glyph-name="Tcaron" unicode="&#x164;" horiz-adv-x="1353" 
d="M809 1608h-264l-213 252h239l103 -121h4l106 121h240zM59 1524h1237v-244h-477v-1280h-284v1280h-476v244z" />
    <glyph glyph-name="tcaron" unicode="&#x165;" horiz-adv-x="759" 
d="M827 1374q0 -125 -64.5 -180t-174.5 -61v96q106 15 110 104h-108v191h237v-150zM527 -10q-151 0 -228.5 59.5t-77.5 196.5v669h-168v179h168v348h256v-348h219v-179h-219v-612q0 -59 30.5 -80.5t84.5 -21.5t86 8h12v-203q-88 -16 -163 -16z" />
    <glyph glyph-name="Tbar" unicode="&#x166;" horiz-adv-x="1353" 
d="M59 1524h1237v-244h-477v-401h320v-187h-320v-692h-284v692h-320v187h320v401h-476v244z" />
    <glyph glyph-name="tbar" unicode="&#x167;" horiz-adv-x="759" 
d="M527 -10q-151 0 -228.5 59.5t-77.5 196.5v325h-168v164h168v180h-168v179h168v348h256v-348h219v-179h-219v-180h219v-164h-219v-268q0 -59 30.5 -80.5t84.5 -21.5t86 8h12v-203q-88 -16 -163 -16z" />
    <glyph glyph-name="Utilde" unicode="&#x168;" horiz-adv-x="1464" 
d="M123 514v1010h283v-1006q0 -309 329 -309q156 0 240 80t84 233v1002h284v-1010q0 -264 -161 -402.5t-448 -138.5q-286 0 -448.5 134.5t-162.5 406.5zM850 1786q54 0 63 76h156q-4 -117 -52.5 -184.5t-128.5 -67.5t-139 27.5t-85.5 41t-50.5 13.5t-42 -22.5t-22 -59.5
h-154q2 127 57.5 191.5t133.5 64.5t131 -28t78.5 -40t54.5 -12z" />
    <glyph glyph-name="utilde" unicode="&#x169;" horiz-adv-x="1193" 
d="M711 1446q54 0 63 78h154q-4 -117 -52.5 -184.5t-129.5 -67.5t-139 27.5t-84.5 41t-51.5 13.5t-43 -21.5t-22 -60.5h-152q2 129 57.5 192.5t129.5 63.5t132 -29t83.5 -41t54.5 -12zM823 0v156h-4q-59 -90 -136 -137.5t-194 -47.5q-180 0 -279 103.5t-99 281.5v738h260
v-701q0 -98 53.5 -151.5t157.5 -53.5t169.5 75t65.5 190v641h258v-1094h-252z" />
    <glyph glyph-name="Umacron" unicode="&#x16a;" horiz-adv-x="1464" 
d="M123 514v1010h283v-1006q0 -309 329 -309q156 0 240 80t84 233v1002h284v-1010q0 -264 -161 -402.5t-448 -138.5q-286 0 -448.5 134.5t-162.5 406.5zM426 1815h612v-193h-612v193z" />
    <glyph glyph-name="umacron" unicode="&#x16b;" horiz-adv-x="1193" 
d="M289 1495h602v-192h-602v192zM823 0v156h-4q-59 -90 -136 -137.5t-194 -47.5q-180 0 -279 103.5t-99 281.5v738h260v-701q0 -98 53.5 -151.5t157.5 -53.5t169.5 75t65.5 190v641h258v-1094h-252z" />
    <glyph glyph-name="Ubreve" unicode="&#x16c;" horiz-adv-x="1464" 
d="M123 514v1010h283v-1006q0 -309 329 -309q156 0 240 80t84 233v1002h284v-1010q0 -264 -161 -402.5t-448 -138.5q-286 0 -448.5 134.5t-162.5 406.5zM735 1595q-131 0 -217 77t-92 202h162q23 -107 145 -107q63 0 99 31t47 76h157q-4 -118 -87 -198.5t-214 -80.5z" />
    <glyph glyph-name="ubreve" unicode="&#x16d;" horiz-adv-x="1193" 
d="M597 1255q-132 0 -220 78t-94 213h161q17 -121 148 -121q63 0 101 34t46 87h158q-4 -129 -86 -210t-214 -81zM823 0v156h-4q-59 -90 -136 -137.5t-194 -47.5q-180 0 -279 103.5t-99 281.5v738h260v-701q0 -98 53.5 -151.5t157.5 -53.5t169.5 75t65.5 190v641h258v-1094
h-252z" />
    <glyph glyph-name="Uring" unicode="&#x16e;" horiz-adv-x="1464" 
d="M731 1624q49 0 80 33t31 81t-31 81.5t-80 33.5t-79.5 -33.5t-30.5 -81.5t30.5 -81t79.5 -33zM572.5 1585q-64.5 63 -64.5 154q0 90 66.5 152.5t156.5 62.5q89 0 156 -61.5t67 -153.5t-64.5 -154.5t-158.5 -62.5t-158.5 63zM123 514v1010h283v-1006q0 -309 329 -309
q156 0 240 80t84 233v1002h284v-1010q0 -264 -161 -402.5t-448 -138.5q-286 0 -448.5 134.5t-162.5 406.5z" />
    <glyph glyph-name="uring" unicode="&#x16f;" horiz-adv-x="1193" 
d="M592 1325q49 0 79.5 33t30.5 82t-30.5 82.5t-79.5 33.5t-80 -33.5t-31 -82.5t31 -82t80 -33zM433.5 1285.5q-64.5 62.5 -64.5 153.5t66.5 154.5t156.5 63.5q91 0 157 -64t66 -154t-64.5 -153t-158.5 -63t-158.5 62.5zM823 0v156h-4q-59 -90 -136 -137.5t-194 -47.5
q-180 0 -279 103.5t-99 281.5v738h260v-701q0 -98 53.5 -151.5t157.5 -53.5t169.5 75t65.5 190v641h258v-1094h-252z" />
    <glyph glyph-name="Uhungarumlaut" unicode="&#x170;" horiz-adv-x="1464" 
d="M526 1870h265l-154 -262h-180zM881 1870h262l-154 -262h-176zM123 514v1010h283v-1006q0 -309 329 -309q156 0 240 80t84 233v1002h284v-1010q0 -264 -161 -402.5t-448 -138.5q-286 0 -448.5 134.5t-162.5 406.5z" />
    <glyph glyph-name="uhungarumlaut" unicode="&#x171;" horiz-adv-x="1193" 
d="M758 1581h256l-168 -315h-172zM410 1581h258l-170 -315h-174zM823 0v156h-4q-59 -90 -136 -137.5t-194 -47.5q-180 0 -279 103.5t-99 281.5v738h260v-701q0 -98 53.5 -151.5t157.5 -53.5t169.5 75t65.5 190v641h258v-1094h-252z" />
    <glyph glyph-name="Uogonek" unicode="&#x172;" horiz-adv-x="1464" 
d="M584 -207q0 113 116 182q-270 8 -423.5 141.5t-153.5 397.5v1010h283v-1006q0 -309 329 -309q156 0 240 80t84 233v1002h284v-1010q0 -199 -88 -322.5t-247 -177.5q-203 -73 -203 -178q0 -63 76 -63q41 0 71 10h4v-148q-45 -18 -150 -18q-106 0 -164 48t-58 128z" />
    <glyph glyph-name="uogonek" unicode="&#x173;" horiz-adv-x="1193" 
d="M945 -383q-104 0 -163 48t-59 127q0 128 154 208h-54v156h-4q-59 -90 -136 -137.5t-194 -47.5q-180 0 -279 103.5t-99 281.5v738h260v-701q0 -98 53.5 -151.5t157.5 -53.5t169.5 75t65.5 190v641h258v-1092q-63 -35 -99 -80t-36 -86q0 -63 78 -63q39 0 69 10h7v-148
q-45 -18 -149 -18z" />
    <glyph glyph-name="Wcircumflex" unicode="&#x174;" horiz-adv-x="2013" 
d="M864 1860h264l213 -252h-239l-103 121h-4l-106 -121h-240zM27 1524h290l181 -738q43 -193 80 -497h4q52 341 92 506l186 729h279l184 -727q29 -122 51 -269t37 -239h4q43 320 88 499l180 736h291l-422 -1524h-276l-195 797q-30 111 -49 240q-18 130 -31 216h-4
q-45 -319 -77 -456l-205 -797h-283z" />
    <glyph glyph-name="wcircumflex" unicode="&#x175;" horiz-adv-x="1644" 
d="M16 1094h271l141 -510q21 -82 68 -330h4q37 211 71 330l136 510h229l139 -510q23 -88 40 -180t30 -152h4q41 245 70 332l145 510h262l-348 -1094h-250l-137 520q-46 197 -68 322h-4q-32 -164 -69 -322l-142 -520h-250zM686 1550h264l209 -278h-237l-101 158h-4l-104 -158
h-238z" />
    <glyph glyph-name="Ycircumflex" unicode="&#x176;" horiz-adv-x="1417" 
d="M573 1860h265l213 -252h-240l-102 121h-4l-107 -121h-240zM848 0h-285v602l-534 922h313l215 -385q40 -74 82 -170q43 -96 70 -156h4q89 211 153 326l217 385h301l-536 -926v-598z" />
    <glyph glyph-name="ycircumflex" unicode="&#x177;" horiz-adv-x="1103" 
d="M424 1550h264l209 -278h-238l-100 158h-4l-104 -158h-238zM307 -373q-67 0 -125.5 5.5t-64.5 7.5v210h14q19 -10 97 -10t116.5 28t54.5 93l1 71q1 72 -13 111l-377 951h277l180 -508q45 -140 61 -210t31 -130h4q35 150 94 340l174 508h263l-424 -1155
q-71 -183 -148.5 -247.5t-214.5 -64.5z" />
    <glyph glyph-name="Ydieresis" unicode="&#x178;" horiz-adv-x="1417" 
d="M811 1858h256v-250h-256v250zM350 1858h256v-250h-256v250zM848 0h-285v602l-534 922h313l215 -385q40 -74 82 -170q43 -96 70 -156h4q89 211 153 326l217 385h301l-536 -926v-598z" />
    <glyph glyph-name="Zacute" unicode="&#x179;" horiz-adv-x="1390" 
d="M678 1870h315l-205 -262h-208zM944 1292q-212 -8 -299 -8h-514v240h1141v-224l-631 -796q-142 -167 -242 -262v-6q285 10 314 10h590v-246h-1227v242l647 807q58 74 221 237v6z" />
    <glyph glyph-name="zacute" unicode="&#x17a;" horiz-adv-x="1077" 
d="M455 885h-332v209h858v-179l-434 -532q-23 -27 -84 -86q-60 -58 -90 -88v-6q205 10 237 10h398v-213h-926v197l436 534q20 23 48 51.5t54 55.5t56 53v6q-123 -12 -221 -12zM557 1581h307l-215 -315h-200z" />
    <glyph glyph-name="Zdotaccent" unicode="&#x17b;" horiz-adv-x="1390" 
d="M944 1292q-212 -8 -299 -8h-514v240h1141v-224l-631 -796q-142 -167 -242 -262v-6q285 10 314 10h590v-246h-1227v242l647 807q58 74 221 237v6zM565 1858h266v-250h-266v250z" />
    <glyph glyph-name="zdotaccent" unicode="&#x17c;" horiz-adv-x="1077" 
d="M424 1524h266v-252h-266v252zM455 885h-332v209h858v-179l-434 -532q-23 -27 -84 -86q-60 -58 -90 -88v-6q205 10 237 10h398v-213h-926v197l436 534q20 23 48 51.5t54 55.5t56 53v6q-123 -12 -221 -12z" />
    <glyph glyph-name="Zcaron" unicode="&#x17d;" horiz-adv-x="1390" 
d="M944 1292q-212 -8 -299 -8h-514v240h1141v-224l-631 -796q-142 -167 -242 -262v-6q285 10 314 10h590v-246h-1227v242l647 807q58 74 221 237v6zM829 1608h-264l-213 252h240l102 -121h4l107 121h239z" />
    <glyph glyph-name="zcaron" unicode="&#x17e;" horiz-adv-x="1077" 
d="M455 885h-332v209h858v-179l-434 -532q-23 -27 -84 -86q-60 -58 -90 -88v-6q205 10 237 10h398v-213h-926v197l436 534q20 23 48 51.5t54 55.5t56 53v6q-123 -12 -221 -12zM688 1266h-264l-209 280h238l100 -157h4l105 157h237z" />
    <glyph glyph-name="florin" unicode="&#x192;" horiz-adv-x="886" 
d="M78 877h215l47 319q21 145 91 209q123 110 407 74v-195q-122 9 -160.5 -7.5t-55 -42.5t-22.5 -69l-41 -288h234v-179h-261l-104 -743q-26 -154 -89 -211q-64 -57 -153.5 -67.5t-195.5 4.5v184q83 -5 123 15.5t51 96.5l104 721h-190v179z" />
    <glyph glyph-name="uni0218" unicode="&#x218;" horiz-adv-x="1396" 
d="M1028 418q0 110 -87.5 156.5t-249.5 84.5t-370 100t-208 357q0 209 155.5 321.5t415.5 112.5t408.5 -119.5t171.5 -330.5h-277q-16 113 -98 173t-214 60t-209 -50t-77 -145t89 -138t245 -76q155 -34 373.5 -102.5t218.5 -383.5q0 -224 -166.5 -348.5t-440.5 -124.5
q-292 0 -467.5 142.5t-183.5 379.5h285q31 -295 383 -294q211 0 257 82.5t46 142.5zM821 -268q0 -127 -76.5 -186.5t-195.5 -67.5v100q129 22 129 113h-125v205h268v-164z" />
    <glyph glyph-name="uni0219" unicode="&#x219;" horiz-adv-x="1087" 
d="M770 286q0 54 -20.5 79.5t-63.5 46t-160 41.5q-117 22 -277.5 68t-160.5 276q0 150 116.5 237.5t325.5 87.5t321 -89t132 -232h-248q-29 145 -217 145q-92 0 -138 -37t-46 -84t20.5 -69.5t57.5 -38t87.5 -25.5t120.5 -23q191 -36 297.5 -104.5t106.5 -242.5
t-129.5 -265.5t-351.5 -91.5t-352 102.5t-142 268.5h250q30 -186 260 -186q109 0 160 41t51 95zM670 -268q0 -127 -77 -186.5t-196 -67.5v100q129 22 129 113h-125v205h269v-164z" />
    <glyph glyph-name="uni021A" unicode="&#x21a;" horiz-adv-x="1353" 
d="M813 -268q0 -127 -77 -186.5t-195 -67.5v100q129 22 129 113h-125v205h268v-164zM59 1524h1237v-244h-477v-1280h-284v1280h-476v244z" />
    <glyph glyph-name="uni021B" unicode="&#x21b;" horiz-adv-x="759" 
d="M571 -268q0 -127 -76.5 -186.5t-195.5 -67.5v100q129 22 129 113h-125v205h268v-164zM527 -10q-151 0 -228.5 59.5t-77.5 196.5v669h-168v179h168v348h256v-348h219v-179h-219v-612q0 -59 30.5 -80.5t84.5 -21.5t86 8h12v-203q-88 -16 -163 -16z" />
    <glyph glyph-name="circumflex" unicode="&#x2c6;" 
d="M381 1550h264l209 -278h-238l-100 158h-4l-104 -158h-238z" />
    <glyph glyph-name="caron" unicode="&#x2c7;" 
d="M643 1266h-264l-209 280h238l100 -157h4l104 157h238z" />
    <glyph glyph-name="uni02C9" unicode="&#x2c9;" 
d="M213 1495h602v-192h-602v192z" />
    <glyph glyph-name="breve" unicode="&#x2d8;" 
d="M558 1255q-132 0 -220 78t-94 213h162q17 -121 147 -121q63 0 101 34t46 87h158q-4 -129 -86 -210t-214 -81z" />
    <glyph glyph-name="dotaccent" unicode="&#x2d9;" 
d="M379 1524h266v-252h-266v252z" />
    <glyph glyph-name="ring" unicode="&#x2da;" 
d="M512 1325q49 0 80 33t31 82t-31 82.5t-80 33.5t-80 -33.5t-31 -82.5t31 -82t80 -33zM353.5 1286q-64.5 63 -64.5 153t66 154t157 64t157 -64t66 -154t-64.5 -153t-158.5 -63t-158.5 63z" />
    <glyph glyph-name="ogonek" unicode="&#x2db;" 
d="M460 -383q-106 0 -165 48t-59 128q0 104 67.5 149.5t95.5 57.5h172q-114 -91 -114 -164q0 -63 78 -63q39 0 69 10h6v-148q-44 -18 -150 -18z" />
    <glyph glyph-name="tilde" unicode="&#x2dc;" 
d="M635 1446q54 0 63 78h154q-4 -117 -52.5 -184.5t-128.5 -67.5t-139 27.5t-85.5 41t-51.5 13.5t-43 -21.5t-22 -60.5h-152q2 129 57.5 192.5t130.5 63.5t132 -29t82.5 -41t54.5 -12z" />
    <glyph glyph-name="hungarumlaut" unicode="&#x2dd;" 
d="M311 1581h258l-170 -315h-174zM659 1581h256l-167 -315h-173z" />
    <glyph glyph-name="uni0394" unicode="&#x394;" horiz-adv-x="1466" 
d="M344 223h764l-277 725q-41 103 -65 201t-37 149h-4q-24 -124 -104 -350zM1411 0h-1354v207l514 1317h322l518 -1317v-207z" />
    <glyph glyph-name="uni03A9" unicode="&#x3a9;" horiz-adv-x="1587" 
d="M1513 801q0 -398 -272 -574v-4h258v-223h-627v213q175 27 264 185t89 397t-114.5 381.5t-317.5 142.5q-202 0 -316.5 -143t-114.5 -385q0 -363 130.5 -463.5t222.5 -114.5v-213h-627v223h256v4q-268 172 -268 574q0 336 200.5 544.5t519 208.5t518 -209t199.5 -544z" />
    <glyph glyph-name="uni03BC" unicode="&#x3bc;" horiz-adv-x="1202" 
d="M379 -367h-260v1461h260v-701q0 -98 53 -151.5t158 -53.5t170 75t65 190v641h258v-1094h-252v156h-4q-111 -176 -305 -176q-100 0 -145 49h-4l6 -205v-191z" />
    <glyph glyph-name="pi" unicode="&#x3c0;" horiz-adv-x="1382" 
d="M1147 -12q-277 0 -277 256v671h-389v-915h-260v915h-170v179h1264v-179h-187v-626q0 -53 23 -72.5t63 -19.5t76 10h8v-201q-65 -18 -151 -18z" />
    <glyph glyph-name="endash" unicode="&#x2013;" 
d="M0 653h1024v-223h-1024v223z" />
    <glyph glyph-name="emdash" unicode="&#x2014;" horiz-adv-x="2048" 
d="M410 653h1228v-223h-1228v223z" />
    <glyph glyph-name="quoteleft" unicode="&#x2018;" horiz-adv-x="442" 
d="M94 1212q0 150 73.5 227.5t186.5 90.5v-113q-49 -14 -86 -58t-37 -124v-14h119v-263h-256v254z" />
    <glyph glyph-name="quoteright" unicode="&#x2019;" horiz-adv-x="442" 
d="M350 1270q0 -148 -71 -226t-189 -92v111q49 16 85 59t36 125v15h-117v262h256v-254z" />
    <glyph glyph-name="quotesinglbase" unicode="&#x201a;" horiz-adv-x="442" 
d="M350 8q0 -148 -72.5 -226t-187.5 -91v110q49 16 85 59.5t36 125.5v14h-117v262h256v-254z" />
    <glyph glyph-name="quotedblleft" unicode="&#x201c;" horiz-adv-x="835" 
d="M94 1212q0 150 73.5 227.5t186.5 90.5v-113q-49 -14 -86 -58t-37 -124v-14h119v-263h-256v254zM487 1212q0 150 73.5 227.5t184.5 90.5v-113q-49 -14 -84.5 -58t-35.5 -124v-14h116v-263h-254v254z" />
    <glyph glyph-name="quotedblright" unicode="&#x201d;" horiz-adv-x="835" 
d="M741 1270q0 -148 -71 -226t-189 -92v111q49 16 86 59t37 125v15h-117v262h254v-254zM350 1270q0 -148 -71 -226t-189 -92v111q49 16 85 59t36 125v15h-117v262h256v-254z" />
    <glyph glyph-name="quotedblbase" unicode="&#x201e;" horiz-adv-x="835" 
d="M741 8q0 -148 -72.5 -226t-187.5 -91v110q49 16 86 59.5t37 125.5v14h-117v262h254v-254zM350 8q0 -148 -72.5 -226t-187.5 -91v110q49 16 85 59.5t36 125.5v14h-117v262h256v-254z" />
    <glyph glyph-name="dagger" unicode="&#x2020;" horiz-adv-x="1251" 
d="M90 1110h397v414h273v-414h399v-219h-399v-1155h-273v1155h-397v219z" />
    <glyph glyph-name="daggerdbl" unicode="&#x2021;" horiz-adv-x="1251" 
d="M90 1110h397v414h273v-414h399v-219h-399v-522h399v-222h-399v-411h-273v411h-397v222h397v522h-397v219z" />
    <glyph glyph-name="bullet" unicode="&#x2022;" horiz-adv-x="759" 
d="M380 401q-117 0 -201.5 82.5t-84.5 201.5t83.5 204.5t202.5 85.5t202.5 -85.5t83.5 -204.5t-84.5 -201.5t-201.5 -82.5z" />
    <glyph glyph-name="ellipsis" unicode="&#x2026;" horiz-adv-x="1574" 
d="M1192 285h285v-285h-285v285zM645 285h287v-285h-287v285zM100 285h285v-285h-285v285z" />
    <glyph glyph-name="perthousand" unicode="&#x2030;" horiz-adv-x="2699" 
d="M2265 125q80 0 118 74.5t38 190.5t-40 194t-118 78t-116 -77t-38 -194t38 -191.5t118 -74.5zM1896 342.5q0 144.5 28 223.5t77 134.5t116.5 85t189.5 29.5t223.5 -117.5t101.5 -308.5t-103.5 -307.5t-264.5 -116.5t-264.5 116.5t-103.5 261zM1420 125q79 0 117 74.5
t38 190.5t-39 194t-117 78t-115.5 -77t-37.5 -194t37.5 -191.5t116.5 -74.5zM437 801q79 0 118 74.5t39 190.5t-40 193.5t-118 77.5t-115.5 -75.5t-37.5 -193.5t37.5 -192.5t116.5 -74.5zM1155.5 699q102.5 116 264.5 116t264 -114.5t102 -309.5q0 -194 -102.5 -310
t-263.5 -116q-162 0 -264.5 117.5t-102.5 309t102.5 307.5zM70 1020q0 143 27.5 222t76.5 134.5t115.5 85t186 29.5t222.5 -113t103 -309q0 -195 -101 -310.5t-264.5 -115.5t-264.5 117t-101 260zM1247 1458h172l-811 -1458h-172z" />
    <glyph glyph-name="guilsinglleft" unicode="&#x2039;" horiz-adv-x="636" 
d="M139 428v258l357 322v-252l-222 -199v-4l222 -197v-252z" />
    <glyph glyph-name="guilsinglright" unicode="&#x203a;" horiz-adv-x="636" 
d="M496 684v-256l-357 -324v252l223 199v4l-223 199v250z" />
    <glyph glyph-name="fraction" unicode="&#x2044;" horiz-adv-x="518" 
d="M739 1524h197l-1307 -1790h-194z" />
    <glyph glyph-name="Euro" unicode="&#x20ac;" horiz-adv-x="1378" 
d="M59 518v127h105q-2 20 -2 25v58q0 54 2 73h-105v127h121q46 255 207.5 409t388.5 154t366.5 -129t162.5 -338h-265q-50 248 -268 248q-131 0 -208 -92.5t-105 -251.5h375v-127h-390q-2 -18 -2 -23v-58q0 -54 2 -75h390v-127h-373q64 -328 325 -328q121 0 193.5 82
t85.5 215h256q-12 -230 -155 -375t-376 -145t-397 148.5t-213 402.5h-121z" />
    <glyph glyph-name="uni2113" unicode="&#x2113;" horiz-adv-x="854" 
d="M594 1174q0 118 -25.5 152t-66.5 34t-68.5 -30t-27.5 -101v-547q23 20 105.5 120.5t82.5 371.5zM599 1540q187 0 187 -326q0 -279 -96 -444t-284 -272v-146q0 -84 32.5 -115.5t101.5 -31.5t152 33h6v-207q-95 -41 -191 -41q-180 0 -265.5 74.5t-85.5 250.5v76
q-65 -24 -121 -37v162q98 34 121 43v664q0 237 128 277t315 40z" />
    <glyph glyph-name="trademark" unicode="&#x2122;" horiz-adv-x="1884" 
d="M92 1524h666v-160h-236v-623h-192v623h-238v160zM1065 741h-170v783h264l86 -285q22 -74 40 -158q19 -83 32 -137h4q32 168 72 295l86 285h268v-783h-174v211q0 212 6 389h-6q-51 -202 -90 -325l-84 -275h-162l-86 275q-27 88 -50 179t-38 146h-4l6 -342v-258z" />
    <glyph glyph-name="Omega" unicode="&#x2126;" horiz-adv-x="1587" 
d="M1513 801q0 -398 -272 -574v-4h258v-223h-627v213q175 27 264 185t89 397t-114.5 381.5t-317.5 142.5q-202 0 -316.5 -143t-114.5 -385q0 -363 130.5 -463.5t222.5 -114.5v-213h-627v223h256v4q-268 172 -268 574q0 336 200.5 544.5t519 208.5t518 -209t199.5 -544z" />
    <glyph glyph-name="estimated" unicode="&#x212e;" horiz-adv-x="1474" 
d="M414 780h651v463q-120 88 -319 88t-332 -117v-434zM774 -27q-321 0 -506.5 200t-185.5 525t192 527t490 202q252 0 405 -135q127 -104 175.5 -256.5t46.5 -349.5h-977v-496q139 -112 352 -112t330.5 92t173.5 254h112q-48 -203 -203.5 -327t-404.5 -124z" />
    <glyph glyph-name="partialdiff" unicode="&#x2202;" horiz-adv-x="1241" 
d="M578 162q139 0 219 115t80 249t-60.5 204.5t-188.5 70.5t-208 -102.5t-80 -244.5q0 -292 238 -292zM1151 668q0 -316 -147.5 -508.5t-430.5 -192.5q-228 0 -361.5 131.5t-133.5 352.5t147 380.5t383 159.5q180 0 271 -106q-37 195 -164 295t-363 137v221
q619 -66 709 -386t90 -484z" />
    <glyph glyph-name="Delta" unicode="&#x2206;" horiz-adv-x="1466" 
d="M344 223h764l-277 725q-41 103 -65 201t-37 149h-4q-24 -124 -104 -350zM1411 0h-1354v207l514 1317h322l518 -1317v-207z" />
    <glyph glyph-name="product" unicode="&#x220f;" horiz-adv-x="1550" 
d="M1397 1524v-1737h-287v1493h-672v-1493h-284v1737h1243z" />
    <glyph glyph-name="summation" unicode="&#x2211;" horiz-adv-x="1374" 
d="M102 -213v250l562 635v4l-562 610v238h1160v-230h-832v-4l518 -555v-112l-532 -592v-4h866v-240h-1180z" />
    <glyph glyph-name="minus" unicode="&#x2212;" horiz-adv-x="1236" 
d="M119 801h999v-207h-999v207z" />
    <glyph glyph-name="uni2215" unicode="&#x2215;" horiz-adv-x="518" 
d="M739 1524h197l-1307 -1790h-194z" />
    <glyph glyph-name="uni2219" unicode="&#x2219;" horiz-adv-x="503" 
d="M109 815h286v-287h-286v287z" />
    <glyph glyph-name="radical" unicode="&#x221a;" horiz-adv-x="1359" 
d="M47 688h348l129 -334q25 -61 56 -165q32 -103 47 -150h4q12 47 30 127t54 188l358 1170h268l-559 -1737h-293l-276 672h-166v229z" />
    <glyph glyph-name="infinity" unicode="&#x221e;" horiz-adv-x="1529" 
d="M1119 467q71 0 104.5 53t33.5 129t-33.5 128t-104.5 52t-121 -55t-93 -127q43 -70 93 -125t121 -55zM413 829q-73 0 -106 -52t-33 -128t33 -129t105 -53t126 55.5t95 124.5q-41 72 -94 127t-126 55zM389 268q-149 0 -237.5 109.5t-88.5 272.5t91 270.5t255 107.5t246 -94
t117 -143q74 110 158 173.5t200 63.5q151 0 242.5 -105t91.5 -275.5t-93.5 -275t-249.5 -104.5t-236 95.5t-113 146.5q-82 -119 -142.5 -162t-113.5 -61.5t-127 -18.5z" />
    <glyph glyph-name="integral" unicode="&#x222b;" horiz-adv-x="757" 
d="M110 -166q130 0 130 135v1252q0 176 88 251.5t247 75.5q97 0 175 -20v-203h-7q-48 12 -110 12q-133 0 -133 -135v-1253q0 -328 -334 -328q-105 0 -176 21v204h6q54 -12 114 -12z" />
    <glyph glyph-name="approxequal" unicode="&#x2248;" horiz-adv-x="1236" 
d="M383 395q-82 0 -90 -92h-180q2 158 73.5 230.5t176.5 72.5t271 -40t215 -40q48 0 68.5 22.5t24.5 65.5h182q-4 -297 -252 -297q-85 0 -261 39t-228 39zM383 809q-82 0 -90 -92h-180q2 156 73.5 229.5t172.5 73.5t272.5 -40t218.5 -40t67.5 22.5t24.5 65.5h182
q-4 -297 -252 -297q-81 0 -205 26.5t-182.5 39t-101.5 12.5z" />
    <glyph glyph-name="notequal" unicode="&#x2260;" horiz-adv-x="1232" 
d="M127 971h557l119 231h180l-119 -231h246v-199h-346l-111 -217h457v-199h-557l-117 -231h-180l117 231h-246v199h346l111 217h-457v199z" />
    <glyph glyph-name="lessequal" unicode="&#x2264;" horiz-adv-x="1114" 
d="M117 592v258l870 317v-223l-409 -137q-112 -36 -177 -54q-65 -17 -114 -32v-4q51 -14 105 -27t186 -51l409 -137v-228zM117 201h870v-201h-870v201z" />
    <glyph glyph-name="greaterequal" unicode="&#x2265;" horiz-adv-x="1114" 
d="M127 274v224l412 139q72 25 155 47q82 22 133 37v4q-51 11 -99 25t-98 27.5t-91 27.5l-412 137v225l870 -317v-258zM997 0h-870v201h870v-201z" />
    <glyph glyph-name="lozenge" unicode="&#x25ca;" horiz-adv-x="1249" 
d="M516 416q54 -98 109 -234h4q38 103 106 234l180 338l-184 350q-29 53 -48 97t-35 78t-25 58h-5l-24 -61q-29 -76 -82 -172l-182 -338zM1196 760l-428 -760h-285l-430 762l428 762h285z" />
    <glyph glyph-name="uniFB01" unicode="&#xfb01;" horiz-adv-x="1239" 
d="M858 1524h266v-252h-266v252zM862 1094h258v-1094h-258v1094zM51 1094h168v120q0 174 103 244q85 70 268 70q55 0 117 -6v-195q-136 4 -170.5 -13.5t-46 -44t-11.5 -71.5v-104h226v-181h-226v-913h-260v913h-168v181z" />
    <glyph glyph-name="uniFB02" unicode="&#xfb02;" horiz-adv-x="1245" 
d="M862 1524h260v-1524h-260v1524zM51 1094h168v120q0 174 103 244q90 74 268 70q55 0 117 -6v-195q-136 4 -170.5 -13.5t-46 -44t-11.5 -71.5v-104h226v-181h-226v-913h-260v913h-168v181z" />
    </font>
</defs>
</svg>
