<?xml version="1.0" standalone="no"?>
<!DOCTYPE svg PUBLIC "-//W3C//DTD SVG 1.1//EN" "http://www.w3.org/Graphics/SVG/1.1/DTD/svg11.dtd" >
<svg xmlns="http://www.w3.org/2000/svg">
<metadata>
Created by FontPrep 20130207 at Sat May 16 09:02:53 2015
 By Rezki Bangsawan
Copyright (c) 2011 Linotype Corp., www.linotype.com. All rights reserved. This font software may not be reproduced, modified, disclosed or transferred without the express written approval of Linotype Corp. Neue Haas Grotesk is a trademark of Linotype Corp. registered in the U.S. Patent and Trademark Office and may be registered in certain other jurisdictions in the name of Linotype Corp. or its licensee Linotype GmbH. This typeface is original artwork of Christian Schwartz. The design may be protected in certain jurisdictions.
</metadata>
<defs>
<font id="c82c85df8e5a4817018454cfcb27352f" horiz-adv-x='1024' >
  <font-face 
    font-family="NHaasGroteskTXW02-56It"
    font-weight="400"
    font-style="italic"
    font-stretch="normal"
    units-per-em="2048"
    panose-1="2 11 5 4 2 2 2 9 2 4"
    ascent="1599"
    descent="-449"
    x-height="1100"
    cap-height="1524"
    bbox="-672 -502 2501 2001"
    underline-thickness="102"
    underline-position="-102"
    unicode-range="U+0020-FB02"
  />
<missing-glyph horiz-adv-x="534" 
 />
    <glyph glyph-name=".notdef" horiz-adv-x="534" 
 />
    <glyph glyph-name=".null" horiz-adv-x="0" 
 />
    <glyph glyph-name="nonmarkingreturn" horiz-adv-x="681" 
 />
    <glyph glyph-name="space" unicode=" " horiz-adv-x="534" 
 />
    <glyph glyph-name="exclam" unicode="!" horiz-adv-x="534" 
d="M98 225h221l-45 -225h-219zM268 1053l92 471h203l-94 -484l-172 -598h-100z" />
    <glyph glyph-name="quotedbl" unicode="&#x22;" horiz-adv-x="716" 
d="M301 1524h172l-100 -508h-172zM633 1524h172l-100 -508h-173z" />
    <glyph glyph-name="numbersign" unicode="#" horiz-adv-x="1163" 
d="M449 578h280l70 325h-281zM696 418h-280l-88 -418h-150l88 418h-215l39 160h209l70 325h-215l39 160h208l84 397h150l-84 -397h280l84 397h150l-84 -397h213l-39 -160h-207l-69 -325h213l-39 -160h-207l-88 -418h-150z" />
    <glyph glyph-name="dollar" unicode="$" horiz-adv-x="1294" 
d="M713 1335q-135 0 -209 -63.5t-75 -155.5t48 -144t168 -98l90 461h-22zM977 401q0 92 -55 147.5t-197 104.5l-100 -512h22q147 0 238.5 68.5t91.5 191.5zM55 461h199q12 -254 252 -305l104 534q-181 59 -277.5 151t-96.5 259t132 277t351 110h17q18 0 30 -2l29 147h120
l-32 -162q166 -37 255 -138t95 -232h-186q-4 80 -55.5 135t-137.5 82l-94 -481q208 -67 314 -161.5t106 -273.5t-149.5 -297t-385.5 -118h-19q-20 0 -32 2l-41 -213h-121l43 225q-305 59 -362.5 218t-57.5 243z" />
    <glyph glyph-name="percent" unicode="%" horiz-adv-x="1798" 
d="M1174 303q0 -207 153 -207q101 0 163 113.5t62 277.5q0 94 -39 146.5t-103 52.5q-114 0 -175 -111.5t-61 -271.5zM1010 309q0 210 109.5 357t269.5 147q161 0 242 -95.5t81 -224.5q0 -235 -111 -380.5t-269 -145.5q-159 0 -240.5 96.5t-81.5 245.5zM330 985
q0 -209 153 -209q103 0 164.5 116.5t61.5 276.5q0 92 -39.5 144.5t-103.5 52.5q-115 0 -175.5 -110t-60.5 -271zM249.5 744q-83.5 97 -83.5 245q0 211 111 358.5t270 147.5q160 0 240.5 -96t80.5 -225q0 -130 -28.5 -222t-110.5 -198.5t-239 -106.5t-240.5 97zM1378 1458
h146l-1024 -1458h-148z" />
    <glyph glyph-name="ampersand" unicode="&#x26;" horiz-adv-x="1335" 
d="M651 948q238 112 238 285q0 82 -44 126t-123 44t-125 -60.5t-46 -128.5q0 -110 76 -225zM524 129q193 0 334 129l-299 496q-222 -104 -262.5 -203.5t-40.5 -169.5q0 -119 79 -185.5t189 -66.5zM59 409q0 230 166 329.5t258 140.5l-18 30q-94 156 -94 295t102.5 243.5
t253.5 104.5t247.5 -78t96.5 -214q0 -274 -348 -433l85 -145q84 -144 169 -279q89 150 123 345h166q-48 -293 -195 -492l156 -256h-213l-72 117q-178 -148 -394 -148t-352.5 105t-136.5 335z" />
    <glyph glyph-name="quotesingle" unicode="'" horiz-adv-x="382" 
d="M301 1524h172l-100 -508h-172z" />
    <glyph glyph-name="parenleft" unicode="(" horiz-adv-x="684" 
d="M176 469q0 669 514 1137h164q-237 -254 -355 -538t-118 -654q0 -371 127 -670h-150q-182 347 -182 725z" />
    <glyph glyph-name="parenright" unicode=")" horiz-adv-x="684" 
d="M565 881q0 -674 -514 -1137h-164q235 252 355 537q120 286 119 656t-128 669h150q182 -347 182 -725z" />
    <glyph glyph-name="asterisk" unicode="*" horiz-adv-x="823" 
d="M252 950l180 211l-203 76l56 104l207 -69l49 252h131l-49 -252l231 69l23 -108l-236 -76l107 -217l-113 -61l-105 225l-188 -225z" />
    <glyph glyph-name="plus" unicode="+" horiz-adv-x="1218" 
d="M174 768h404l84 424h155l-84 -424h404l-27 -145h-405l-82 -426h-156l82 426h-402z" />
    <glyph glyph-name="comma" unicode="," horiz-adv-x="440" 
d="M-33 -215q55 10 85 44.5t48 123.5l9 47h-101l43 225h221l-53 -272q-29 -145 -93.5 -203.5t-176.5 -66.5z" />
    <glyph glyph-name="hyphen" unicode="-" horiz-adv-x="759" 
d="M125 668h563l-31 -168h-563z" />
    <glyph glyph-name="period" unicode="." horiz-adv-x="440" 
d="M51 225h221l-45 -225h-219z" />
    <glyph glyph-name="slash" unicode="/" horiz-adv-x="886" 
d="M891 1604h192l-1091 -1860h-193z" />
    <glyph glyph-name="zero" unicode="0" horiz-adv-x="1345" 
d="M654 131q98 0 186 67.5t176 233.5t88 472t-113 368.5t-209 62.5t-184 -69.5t-180 -237.5t-92 -472t115 -364.5t213 -60.5zM652 -33q-263 0 -394 163t-131 437q0 178 48 345t136 296t213.5 208t261.5 79q252 0 383 -161t131 -439q0 -377 -128 -573.5t-252 -275.5t-268 -79
z" />
    <glyph glyph-name="one" unicode="1" horiz-adv-x="796" 
d="M489 1053h-337l26 129q150 4 264.5 67.5t173.5 218.5h148l-287 -1468h-192z" />
    <glyph glyph-name="two" unicode="2" horiz-adv-x="1210" 
d="M766 1339q-295 0 -358 -362h-199q43 268 213 401q145 117 354 117t327 -111t118 -278q0 -215 -105.5 -312.5t-195.5 -146.5t-172 -92t-251.5 -127.5t-240.5 -241.5l-2 -8h766l-33 -178h-1014q80 377 323 504t343 175q205 98 292 184t87 233q0 104 -67.5 173.5
t-184.5 69.5z" />
    <glyph glyph-name="three" unicode="3" horiz-adv-x="1245" 
d="M183.5 113.5q-150.5 146.5 -130.5 369.5h187q-8 -163 83 -261.5t275 -98.5q238 0 291 113.5t53 179.5q0 128 -82 208.5t-215 80.5h-104l28 143h84q362 0 363 258q0 104 -67.5 173t-199.5 69t-230.5 -88.5t-115.5 -247.5h-188q29 226 178 354.5t358 128.5
q210 0 333.5 -104.5t123.5 -272.5q0 -130 -85.5 -224.5t-215.5 -127.5v-6q165 -54 200.5 -166.5t35.5 -196.5t-44 -169t-159.5 -173t-360.5 -88t-395.5 146.5z" />
    <glyph glyph-name="four" unicode="4" horiz-adv-x="1241" 
d="M229 498q185 10 209 10h320l100 510q4 29 13.5 63.5t17.5 67.5t20 68h-4q-104 -129 -143 -168l-346 -363q-27 -29 -58.5 -58.5t-63.5 -60.5t-65 -61v-8zM727 354h-692l33 174l907 947h162l-191 -967h232l-31 -154h-232l-69 -354h-189z" />
    <glyph glyph-name="five" unicode="5" horiz-adv-x="1210" 
d="M371 864q123 119 311 119t312 -122t124 -329q0 -251 -160.5 -408t-395.5 -157t-372 128.5t-141 293.5h191q4 -103 86 -179.5t235.5 -76.5t253.5 107.5t100 300.5t-104 238.5t-172 45.5q-200 0 -322 -153h-182l262 788h799l-31 -168h-657l-141 -428h4z" />
    <glyph glyph-name="six" unicode="6" horiz-adv-x="1249" 
d="M721 958q187 0 309.5 -126t122.5 -310q0 -224 -156 -389.5t-392 -165.5t-374 160q-110 123 -110 377q0 389 110.5 580.5t180.5 256.5q158 154 370 154t317.5 -108.5t114.5 -264.5h-186q-7 148 -95.5 182.5t-150.5 34.5q-172 0 -284.5 -150.5t-169.5 -414.5h4
q157 184 389 184zM680 807q-167 0 -273 -108t-106 -261t83 -235t234 -82t251 116.5t100 263.5q0 146 -80 226t-209 80z" />
    <glyph glyph-name="seven" unicode="7" horiz-adv-x="1114" 
d="M776 1290h-557l33 170h995l-30 -153q-288 -222 -519.5 -566t-300.5 -741h-213q71 372 308.5 731t531.5 563v6q-83 -10 -248 -10z" />
    <glyph glyph-name="eight" unicode="8" horiz-adv-x="1269" 
d="M221 81q-160 114 -160 314q0 170 108 278t269 146v6q-74 39 -123 110t-49 160q0 173 139 286.5t354 113.5t344.5 -101t129.5 -266q0 -135 -76 -224t-211 -124v-6q98 -39 161.5 -130t63.5 -205t-42 -201.5t-156.5 -179t-352.5 -91.5q-239 0 -399 114zM744 866
q132 0 216 69t84 178t-76.5 168.5t-210.5 59.5t-218 -64.5t-84 -174.5t78.5 -173t210.5 -63zM260 410q0 -134 92 -211.5t265 -77.5t265.5 90.5t92.5 221.5t-92 212.5t-262 81.5t-265.5 -91.5t-95.5 -225.5z" />
    <glyph glyph-name="nine" unicode="9" horiz-adv-x="1261" 
d="M999 674q-154 -174 -362 -174q-209 0 -332 132.5t-123 334.5t156 365t401 163q220 0 354 -139t134 -395t-98 -517t-267 -378q-139 -99 -338 -99t-315 113.5t-125 279.5h186q32 -237 214.5 -237t287.5 88q152 127 232 461zM655 647q170 0 278.5 108.5t108.5 259.5
t-85.5 238.5t-236.5 87.5t-253 -110t-102 -262t79.5 -237t210.5 -85z" />
    <glyph glyph-name="colon" unicode=":" horiz-adv-x="452" 
d="M57 225h222l-46 -225h-219zM182 872h221l-45 -225h-219z" />
    <glyph glyph-name="semicolon" unicode=";" horiz-adv-x="452" 
d="M-27 -215q55 10 84.5 43t48.5 125l9 47h-101l43 225h222l-54 -272q-29 -145 -93 -203.5t-177 -66.5zM182 872h221l-45 -225h-219z" />
    <glyph glyph-name="less" unicode="&#x3c;" horiz-adv-x="1112" 
d="M131 569l35 191l930 366l-33 -176l-500 -188q-94 -35 -291 -98v-5q43 -16 85 -33t85 -34t80 -33l428 -190l-35 -170z" />
    <glyph glyph-name="equal" unicode="=" horiz-adv-x="1216" 
d="M133 551h961l-29 -148h-961zM207 932h960l-28 -150h-961z" />
    <glyph glyph-name="greater" unicode="&#x3e;" horiz-adv-x="1112" 
d="M98 377l504 188q41 16 91.5 32.5t100.5 34.5t99 34v4q-45 16 -87 34t-86 34t-79 32l-428 191l33 165l786 -368l-35 -191l-929 -368z" />
    <glyph glyph-name="question" unicode="?" horiz-adv-x="1101" 
d="M878 1328.5q-64 62.5 -196 62.5q-133 0 -226.5 -84t-115.5 -248h-190q28 226 171.5 359.5t363.5 133.5q219 0 338.5 -105t119.5 -263q0 -196 -116 -283.5t-223 -151.5t-146 -111q-38 -46 -53 -89t-27 -105h-172q30 167 84.5 246t188.5 168q56 37 101 65.5t103.5 85.5
t58.5 157t-64 162.5zM340 225h219l-45 -225h-217z" />
    <glyph glyph-name="at" unicode="@" horiz-adv-x="1894" 
d="M869 332q140 0 215 117t75 282v4q0 96 -46.5 150.5t-122.5 54.5q-136 0 -205.5 -114t-69.5 -277q0 -94 38 -155.5t116 -61.5zM846 195q-142 0 -231 97t-89 234q0 253 124 402t313 149q92 0 151.5 -40t87.5 -99h4l23 121h176l-105 -555q-14 -78 9 -122t81 -44
q116 0 196.5 115t80.5 340q0 286 -174 437.5t-459 151.5q-156 0 -298 -58t-251.5 -167.5t-175 -266t-65.5 -322.5q0 -309 167 -485.5t474 -176.5q209 0 405 76l45 -117q-208 -90 -416 -90q-393 0 -612 211t-219 563q0 227 82 406.5t217 304t307 191.5t336 67t304.5 -46.5
t248 -136.5t173 -224.5t65.5 -292.5q0 -295 -120.5 -455t-309.5 -160q-102 0 -165 44t-83 118h-6q-108 -170 -291 -170z" />
    <glyph glyph-name="A" unicode="A" horiz-adv-x="1413" 
d="M481 606h482l-60 416q-18 119 -37 340h-4q-23 -53 -45 -109q-23 -47 -49.5 -105t-54.5 -112zM782 1524h228l258 -1524h-219l-64 446h-590l-239 -446h-215z" />
    <glyph glyph-name="B" unicode="B" horiz-adv-x="1394" 
d="M825 872q141 0 226.5 71t85.5 202q0 90 -59.5 148.5t-178.5 58.5h-373l-92 -480h391zM791 180q317 0 317 285q0 119 -77 181.5t-200 62.5h-430l-102 -529h492zM1346 1163q0 -283 -293 -362v-8q115 -31 189.5 -115t74.5 -215q0 -211 -144 -337t-397 -126h-721l297 1524
h559q305 0 370 -137.5t65 -223.5z" />
    <glyph glyph-name="C" unicode="C" horiz-adv-x="1525" 
d="M129 627q0 193 61.5 362.5t170 295.5t257 198.5t306.5 72.5q282 0 438 -143q144 -136 154 -352h-201q-10 143 -106.5 233t-276.5 90q-131 0 -239.5 -60t-229.5 -219t-121 -476q0 -229 108.5 -358.5t304.5 -129.5t321 115.5t167 292.5h205q-31 -135 -88 -241.5
t-162 -194.5q-175 -146 -443 -146q-136 0 -254 47t-245 178.5t-127 434.5z" />
    <glyph glyph-name="D" unicode="D" horiz-adv-x="1478" 
d="M627 178q308 0 460 202t152 524t-151.5 384t-258.5 62h-301l-231 -1172h330zM858 1524q283 0 435.5 -170.5t152.5 -438.5q0 -423 -218 -669t-618 -246h-555l297 1524h506z" />
    <glyph glyph-name="E" unicode="E" horiz-adv-x="1345" 
d="M358 1524h1063l-35 -176h-856l-92 -471h779l-35 -168h-776l-101 -523h879l-35 -186h-1088z" />
    <glyph glyph-name="F" unicode="F" horiz-adv-x="1257" 
d="M352 1524h1026l-37 -176h-817l-90 -469h684l-35 -170h-682l-137 -709h-209z" />
    <glyph glyph-name="G" unicode="G" horiz-adv-x="1579" 
d="M131 614q0 211 74 399.5t213 321.5q221 221 549 221q261 0 413 -129.5t164 -341.5h-215q-10 133 -101.5 214t-263.5 81q-305 0 -462.5 -233.5t-157.5 -523.5q0 -236 113.5 -359t314.5 -123t333.5 122t162.5 319l8 49h-436l32 174h637l-155 -805h-133l-11 205h-4
q-172 -238 -470 -238t-466 201q-139 176 -139 446z" />
    <glyph glyph-name="H" unicode="H" horiz-adv-x="1501" 
d="M352 1524h207l-125 -643h772l125 643h207l-297 -1524h-207l140 715h-773l-139 -715h-207z" />
    <glyph glyph-name="I" unicode="I" horiz-adv-x="530" 
d="M356 1524h209l-297 -1524h-209z" />
    <glyph glyph-name="J" unicode="J" horiz-adv-x="1095" 
d="M467 139q113 0 174 65.5t88 198.5l217 1121h209l-227 -1162q-33 -183 -146 -282q-116 -111 -326 -111t-325.5 121t-69.5 377l9 39h202l-8 -41q-48 -264 49 -295t154 -31z" />
    <glyph glyph-name="K" unicode="K" horiz-adv-x="1382" 
d="M645 776l-276 -229l-105 -547h-209l297 1524h209l-92 -471q-34 -155 -63 -273l864 746h262l-735 -627l483 -899h-223z" />
    <glyph glyph-name="L" unicode="L" horiz-adv-x="1206" 
d="M352 1524h209l-262 -1338h774l-37 -186h-981z" />
    <glyph glyph-name="M" unicode="M" horiz-adv-x="1779" 
d="M352 1524h258l164 -903q22 -126 35 -259l14 -143h4q82 193 183 377l524 928h283l-297 -1524h-197l178 920q32 163 90 389h-4q-31 -63 -78 -159t-96 -185l-551 -965h-162l-174 965q-25 142 -41 344h-4q-10 -75 -20 -139t-19.5 -131.5t-19.5 -118.5l-180 -920h-187z" />
    <glyph glyph-name="N" unicode="N" horiz-adv-x="1495" 
d="M352 1524h219l418 -977q38 -89 66 -172q28 -82 47 -137h4q17 168 49 331l184 955h193l-297 -1524h-209l-424 979q-40 86 -115 303h-4q-20 -199 -47 -330l-186 -952h-195z" />
    <glyph glyph-name="O" unicode="O" horiz-adv-x="1665" 
d="M834 143q128 0 239 61.5t226.5 217t115.5 455.5q0 235 -127 368t-344 133q-141 0 -252.5 -62.5t-188.5 -163.5t-117 -233.5t-40 -258.5t32 -219t92 -158.5t148 -102.5t216 -37zM825 -33q-329 0 -511.5 186.5t-182.5 497.5q0 178 58.5 341t167 289t261 200.5t326.5 74.5
q326 0 505 -189.5t179 -485.5q0 -182 -56 -347t-161.5 -291t-258.5 -201t-327 -75z" />
    <glyph glyph-name="P" unicode="P" horiz-adv-x="1310" 
d="M807 793q176 0 262 91t86 246q0 104 -66.5 162t-189.5 58h-373l-110 -557h391zM928 1524q204 0 317 -109t113 -280q0 -236 -143 -371t-410 -135h-420l-123 -629h-207l297 1524h576z" />
    <glyph glyph-name="Q" unicode="Q" horiz-adv-x="1665" 
d="M821.5 143q114.5 0 212.5 41l-172 197l133 117l191 -215q113 104 171 260.5t58 304.5q0 264 -127 397t-344 133q-141 0 -252.5 -62.5t-188.5 -163.5t-117 -233.5t-40 -258.5t32 -219t92 -158.5t148.5 -102.5t203 -37zM131 651q0 178 58.5 341t167 289t261 200.5
t326.5 74.5q326 0 505 -189.5t179 -485.5q0 -223 -82 -416t-235 -322l153 -172l-137 -116l-170 190q-164 -78 -335 -78q-324 0 -507.5 187.5t-183.5 496.5z" />
    <glyph glyph-name="R" unicode="R" horiz-adv-x="1402" 
d="M803 801q186 0 276 87t90 230q4 234 -262 234h-381l-106 -551h383zM1030 401q0 127 -65.5 182.5t-206.5 55.5h-371l-123 -639h-209l297 1524h590q198 0 319 -105t118 -272q-3 -166 -86 -277.5t-267 -156.5v-6q104 -33 156.5 -101.5t52.5 -189.5l-14 -279q0 -92 26 -121
l-2 -16h-209q-24 25 -24 92t9 147t9 162z" />
    <glyph glyph-name="S" unicode="S" horiz-adv-x="1355" 
d="M696 129q160 0 251 76t91 197t-81.5 181.5t-293.5 139.5t-280 140t-98.5 126.5t-30.5 156.5q0 181 134.5 294.5t382.5 113.5q249 0 388 -126.5t152 -325.5h-197q-10 127 -101 211t-245 84t-232.5 -64.5t-78.5 -167.5t68.5 -157.5t212.5 -107.5q144 -54 230.5 -93
t184.5 -120.5t98 -274.5t-154.5 -319t-420.5 -126q-291 0 -454 151t-167 376h207q10 -172 116.5 -268.5t317.5 -96.5z" />
    <glyph glyph-name="T" unicode="T" horiz-adv-x="1325" 
d="M262 1524h1188l-33 -176h-493l-262 -1348h-205l262 1348h-492z" />
    <glyph glyph-name="U" unicode="U" horiz-adv-x="1425" 
d="M668 150q184 0 284.5 81.5t134.5 268.5l201 1024h205l-207 -1057q-51 -262 -208.5 -377t-416.5 -115t-414.5 143.5t-105.5 409.5l197 996h203l-193 -996q-37 -188 49.5 -283t270.5 -95z" />
    <glyph glyph-name="V" unicode="V" horiz-adv-x="1345" 
d="M238 1524h208l127 -1010q4 -43 11 -113.5t16 -214.5h4q29 63 72 160t78 166l522 1012h225l-821 -1524h-223z" />
    <glyph glyph-name="W" unicode="W" horiz-adv-x="1947" 
d="M1333 369v-148h4q86 262 150 410l399 893h211l-711 -1524h-198l-55 987q-14 176 0 369h-5q-24 -66 -48 -128t-48 -126t-47 -115l-457 -987h-198l-92 1524h202l41 -893q5 -153 3 -244q-3 -90 -5 -166h4q90 266 156 408l414 895h217l55 -895q8 -114 8 -260z" />
    <glyph glyph-name="X" unicode="X" horiz-adv-x="1349" 
d="M610 797l-325 727h221l151 -365q24 -52 51 -131q27 -80 44 -127h4q79 123 182 254l301 369h238l-625 -758l346 -766h-231l-162 397q-16 35 -30.5 81t-30.5 90t-29 91h-4q-68 -93 -115 -156t-76 -102l-321 -401h-248z" />
    <glyph glyph-name="Y" unicode="Y" horiz-adv-x="1370" 
d="M600 639l-362 885h215l180 -459q16 -41 31.5 -91t30.5 -97t30 -99h4q131 203 199 287l362 459h236l-719 -887l-125 -637h-207z" />
    <glyph glyph-name="Z" unicode="Z" horiz-adv-x="1349" 
d="M879 1352h-580l33 172h1083l-31 -158l-901 -956q-102 -108 -243 -230v-6q196 8 282 8h666l-37 -182h-1169l38 190l908 957q54 61 219 209v6q-122 -10 -268 -10z" />
    <glyph glyph-name="bracketleft" unicode="[" horiz-adv-x="722" 
d="M385 1606h465l-29 -148h-272l-303 -1558h272l-31 -156h-462z" />
    <glyph glyph-name="backslash" unicode="\" horiz-adv-x="1107" 
d="M219 1604h187l602 -1860h-187z" />
    <glyph glyph-name="bracketright" unicode="]" horiz-adv-x="722" 
d="M-39 -100h270l304 1558h-271l27 148h463l-361 -1862h-463z" />
    <glyph glyph-name="asciicircum" unicode="^" horiz-adv-x="989" 
d="M578 1524h198l246 -613h-191l-174 447h-4l-327 -447h-207z" />
    <glyph glyph-name="underscore" unicode="_" horiz-adv-x="864" 
d="M-150 -219h873l-27 -135h-872z" />
    <glyph glyph-name="grave" unicode="`" horiz-adv-x="1089" 
d="M467 1577h219l96 -297h-149z" />
    <glyph glyph-name="a" unicode="a" horiz-adv-x="1110" 
d="M217 280q1 -174 215 -174q122 0 209.5 76.5t112.5 188.5l41 209q-81 -50 -257 -77t-228 -62t-72.5 -72t-20.5 -89zM379 -23q-164 0 -258 77t-94 208q0 252 174 299t271 59t165 21.5t136.5 40.5t64.5 141q-2 76 -57.5 120t-166.5 44q-244 0 -290 -217h-179
q25 158 149.5 257t325.5 99t306.5 -104.5t64.5 -302.5l-92 -481q-12 -61 7.5 -88t88.5 -15h6l-24 -129q-48 -16 -96 -16q-156 0 -164 149h-4q-53 -76 -140.5 -119t-193.5 -43z" />
    <glyph glyph-name="b" unicode="b" horiz-adv-x="1202" 
d="M952 670q0 139 -64 220t-174 81q-198 0 -304.5 -154t-106.5 -356q0 -150 71 -246t216 -96q80 0 149.5 50t141 171.5t71.5 329.5zM406 954q143 172 337 172q193 0 297.5 -123t104.5 -331q0 -289 -147.5 -496t-400.5 -207t-341 211h-8l-33 -180h-182l297 1524h186l-78 -402
q-25 -127 -37 -168h5z" />
    <glyph glyph-name="c" unicode="c" horiz-adv-x="1130" 
d="M61 428q0 293 167.5 495.5t437.5 202.5q202 0 307.5 -107.5t109.5 -277.5h-182q-2 104 -62.5 169t-174.5 65q-200 0 -307 -166.5t-107 -386.5q0 -141 66.5 -221t195.5 -80q260 0 340 268h184q-53 -205 -190.5 -312.5t-338.5 -107.5t-323.5 126.5t-122.5 332.5z" />
    <glyph glyph-name="d" unicode="d" horiz-adv-x="1202" 
d="M508 119q176 0 285.5 163.5t109.5 377.5t-104.5 261.5t-186.5 47.5t-151.5 -48.5t-138 -162.5t-68.5 -326q0 -139 60.5 -226t193.5 -87zM59 426q0 296 158.5 498t397.5 202t335 -219h4q8 64 33 195l84 422h186l-299 -1524h-180l25 137q-151 -168 -335 -168
q-185 0 -297 123.5t-112 333.5z" />
    <glyph glyph-name="e" unicode="e" horiz-adv-x="1163" 
d="M414.5 887.5q-96.5 -95.5 -138.5 -248.5h627q25 154 -38 249t-208.5 95t-242 -95.5zM1096 693q0 -79 -15 -187h-827q-2 -16 -2 -20v-42q0 -156 74.5 -239.5t222.5 -83.5q102 0 183 48t120 146h186q-59 -172 -194 -259t-305 -87q-227 0 -350 133.5t-123 343.5
q0 281 167.5 480.5t434.5 199.5q211 0 293.5 -94t108.5 -177t26 -162z" />
    <glyph glyph-name="f" unicode="f" horiz-adv-x="698" 
d="M682 1536q70 0 133 -14l-27 -148q-131 8 -165.5 -7t-49 -36.5t-20.5 -56.5l-35 -174h215l-28 -146h-216l-184 -954h-186l184 954h-160l31 146h158l39 194q48 242 311 242z" />
    <glyph glyph-name="g" unicode="g" horiz-adv-x="1185" 
d="M506 197q116 0 187 47t139.5 153.5t68.5 292.5q0 129 -70.5 206t-223.5 77t-247 -147t-94 -343q0 -129 62 -207.5t178 -78.5zM807 217q-143 -168 -323 -168q-188 0 -296 125t-108 320q0 273 114.5 405.5t212 179.5t205.5 47q243 0 334 -204l35 180h182l-215 -1096
q-45 -211 -172 -302t-328 -91t-316.5 86t-123.5 223h178q10 -74 74 -121t193 -47t209.5 67.5t103.5 190.5l12 76l31 129h-2z" />
    <glyph glyph-name="h" unicode="h" horiz-adv-x="1159" 
d="M744 1126q182 0 274 -104.5t55 -282.5l-147 -739h-187l146 735q48 236 -194 236q-122 0 -216 -73t-121 -204l-135 -694h-186l297 1524h186l-80 -418l-39 -166h6q61 90 153 138t188 48z" />
    <glyph glyph-name="i" unicode="i" horiz-adv-x="458" 
d="M326 1524h194l-43 -221h-194zM248 1100h186l-215 -1100h-186z" />
    <glyph glyph-name="j" unicode="j" horiz-adv-x="458" 
d="M326 1524h194l-43 -221h-194zM-97 -193q94 0 113 107l232 1186h186l-233 -1196q-43 -213 -143.5 -232.5t-150.5 -19.5t-108 10l31 152h4q28 -7 69 -7z" />
    <glyph glyph-name="k" unicode="k" horiz-adv-x="1097" 
d="M330 1524h184l-131 -672l-51 -223l557 471h237l-503 -416l335 -684h-200l-275 573l-182 -143l-84 -430h-184z" />
    <glyph glyph-name="l" unicode="l" horiz-adv-x="468" 
d="M336 1524h186l-297 -1524h-186z" />
    <glyph glyph-name="m" unicode="m" horiz-adv-x="1718" 
d="M739 1126q98 0 166 -54t90 -152h4q72 100 166.5 153t179.5 53q159 0 240.5 -103t48.5 -271l-145 -752h-184l147 750q38 219 -164 219q-95 0 -183.5 -75.5t-113.5 -199.5l-137 -694h-188l147 748q20 104 -19.5 162.5t-135.5 58.5t-187.5 -78.5t-116.5 -200.5l-135 -690
h-186l215 1100h182l-33 -166h4q144 192 338 192z" />
    <glyph glyph-name="n" unicode="n" horiz-adv-x="1159" 
d="M744 1126q183 0 274.5 -106t54.5 -283l-147 -737h-187l146 733q23 113 -24.5 175.5t-169.5 62.5t-216 -74t-121 -205l-135 -692h-186l215 1100h184l-35 -164h4q61 88 154 139t189 51z" />
    <glyph glyph-name="o" unicode="o" horiz-adv-x="1200" 
d="M543 121q185 0 296 159t111 367q0 145 -71 237.5t-217 92.5q-182 0 -294 -160.5t-112 -370.5q0 -141 70 -233t217 -92zM541 -31q-226 0 -349.5 136t-123.5 350q0 273 125.5 417t236.5 199t235 55q234 0 355 -137t121 -348q0 -277 -126 -420t-238 -197.5t-236 -54.5z" />
    <glyph glyph-name="p" unicode="p" horiz-adv-x="1202" 
d="M952 670q0 139 -64 220t-174 81q-198 0 -304.5 -154t-106.5 -356q0 -150 71 -246t216 -96q80 0 149.5 50t141 171.5t71.5 329.5zM406 952q138 174 334 174t300.5 -123t104.5 -331q0 -289 -147.5 -496t-393.5 -207q-143 0 -226 58.5t-128 156.5h-4q-2 -14 -9.5 -71.5
t-19.5 -122.5l-70 -363h-188l289 1473h182l-31 -148h7z" />
    <glyph glyph-name="q" unicode="q" horiz-adv-x="1204" 
d="M512 119q176 0 285.5 163.5t109.5 377.5t-104.5 261.5t-186.5 47.5t-151.5 -48.5t-138 -162.5t-68.5 -326q0 -139 60.5 -226t193.5 -87zM63 426q0 296 158.5 498t397.5 202t335 -219h4l39 193h185l-291 -1473h-186l71 363q8 41 17.5 80t15.5 67h-2q-151 -168 -335 -168
q-185 0 -297 123.5t-112 333.5z" />
    <glyph glyph-name="r" unicode="r" horiz-adv-x="747" 
d="M725 1112q49 0 70 -8l-23 -182h-8q-42 12 -76 12q-123 0 -219 -80t-129 -244l-121 -610h-186l215 1100h182l-39 -195h6q123 207 328 207z" />
    <glyph glyph-name="s" unicode="s" horiz-adv-x="1071" 
d="M509 119q128 0 184.5 55t56.5 126t-59 113t-163 75t-236.5 84t-137.5 237q-4 138 107 227.5t311 89.5t305.5 -90t109.5 -231h-188q-4 178 -240 178q-115 0 -165 -42t-50 -111.5t65 -105.5t163 -68t231.5 -87.5t138.5 -253.5q0 -157 -120 -250.5t-330 -93.5
q-221 0 -338.5 96.5t-130.5 268.5h190q10 -121 89 -169t207 -48z" />
    <glyph glyph-name="t" unicode="t" horiz-adv-x="720" 
d="M395 -6q-113 0 -176 63.5t-39 186.5l139 710h-169l28 146h170l68 348h184l-68 -348h205l-30 -146h-203l-135 -688q-22 -119 90 -119q51 0 90 11h6l-29 -154q-73 -10 -131 -10z" />
    <glyph glyph-name="u" unicode="u" 
d="M745 158q-131 -185 -344 -185q-170 0 -253.5 104.5t-51.5 282.5l146 742h184l-145 -740q-40 -233 134.5 -233t263.5 78.5t116 204.5l135 690h188l-217 -1102h-180l29 158h-5z" />
    <glyph glyph-name="v" unicode="v" horiz-adv-x="1001" 
d="M129 1100h188l72 -592q6 -59 15.5 -145.5t17.5 -206.5h6q87 214 158 350l311 594h201l-602 -1100h-207z" />
    <glyph glyph-name="w" unicode="w" horiz-adv-x="1579" 
d="M864 799v112h-4q-25 -57 -53 -124t-76 -179l-280 -608h-187l-127 1100h191l49 -611q4 -47 6 -102t4 -108t4 -111h4q36 106 127 317l285 615h180l35 -613q4 -45 5 -111t11 -210h4q69 202 127 321l297 613h199l-563 -1100h-191l-41 606q-6 61 -6 193z" />
    <glyph glyph-name="x" unicode="x" horiz-adv-x="1128" 
d="M459 586l-254 514h205l112 -258q10 -23 19.5 -48.5t19.5 -50.5t21 -53h4q20 30 40 54t40 50.5t36 47.5l213 258h218l-455 -516l301 -584h-205l-149 313q-10 23 -22.5 51.5t-23.5 56.5t-24 58h-4q-23 -31 -44 -59t-43 -56t-40 -51l-262 -313h-217z" />
    <glyph glyph-name="y" unicode="y" horiz-adv-x="1052" 
d="M73 -223q64 0 107 29.5t86 107.5q0 2 34 62.5t34 78.5l-205 1045h193l106 -600q25 -146 37 -307h6q78 183 137 290l338 617h205l-694 -1202q-134 -234 -225 -257.5t-167 -23.5t-133 29l33 153h8q36 -22 100 -22z" />
    <glyph glyph-name="z" unicode="z" horiz-adv-x="1036" 
d="M656 944h-447l31 156h809l-19 -113l-624 -663l-40 -40q-40 -40 -69 -67t-59 -57l-2 -8q215 10 221 10h430l-31 -162h-868l26 139l609 652q23 23 49 50t53 52t55 51v6q-117 -6 -124 -6z" />
    <glyph glyph-name="braceleft" unicode="{" horiz-adv-x="722" 
d="M451 -256q-190 0 -262 85t-35 271l69 363q16 76 -14.5 114.5t-120.5 43.5l31 153q90 4 132 28.5t58 102.5l80 412q31 158 110 223.5t234 65.5h117l-27 -148h-82q-74 0 -111.5 -37t-56.5 -133l-79 -418q-18 -86 -57.5 -128t-108.5 -62v-6q59 -23 81.5 -73t4.5 -142
l-76 -387q-20 -102 12.5 -137t116.5 -35h53l-31 -156h-38z" />
    <glyph glyph-name="bar" unicode="|" horiz-adv-x="505" 
d="M205 1606h153v-1862h-153v1862z" />
    <glyph glyph-name="braceright" unicode="}" horiz-adv-x="722" 
d="M41 -109q74 0 111.5 37t56.5 133l84 433q16 88 55 130t109 60v6q-59 25 -80 74t-4 141l71 373q20 102 -12.5 137t-116.5 35h-53l31 156h39q190 0 262 -85t35 -272l-68 -346q-16 -78 14.5 -116.5t120.5 -43.5l-30 -151q-90 -4 -132 -28.5t-59 -102.5l-82 -428
q-31 -158 -109.5 -223.5t-234.5 -65.5h-117l27 147h82z" />
    <glyph glyph-name="asciitilde" unicode="~" horiz-adv-x="833" 
d="M584 741q69 0 80 93h143q-10 -113 -61.5 -187t-151.5 -74q-39 0 -76 15.5t-81 33.5t-70.5 33t-53.5 15q-62 0 -71 -95h-146q12 123 69.5 193t145.5 70q47 0 84 -16.5t95 -48.5t94 -32z" />
    <glyph glyph-name="uni00A0" unicode="&#xa0;" horiz-adv-x="497" 
 />
    <glyph glyph-name="exclamdown" unicode="&#xa1;" horiz-adv-x="534" 
d="M299 1253h219l-43 -225h-221zM104 213l172 598h101l-72 -610l-90 -471h-205z" />
    <glyph glyph-name="cent" unicode="&#xa2;" horiz-adv-x="1130" 
d="M250 410q0 -108 48 -185.5t148 -99.5l164 850q-163 -19 -261.5 -182.5t-98.5 -382.5zM61 452q0 114 41 238.5t160 274t377 161.5l35 174h119l-35 -180q153 -22 238 -127t89 -252h-182q-4 188 -176 228l-164 -848q104 12 179 80.5t110 187.5h184q-51 -201 -184 -309.5
t-317 -112.5l-41 -211h-119l41 219q-167 27 -261 150t-94 327z" />
    <glyph glyph-name="sterling" unicode="&#xa3;" horiz-adv-x="1204" 
d="M1085 106q-179 -131 -324 -131q-85 0 -136.5 17.5t-96.5 38t-89.5 38t-108.5 17.5t-120 -29.5t-106 -60.5l-88 158q202 128 248.5 246t46.5 168t-4 73h-186l29 139h135q-39 176 -39 270q0 198 130.5 320.5t353.5 122.5t353.5 -122t118.5 -361h-194q8 172 -67 248.5
t-211 76.5t-210 -77.5t-74 -219.5q0 -59 10.5 -124.5t20.5 -133.5h299l-26 -139h-258l2 -33q0 -141 -70 -238.5t-201 -185.5l4 -6q94 42 130 45.5t78 3.5t85 -13t81 -28.5t76 -29t83 -13.5q107 0 235 99z" />
    <glyph glyph-name="currency" unicode="&#xa4;" horiz-adv-x="1036" 
d="M967 747q0 -143 -78 -255l143 -148l-92 -88l-139 141q-100 -76 -247.5 -75.5t-248.5 75.5l-139 -141l-92 88l141 145q-78 113 -78 258.5t78 253.5l-141 146l92 88l137 -141q109 82 248 82q140 0 252 -82l137 141l92 -88l-141 -146q76 -111 76 -254zM553 455
q117 0 180.5 83t63.5 210t-65 210.5t-179 83.5t-180 -82.5t-66 -211.5q0 -201 93.5 -247t152.5 -46z" />
    <glyph glyph-name="yen" unicode="&#xa5;" horiz-adv-x="1236" 
d="M186 692h342l-305 766h209l117 -325q22 -62 60 -184t59 -189h4q45 68 87 130t85 126.5t82 116.5l241 325h217l-600 -766h351l-23 -112h-377l-33 -170h377l-22 -113h-377l-57 -297h-195l57 297h-379l25 113h377l33 170h-379z" />
    <glyph glyph-name="brokenbar" unicode="&#xa6;" horiz-adv-x="512" 
d="M178 616h156v-872h-156v872zM178 1606h156v-838h-156v838z" />
    <glyph glyph-name="section" unicode="&#xa7;" horiz-adv-x="1271" 
d="M997 412q0 80 -73.5 150.5t-220.5 170.5t-209 154q-104 -16 -154.5 -65.5t-50.5 -119.5t56.5 -134t197.5 -165q59 -45 123.5 -91t117.5 -93q92 18 152.5 65.5t60.5 127.5zM276 4q10 -244 288 -244q88 0 140 45t52 114t-74.5 139.5t-239.5 186.5q-164 116 -253 214
t-89 226q0 241 310 296q-58 82 -58 171q0 160 107 252.5t292 92.5q184 0 299.5 -103t125.5 -268h-189q-8 92 -62.5 152.5t-168.5 60.5t-162.5 -48t-48.5 -102t16.5 -86t55 -69t155.5 -116q117 -78 264.5 -188t147.5 -302q0 -252 -307 -309q71 -87 71 -187
q0 -152 -108.5 -239.5t-308.5 -87.5t-319.5 110.5t-123.5 288.5h188z" />
    <glyph glyph-name="dieresis" unicode="&#xa8;" horiz-adv-x="1089" 
d="M444 1513h185l-43 -219h-185zM844 1513h186l-43 -219h-186z" />
    <glyph glyph-name="copyright" unicode="&#xa9;" horiz-adv-x="1767" 
d="M973 293q-131 0 -210 34.5t-135.5 96t-88 146.5t-31.5 236.5t117.5 286t312.5 134.5q158 0 253 -81t118 -218h-176q-10 63 -59.5 107t-123.5 44q-132 0 -197 -90t-65 -231t66 -228.5t172 -87.5t157.5 53.5t59.5 125.5h170q-5 -146 -103 -233q-106 -95 -237 -95z
M1413 1263.5q-193 202.5 -487 202.5q-293 0 -485.5 -202t-192.5 -508t194 -506.5t485 -200.5q290 0 484.5 200.5t194.5 506.5q0 305 -193 507.5zM927 -37q-165 0 -307.5 59.5t-247 166t-165 252t-60.5 316.5t60.5 316.5t165 251t247 165.5t307.5 60t307 -60t247.5 -165.5
t166 -251t60.5 -316.5t-60.5 -316.5t-166 -252t-247.5 -166t-307 -59.5z" />
    <glyph glyph-name="ordfeminine" unicode="&#xaa;" horiz-adv-x="983" 
d="M309 761q0 -79 42 -114t108 -35q137 0 214 64.5t93 150.5l37 179q-64 -39 -218 -62q-153 -22 -214.5 -63t-61.5 -120zM446 481q-145 0 -234 74.5t-89 187.5q0 211 155.5 256t279.5 61t201 48.5t77 110.5q0 145 -177 145q-104 0 -167.5 -47t-79.5 -135h-174
q20 134 137 222.5t290 88.5q172 0 267 -93t59 -265l-94 -486q-20 -107 8 -135l-2 -10h-172q-22 30 -8 110h-2q-49 -57 -122 -95t-153 -38z" />
    <glyph glyph-name="guillemotleft" unicode="&#xab;" horiz-adv-x="1044" 
d="M152 483l41 199l360 299l-43 -217l-240 -197v-4l160 -203l-37 -192zM573 483l39 199l361 299l-43 -217l-240 -197v-4l160 -203l-35 -192z" />
    <glyph glyph-name="logicalnot" unicode="&#xac;" horiz-adv-x="1144" 
d="M199 891h856l-103 -533h-155l73 383h-700z" />
    <glyph glyph-name="uni00AD" unicode="&#xad;" horiz-adv-x="759" 
d="M125 668h563l-31 -168h-563z" />
    <glyph glyph-name="registered" unicode="&#xae;" horiz-adv-x="1341" 
d="M645 989h143q53 0 81 25.5t28 66.5t-26.5 67t-79.5 26h-146v-185zM1022 1096q0 -124 -129 -154v-2q55 -14 77.5 -44t29.5 -92t10.5 -107.5t19.5 -51.5v-10h-123q-12 6 -16 50t-8 99q-10 109 -123 109h-115v-258h-125v641h297q88 0 146.5 -49t58.5 -131zM753.5 432
q106.5 0 198.5 39t158 107.5t103.5 164t37.5 208t-37.5 208.5t-103.5 166t-158 109t-198.5 39t-197.5 -39t-156.5 -109t-103.5 -166t-38 -208.5t38 -208t103.5 -164t156.5 -107.5t197.5 -39zM754 352q-123 0 -230.5 45t-187.5 125t-126 189.5t-46 238.5t46 239.5t126 190.5
t187.5 125t230.5 45t230.5 -45t186 -125t124.5 -190.5t46 -239.5t-46 -238.5t-124.5 -189.5t-186 -125t-230.5 -45z" />
    <glyph glyph-name="macron" unicode="&#xaf;" horiz-adv-x="1089" 
d="M457 1501h553l-29 -149h-553z" />
    <glyph glyph-name="degree" unicode="&#xb0;" horiz-adv-x="782" 
d="M520 993q80 0 127 54.5t47 137.5t-47 138t-127 55t-128 -55t-48 -138t48 -137.5t128 -54.5zM520 881q-129 0 -221 89.5t-92 217t93 216.5t220 89q126 0 217.5 -89.5t91.5 -216t-89.5 -216.5t-219.5 -90z" />
    <glyph glyph-name="plusminus" unicode="&#xb1;" horiz-adv-x="1210" 
d="M55 150h957l-29 -150h-956zM186 831h402l71 361h156l-72 -361h400l-29 -149h-399l-70 -363h-156l70 363h-401z" />
    <glyph glyph-name="uni00B2" unicode="&#xb2;" horiz-adv-x="817" 
d="M573 1411q-174 0 -208 -203h-160q26 164 125 249t248 85t227 -73.5t78 -184.5q0 -165 -119.5 -245.5t-190.5 -116t-145 -78t-117 -92.5q-14 -16 -16 -29h469l-27 -139h-671q27 168 149 276q70 59 151.5 103.5t163.5 87.5t134.5 92t52.5 121t-38 109.5t-106 37.5z" />
    <glyph glyph-name="uni00B3" unicode="&#xb3;" horiz-adv-x="854" 
d="M211 657.5q-93 94.5 -84 241.5h154q-4 -88 46 -149.5t149 -61.5t152.5 46t53.5 122t-44 122t-126 46h-63l22 115h51q207 0 207 149q0 59 -38.5 98t-116.5 39t-132.5 -52t-64.5 -140h-156q18 147 115.5 229t251.5 82q206 0 254.5 -93t48.5 -166t-54.5 -129t-140.5 -79v-4
q72 -23 112 -81t40 -131t-28.5 -129t-104 -112.5t-243.5 -56.5t-261 94.5z" />
    <glyph glyph-name="acute" unicode="&#xb4;" horiz-adv-x="1089" 
d="M752 1577h233l-227 -297h-162z" />
    <glyph glyph-name="mu" unicode="&#xb5;" 
d="M752 158q-130 -183 -350 -183q-114 0 -175 62h-6q-2 -20 -6 -45t-9 -56.5t-13 -72.5l-46 -236h-188l289 1475h184l-145 -740q-43 -222 166 -233q129 -8 225.5 73.5t122.5 209.5l135 690h188l-217 -1102h-180l29 158h-4z" />
    <glyph glyph-name="paragraph" unicode="&#xb6;" horiz-adv-x="1157" 
d="M561 748q-193 0 -293.5 120t-71.5 296q28 175 154 276q109 84 328 84h516l-352 -1811h-137l321 1663h-168l-323 -1663h-138l201 1035h-37z" />
    <glyph glyph-name="periodcentered" unicode="&#xb7;" horiz-adv-x="475" 
d="M176 780h219l-43 -225h-221z" />
    <glyph glyph-name="cedilla" unicode="&#xb8;" horiz-adv-x="1089" 
d="M459 -254q0 61 -86 61q-39 0 -86 -14l-23 51l162 156h121l-148 -119l2 -4q125 16 162 -34t37 -96q0 -87 -70 -130t-166 -43q-150 0 -231 66l41 57q64 -33 150 -33q135 0 135 82z" />
    <glyph glyph-name="uni00B9" unicode="&#xb9;" horiz-adv-x="569" 
d="M383 1251h-217l22 107q100 4 173 41t110 131h125l-184 -946h-160z" />
    <glyph glyph-name="ordmasculine" unicode="&#xba;" horiz-adv-x="1112" 
d="M598 612q157 0 248.5 135t91.5 322q0 123 -58.5 204t-181.5 81q-157 0 -250.5 -135t-93.5 -320q0 -129 60.5 -208t183.5 -79zM598 475q-201 0 -313.5 122t-112.5 316q0 233 107.5 358.5t206 173.5t207.5 48q203 0 314 -122.5t111 -305.5q0 -248 -108.5 -373t-206 -171
t-205.5 -46z" />
    <glyph glyph-name="guillemotright" unicode="&#xbb;" horiz-adv-x="1044" 
d="M553 385l240 197v4l-160 202l37 193l241 -315l-39 -199l-362 -299zM133 385l240 197v4l-160 202l37 193l242 -315l-39 -199l-363 -299z" />
    <glyph glyph-name="onequarter" unicode="&#xbc;" horiz-adv-x="1683" 
d="M899 113l154 6h166l49 248q18 99 43 174h-4q-17 -23 -35 -44t-119 -135.5t-254 -242.5v-6zM383 1251h-217l22 107q100 4 173 41t110 131h125l-184 -946h-160zM1503 1524h180l-1568 -1790h-178zM1194 -4h-442l28 143l566 586h147l-119 -606h144l-23 -123h-145l-43 -221
h-156z" />
    <glyph glyph-name="onehalf" unicode="&#xbd;" horiz-adv-x="1798" 
d="M1538 454q0 72 -38 110t-112 38t-122 -41q-63 -58 -80 -162h-160q26 164 125 249t248 85t227 -73.5t78 -184.5q0 -165 -119.5 -245.5t-190.5 -116t-146 -78t-115 -92.5q-14 -16 -17 -29h469l-26 -139h-672q27 168 149 276q70 59 152 103.5t164 87.5t134 91.5t52 120.5z
M1505 1524h181l-1569 -1790h-178zM383 1251h-217l22 107q100 4 173 41t110 131h125l-184 -946h-160z" />
    <glyph glyph-name="threequarters" unicode="&#xbe;" horiz-adv-x="1859" 
d="M1077 113l154 6h166l49 248q14 75 43 174h-4q-17 -23 -35 -44t-39.5 -46t-44.5 -50l-145 -151q-66 -66 -144 -131v-6zM199 657.5q-93 94.5 -84 241.5h153q-4 -88 46.5 -149.5t149.5 -61.5t152.5 46t53.5 122t-44 122t-126 46h-64l23 115h51q207 0 207 149q0 59 -38 98
t-117 39t-133 -52t-64 -140h-156q18 147 115.5 229t250.5 82q205 0 254.5 -93t49.5 -166t-54.5 -129t-140.5 -79v-4q72 -23 112 -81t40 -131t-29 -129t-104 -112.5t-243 -56.5t-261 94.5zM1683 1524h181l-1569 -1790h-178zM1372 -4h-442l28 143l566 586h147l-119 -606h144
l-23 -123h-145l-43 -221h-156z" />
    <glyph glyph-name="questiondown" unicode="&#xbf;" horiz-adv-x="1101" 
d="M106 -193.5q-118 105.5 -118 263.5q0 197 116 283.5t190 131.5q162 98 198 160q37 62 59 164h174q-31 -168 -86 -247.5t-199 -174.5q-45 -29 -148.5 -94.5t-103.5 -216.5q0 -90 65 -151.5t196 -61.5q132 0 225.5 84t116.5 248h188q-28 -229 -172 -361.5t-364 -132.5
q-219 0 -337 105.5zM616 1253h218l-43 -225h-220z" />
    <glyph glyph-name="Agrave" unicode="&#xc0;" horiz-adv-x="1413" 
d="M680 1864h219l80 -256h-150zM481 606h482l-60 416q-18 119 -37 340h-4q-23 -53 -45 -109q-23 -47 -49.5 -105t-54.5 -112zM782 1524h228l258 -1524h-219l-64 446h-590l-239 -446h-215z" />
    <glyph glyph-name="Aacute" unicode="&#xc1;" horiz-adv-x="1413" 
d="M963 1864h233l-217 -256h-162zM481 606h482l-60 416q-18 119 -37 340h-4q-23 -53 -45 -109q-23 -47 -49.5 -105t-54.5 -112zM782 1524h228l258 -1524h-219l-64 446h-590l-239 -446h-215z" />
    <glyph glyph-name="Acircumflex" unicode="&#xc2;" horiz-adv-x="1413" 
d="M840 1839h207l155 -231h-188l-84 127h-4l-138 -127h-196zM481 606h482l-60 416q-18 119 -37 340h-4q-23 -53 -45 -109q-23 -47 -49.5 -105t-54.5 -112zM782 1524h228l258 -1524h-219l-64 446h-590l-239 -446h-215z" />
    <glyph glyph-name="Atilde" unicode="&#xc3;" horiz-adv-x="1413" 
d="M798 1694q-22 0 -40.5 -20.5t-22.5 -61.5h-131q10 111 63.5 165t120.5 54t120 -28.5t79.5 -42t54.5 -13.5q57 0 64 80h133q-10 -106 -60.5 -161.5t-122.5 -55.5t-127 28.5t-82 42t-49 13.5zM481 606h482l-60 416q-18 119 -37 340h-4q-23 -53 -45 -109q-23 -47 -49.5 -105
t-54.5 -112zM782 1524h228l258 -1524h-219l-64 446h-590l-239 -446h-215z" />
    <glyph glyph-name="Adieresis" unicode="&#xc4;" horiz-adv-x="1413" 
d="M651 1827h185l-43 -219h-185zM1051 1827h186l-43 -219h-186zM481 606h482l-60 416q-18 119 -37 340h-4q-23 -53 -45 -109q-23 -47 -49.5 -105t-54.5 -112zM782 1524h228l258 -1524h-219l-64 446h-590l-239 -446h-215z" />
    <glyph glyph-name="Aring" unicode="&#xc5;" horiz-adv-x="1413" 
d="M933 1677q50 0 82 34t32 86t-32 86t-82 34t-82 -34t-32 -86t32 -86t82 -34zM932 1593q-43 0 -81 15.5t-66.5 43t-45 65.5t-16.5 81t16.5 80t45 64.5t66.5 43t81 15.5t82 -15.5t67.5 -43t45 -64.5t16.5 -80t-16.5 -81t-45 -65.5t-67.5 -43t-82 -15.5zM481 606h482l-60 416
q-18 119 -37 340h-4q-23 -53 -45 -109q-23 -47 -49.5 -105t-54.5 -112zM782 1524h228l258 -1524h-219l-64 446h-590l-239 -446h-215z" />
    <glyph glyph-name="AE" unicode="&#xc6;" horiz-adv-x="2039" 
d="M494 610h460l144 738h-195zM801 1524h1313l-35 -176h-772l-93 -471h689l-33 -168h-688l-101 -521h795l-37 -188h-1001l86 449h-518l-248 -449h-215z" />
    <glyph glyph-name="Ccedilla" unicode="&#xc7;" horiz-adv-x="1525" 
d="M694 -254q0 61 -85 61q-38 0 -87 -14l-22 51l137 133q-236 36 -372 210.5t-136 439.5q0 193 61.5 362.5t170 295.5t257 198.5t306.5 72.5q282 0 438 -143q144 -136 154 -352h-201q-10 143 -106.5 233t-276.5 90q-131 0 -239.5 -60t-229.5 -219t-121 -476
q0 -229 108.5 -358.5t304.5 -129.5t321 115.5t167 292.5h205q-64 -281 -245 -431q-180 -151 -439 -151h-23l-106 -86l2 -4q125 16 162 -34t37 -96q0 -87 -70 -130t-166 -43q-153 0 -231 66l41 57q64 -33 149 -33q135 0 135 82z" />
    <glyph glyph-name="Egrave" unicode="&#xc8;" horiz-adv-x="1345" 
d="M690 1864h219l80 -256h-149zM358 1524h1063l-35 -176h-856l-92 -471h779l-35 -168h-776l-101 -523h879l-35 -186h-1088z" />
    <glyph glyph-name="Eacute" unicode="&#xc9;" horiz-adv-x="1345" 
d="M969 1864h233l-217 -256h-162zM358 1524h1063l-35 -176h-856l-92 -471h779l-35 -168h-776l-101 -523h879l-35 -186h-1088z" />
    <glyph glyph-name="Ecircumflex" unicode="&#xca;" horiz-adv-x="1345" 
d="M850 1839h207l155 -231h-188l-84 127h-4l-137 -127h-197zM358 1524h1063l-35 -176h-856l-92 -471h779l-35 -168h-776l-101 -523h879l-35 -186h-1088z" />
    <glyph glyph-name="Edieresis" unicode="&#xcb;" horiz-adv-x="1345" 
d="M662 1827h184l-43 -219h-185zM1061 1827h186l-43 -219h-186zM358 1524h1063l-35 -176h-856l-92 -471h779l-35 -168h-776l-101 -523h879l-35 -186h-1088z" />
    <glyph glyph-name="Igrave" unicode="&#xcc;" horiz-adv-x="530" 
d="M256 1864h219l80 -256h-149zM356 1524h209l-297 -1524h-209z" />
    <glyph glyph-name="Iacute" unicode="&#xcd;" horiz-adv-x="530" 
d="M535 1864h233l-217 -256h-162zM356 1524h209l-297 -1524h-209z" />
    <glyph glyph-name="Icircumflex" unicode="&#xce;" horiz-adv-x="530" 
d="M416 1839h207l155 -231h-188l-84 127h-4l-137 -127h-197zM356 1524h209l-297 -1524h-209z" />
    <glyph glyph-name="Idieresis" unicode="&#xcf;" horiz-adv-x="530" 
d="M248 1827h184l-43 -219h-184zM606 1827h187l-43 -219h-187zM356 1524h209l-297 -1524h-209z" />
    <glyph glyph-name="Eth" unicode="&#xd0;" horiz-adv-x="1497" 
d="M645 178q307 0 459.5 201t152.5 524t-151.5 385t-257.5 62h-301l-98 -498h425l-34 -172h-426l-99 -502h330zM877 1524q281 0 434 -169.5t153 -439.5q0 -424 -217.5 -669.5t-617.5 -245.5h-555l131 680h-148l33 172h150l131 672h506z" />
    <glyph glyph-name="Ntilde" unicode="&#xd1;" horiz-adv-x="1495" 
d="M868 1694q-23 0 -41 -20.5t-22 -61.5h-131q10 111 63.5 165t120.5 54t119.5 -28.5t79 -42t55.5 -13.5q57 0 64 80h133q-10 -106 -60.5 -161.5t-122.5 -55.5t-127 28.5t-81.5 42t-49.5 13.5zM352 1524h219l418 -977q38 -89 66 -172q28 -82 47 -137h4q17 168 49 331
l184 955h193l-297 -1524h-209l-424 979q-40 86 -115 303h-4q-20 -199 -47 -330l-186 -952h-195z" />
    <glyph glyph-name="Ograve" unicode="&#xd2;" horiz-adv-x="1665" 
d="M768 1864h219l80 -256h-149zM834 143q128 0 239 61.5t226.5 217t115.5 455.5q0 235 -127 368t-344 133q-141 0 -252.5 -62.5t-188.5 -163.5t-117 -233.5t-40 -258.5t32 -219t92 -158.5t148 -102.5t216 -37zM825 -33q-329 0 -511.5 186.5t-182.5 497.5q0 178 58.5 341
t167 289t261 200.5t326.5 74.5q326 0 505 -189.5t179 -485.5q0 -182 -56 -347t-161.5 -291t-258.5 -201t-327 -75z" />
    <glyph glyph-name="Oacute" unicode="&#xd3;" horiz-adv-x="1665" 
d="M1047 1864h233l-217 -256h-162zM834 143q128 0 239 61.5t226.5 217t115.5 455.5q0 235 -127 368t-344 133q-141 0 -252.5 -62.5t-188.5 -163.5t-117 -233.5t-40 -258.5t32 -219t92 -158.5t148 -102.5t216 -37zM825 -33q-329 0 -511.5 186.5t-182.5 497.5q0 178 58.5 341
t167 289t261 200.5t326.5 74.5q326 0 505 -189.5t179 -485.5q0 -182 -56 -347t-161.5 -291t-258.5 -201t-327 -75z" />
    <glyph glyph-name="Ocircumflex" unicode="&#xd4;" horiz-adv-x="1665" 
d="M928 1839h207l155 -231h-188l-84 127h-4l-137 -127h-197zM834 143q128 0 239 61.5t226.5 217t115.5 455.5q0 235 -127 368t-344 133q-141 0 -252.5 -62.5t-188.5 -163.5t-117 -233.5t-40 -258.5t32 -219t92 -158.5t148 -102.5t216 -37zM825 -33q-329 0 -511.5 186.5
t-182.5 497.5q0 178 58.5 341t167 289t261 200.5t326.5 74.5q326 0 505 -189.5t179 -485.5q0 -182 -56 -347t-161.5 -291t-258.5 -201t-327 -75z" />
    <glyph glyph-name="Otilde" unicode="&#xd5;" horiz-adv-x="1665" 
d="M886 1694q-22 0 -40.5 -20.5t-22.5 -61.5h-131q10 111 63.5 165t120.5 54t120 -28.5t79.5 -42t54.5 -13.5q57 0 64 80h133q-10 -106 -60 -161.5t-123 -55.5t-127 28.5t-81.5 42t-49.5 13.5zM834 143q128 0 239 61.5t226.5 217t115.5 455.5q0 235 -127 368t-344 133
q-141 0 -252.5 -62.5t-188.5 -163.5t-117 -233.5t-40 -258.5t32 -219t92 -158.5t148 -102.5t216 -37zM825 -33q-329 0 -511.5 186.5t-182.5 497.5q0 178 58.5 341t167 289t261 200.5t326.5 74.5q326 0 505 -189.5t179 -485.5q0 -182 -56 -347t-161.5 -291t-258.5 -201
t-327 -75z" />
    <glyph glyph-name="Odieresis" unicode="&#xd6;" horiz-adv-x="1665" 
d="M739 1827h185l-43 -219h-185zM1139 1827h186l-43 -219h-186zM834 143q128 0 239 61.5t226.5 217t115.5 455.5q0 235 -127 368t-344 133q-141 0 -252.5 -62.5t-188.5 -163.5t-117 -233.5t-40 -258.5t32 -219t92 -158.5t148 -102.5t216 -37zM825 -33q-329 0 -511.5 186.5
t-182.5 497.5q0 178 58.5 341t167 289t261 200.5t326.5 74.5q326 0 505 -189.5t179 -485.5q0 -182 -56 -347t-161.5 -291t-258.5 -201t-327 -75z" />
    <glyph glyph-name="multiply" unicode="&#xd7;" horiz-adv-x="1216" 
d="M143 346l398 350l-289 353l117 96l284 -348l396 348l92 -103l-400 -352l289 -350l-117 -96l-284 346l-393 -346z" />
    <glyph glyph-name="Oslash" unicode="&#xd8;" horiz-adv-x="1665" 
d="M1415 877q0 150 -53 260l-895 -852q123 -142 354 -142q141 0 252 61.5t226.5 217t115.5 455.5zM944 1378q-141 0 -252.5 -62.5t-188.5 -163.5t-117 -233.5t-40 -280.5t60 -263l897 854q-126 149 -359 149zM131 651q0 178 58.5 341t167 289t261 200.5t340.5 74.5
q304 0 488 -188l219 207l76 -76l-225 -215q113 -170 112 -403q0 -182 -56 -347t-161.5 -291t-258.5 -201t-343 -75q-303 0 -487 180l-236 -225l-72 80l238 227q-121 176 -121 422z" />
    <glyph glyph-name="Ugrave" unicode="&#xd9;" horiz-adv-x="1425" 
d="M705 1864h219l80 -256h-150zM668 150q184 0 284.5 81.5t134.5 268.5l201 1024h205l-207 -1057q-51 -262 -208.5 -377t-416.5 -115t-414.5 143.5t-105.5 409.5l197 996h203l-193 -996q-37 -188 49.5 -283t270.5 -95z" />
    <glyph glyph-name="Uacute" unicode="&#xda;" horiz-adv-x="1425" 
d="M983 1864h234l-218 -256h-161zM668 150q184 0 284.5 81.5t134.5 268.5l201 1024h205l-207 -1057q-51 -262 -208.5 -377t-416.5 -115t-414.5 143.5t-105.5 409.5l197 996h203l-193 -996q-37 -188 49.5 -283t270.5 -95z" />
    <glyph glyph-name="Ucircumflex" unicode="&#xdb;" horiz-adv-x="1425" 
d="M864 1839h207l156 -231h-189l-84 127h-4l-137 -127h-197zM668 150q184 0 284.5 81.5t134.5 268.5l201 1024h205l-207 -1057q-51 -262 -208.5 -377t-416.5 -115t-414.5 143.5t-105.5 409.5l197 996h203l-193 -996q-37 -188 49.5 -283t270.5 -95z" />
    <glyph glyph-name="Udieresis" unicode="&#xdc;" horiz-adv-x="1425" 
d="M676 1827h184l-43 -219h-184zM1075 1827h187l-43 -219h-187zM668 150q184 0 284.5 81.5t134.5 268.5l201 1024h205l-207 -1057q-51 -262 -208.5 -377t-416.5 -115t-414.5 143.5t-105.5 409.5l197 996h203l-193 -996q-37 -188 49.5 -283t270.5 -95z" />
    <glyph glyph-name="Yacute" unicode="&#xdd;" horiz-adv-x="1370" 
d="M942 1864h234l-218 -256h-161zM600 639l-362 885h215l180 -459q16 -41 31.5 -91t30.5 -97t30 -99h4q131 203 199 287l362 459h236l-719 -887l-125 -637h-207z" />
    <glyph glyph-name="Thorn" unicode="&#xde;" horiz-adv-x="1312" 
d="M750 528q176 0 262 90.5t86 247.5q0 104 -65.5 160.5t-190.5 56.5h-371l-109 -555h388zM872 1260q205 0 318 -109t113 -281q0 -236 -144.5 -370.5t-410.5 -134.5h-418l-70 -365h-207l297 1524h207l-51 -264h366z" />
    <glyph glyph-name="germandbls" unicode="&#xdf;" horiz-adv-x="1112" 
d="M889 1172q-1 226 -211 225q-106 0 -164.5 -66.5t-81.5 -189.5l-215 -1141h-188l219 1163q35 182 144.5 280.5t288.5 98.5t284.5 -97t105.5 -243q0 -287 -283 -356v-6q117 -37 183.5 -132.5t66.5 -222.5q0 -243 -142 -375.5t-361 -132.5q-81 0 -179 27l29 146h6
q60 -21 141 -21q143 0 231.5 87.5t88.5 247.5q0 316 -283 316h-47l27 135h45q150 0 222.5 74.5t72.5 182.5z" />
    <glyph glyph-name="agrave" unicode="&#xe0;" horiz-adv-x="1110" 
d="M406 1577h219l96 -297h-150zM217 280q1 -174 215 -174q122 0 209.5 76.5t112.5 188.5l41 209q-81 -50 -257 -77t-228 -62t-72.5 -72t-20.5 -89zM379 -23q-164 0 -258 77t-94 208q0 252 174 299t271 59t165 21.5t136.5 40.5t64.5 141q-2 76 -57.5 120t-166.5 44
q-244 0 -290 -217h-179q25 158 149.5 257t325.5 99t306.5 -104.5t64.5 -302.5l-92 -481q-12 -61 7.5 -88t88.5 -15h6l-24 -129q-48 -16 -96 -16q-156 0 -164 149h-4q-53 -76 -140.5 -119t-193.5 -43z" />
    <glyph glyph-name="aacute" unicode="&#xe1;" horiz-adv-x="1110" 
d="M705 1577h233l-227 -297h-162zM217 280q1 -174 215 -174q122 0 209.5 76.5t112.5 188.5l41 209q-81 -50 -257 -77t-228 -62t-72.5 -72t-20.5 -89zM379 -23q-164 0 -258 77t-94 208q0 252 174 299t271 59t165 21.5t136.5 40.5t64.5 141q-2 76 -57.5 120t-166.5 44
q-244 0 -290 -217h-179q25 158 149.5 257t325.5 99t306.5 -104.5t64.5 -302.5l-92 -481q-12 -61 7.5 -88t88.5 -15h6l-24 -129q-48 -16 -96 -16q-156 0 -164 149h-4q-53 -76 -140.5 -119t-193.5 -43z" />
    <glyph glyph-name="acircumflex" unicode="&#xe2;" horiz-adv-x="1110" 
d="M578 1540h208l146 -252h-178l-82 156h-4l-136 -156h-194zM217 280q1 -174 215 -174q122 0 209.5 76.5t112.5 188.5l41 209q-81 -50 -257 -77t-228 -62t-72.5 -72t-20.5 -89zM379 -23q-164 0 -258 77t-94 208q0 252 174 299t271 59t165 21.5t136.5 40.5t64.5 141
q-2 76 -57.5 120t-166.5 44q-244 0 -290 -217h-179q25 158 149.5 257t325.5 99t306.5 -104.5t64.5 -302.5l-92 -481q-12 -61 7.5 -88t88.5 -15h6l-24 -129q-48 -16 -96 -16q-156 0 -164 149h-4q-53 -76 -140.5 -119t-193.5 -43z" />
    <glyph glyph-name="atilde" unicode="&#xe3;" horiz-adv-x="1110" 
d="M542 1376q-22 0 -40.5 -20.5t-22.5 -61.5h-131q10 111 63.5 165t122.5 54t120 -28.5t77.5 -41.5t54.5 -13q57 0 64 79h133q-10 -106 -60.5 -161.5t-121.5 -55.5t-127 29t-83 42t-49 13zM217 280q1 -174 215 -174q122 0 209.5 76.5t112.5 188.5l41 209q-81 -50 -257 -77
t-228 -62t-72.5 -72t-20.5 -89zM379 -23q-164 0 -258 77t-94 208q0 252 174 299t271 59t165 21.5t136.5 40.5t64.5 141q-2 76 -57.5 120t-166.5 44q-244 0 -290 -217h-179q25 158 149.5 257t325.5 99t306.5 -104.5t64.5 -302.5l-92 -481q-12 -61 7.5 -88t88.5 -15h6
l-24 -129q-48 -16 -96 -16q-156 0 -164 149h-4q-53 -76 -140.5 -119t-193.5 -43z" />
    <glyph glyph-name="adieresis" unicode="&#xe4;" horiz-adv-x="1110" 
d="M395 1513h185l-43 -219h-185zM795 1513h186l-43 -219h-186zM217 280q1 -174 215 -174q122 0 209.5 76.5t112.5 188.5l41 209q-81 -50 -257 -77t-228 -62t-72.5 -72t-20.5 -89zM379 -23q-164 0 -258 77t-94 208q0 252 174 299t271 59t165 21.5t136.5 40.5t64.5 141
q-2 76 -57.5 120t-166.5 44q-244 0 -290 -217h-179q25 158 149.5 257t325.5 99t306.5 -104.5t64.5 -302.5l-92 -481q-12 -61 7.5 -88t88.5 -15h6l-24 -129q-48 -16 -96 -16q-156 0 -164 149h-4q-53 -76 -140.5 -119t-193.5 -43z" />
    <glyph glyph-name="aring" unicode="&#xe5;" horiz-adv-x="1110" 
d="M650 1313q50 0 82 33.5t32 85.5t-32 86t-82 34t-81.5 -33.5t-31.5 -85.5t31.5 -86t81.5 -34zM649 1229q-43 0 -81 15.5t-66.5 43t-45 65.5t-16.5 81t16.5 79.5t45 64.5t66.5 43t81 15t82 -15t67.5 -43t45 -64.5t16.5 -79.5t-16.5 -81t-45 -65.5t-67.5 -43t-82 -15.5z
M217 280q1 -174 215 -174q122 0 209.5 76.5t112.5 188.5l41 209q-81 -50 -257 -77t-228 -62t-72.5 -72t-20.5 -89zM379 -23q-164 0 -258 77t-94 208q0 252 174 299t271 59t165 21.5t136.5 40.5t64.5 141q-2 76 -57.5 120t-166.5 44q-244 0 -290 -217h-179q25 158 149.5 257
t325.5 99t306.5 -104.5t64.5 -302.5l-92 -481q-12 -61 7.5 -88t88.5 -15h6l-24 -129q-48 -16 -96 -16q-156 0 -164 149h-4q-53 -76 -140.5 -119t-193.5 -43z" />
    <glyph glyph-name="ae" unicode="&#xe6;" horiz-adv-x="1845" 
d="M1344 985q-140 0 -234.5 -98t-132.5 -248h608q39 241 -63.5 293.5t-177.5 52.5zM217 280q1 -174 215 -174q122 0 209.5 76.5t112.5 188.5l41 209q-81 -50 -257 -77t-228 -62t-72.5 -72t-20.5 -89zM1780 681q0 -93 -17 -175h-809q-2 -16 -2 -20v-42q0 -156 72 -240.5
t215 -84.5q100 0 179 49t118 147h184q-59 -174 -191 -261t-294 -87t-266.5 65.5t-151.5 176.5q-88 -131 -199.5 -181.5t-257.5 -50.5t-239.5 77t-93.5 208q0 252 174 299t271 59t165 21.5t136.5 40.5t64.5 141q-2 76 -57.5 120t-166.5 44q-244 0 -290 -217h-179
q25 158 149.5 257t323.5 99q274 0 347 -182q154 184 393 184q206 0 314 -125t108 -322z" />
    <glyph glyph-name="ccedilla" unicode="&#xe7;" horiz-adv-x="1130" 
d="M449 -254q0 61 -86 61q-38 0 -87 -14l-22 51l141 138q-162 35 -248 153.5t-86 276.5q0 309 167.5 511.5t437.5 202.5q202 0 307.5 -107.5t109.5 -277.5h-182q-2 104 -62.5 169t-174.5 65q-200 0 -307 -166.5t-107 -386.5q0 -141 66.5 -221t195.5 -80q260 0 340 268h184
q-53 -205 -190 -312.5t-328 -107.5h-20l-109 -88l2 -4q125 16 162 -34t37 -96q0 -87 -70 -130t-166 -43q-150 0 -231 66l41 57q64 -33 149 -33q136 0 136 82z" />
    <glyph glyph-name="egrave" unicode="&#xe8;" horiz-adv-x="1163" 
d="M451 1577h219l96 -297h-150zM414.5 887.5q-96.5 -95.5 -138.5 -248.5h627q25 154 -38 249t-208.5 95t-242 -95.5zM1096 693q0 -79 -15 -187h-827q-2 -16 -2 -20v-42q0 -156 74.5 -239.5t222.5 -83.5q102 0 183 48t120 146h186q-59 -172 -194 -259t-305 -87
q-227 0 -350 133.5t-123 343.5q0 281 167.5 480.5t434.5 199.5q211 0 293.5 -94t108.5 -177t26 -162z" />
    <glyph glyph-name="eacute" unicode="&#xe9;" horiz-adv-x="1163" 
d="M750 1577h233l-227 -297h-162zM414.5 887.5q-96.5 -95.5 -138.5 -248.5h627q25 154 -38 249t-208.5 95t-242 -95.5zM1096 693q0 -79 -15 -187h-827q-2 -16 -2 -20v-42q0 -156 74.5 -239.5t222.5 -83.5q102 0 183 48t120 146h186q-59 -172 -194 -259t-305 -87
q-227 0 -350 133.5t-123 343.5q0 281 167.5 480.5t434.5 199.5q211 0 293.5 -94t108.5 -177t26 -162z" />
    <glyph glyph-name="ecircumflex" unicode="&#xea;" horiz-adv-x="1163" 
d="M621 1540h208l146 -252h-178l-82 156h-4l-136 -156h-194zM414.5 887.5q-96.5 -95.5 -138.5 -248.5h627q25 154 -38 249t-208.5 95t-242 -95.5zM1096 693q0 -79 -15 -187h-827q-2 -16 -2 -20v-42q0 -156 74.5 -239.5t222.5 -83.5q102 0 183 48t120 146h186
q-59 -172 -194 -259t-305 -87q-227 0 -350 133.5t-123 343.5q0 281 167.5 480.5t434.5 199.5q211 0 293.5 -94t108.5 -177t26 -162z" />
    <glyph glyph-name="edieresis" unicode="&#xeb;" horiz-adv-x="1163" 
d="M438 1513h185l-43 -219h-185zM838 1513h186l-43 -219h-186zM414.5 887.5q-96.5 -95.5 -138.5 -248.5h627q25 154 -38 249t-208.5 95t-242 -95.5zM1096 693q0 -79 -15 -187h-827q-2 -16 -2 -20v-42q0 -156 74.5 -239.5t222.5 -83.5q102 0 183 48t120 146h186
q-59 -172 -194 -259t-305 -87q-227 0 -350 133.5t-123 343.5q0 281 167.5 480.5t434.5 199.5q211 0 293.5 -94t108.5 -177t26 -162z" />
    <glyph glyph-name="igrave" unicode="&#xec;" horiz-adv-x="458" 
d="M139 1577h219l97 -297h-150zM248 1100h186l-213 -1100h-188z" />
    <glyph glyph-name="iacute" unicode="&#xed;" horiz-adv-x="458" 
d="M438 1577h234l-228 -297h-161zM248 1100h186l-213 -1100h-188z" />
    <glyph glyph-name="icircumflex" unicode="&#xee;" horiz-adv-x="458" 
d="M311 1540h209l146 -252h-179l-81 156h-5l-135 -156h-194zM248 1100h186l-213 -1100h-188z" />
    <glyph glyph-name="idieresis" unicode="&#xef;" horiz-adv-x="458" 
d="M172 1522h184l-43 -219h-184zM489 1522h187l-43 -219h-187zM248 1100h186l-213 -1100h-188z" />
    <glyph glyph-name="eth" unicode="&#xf0;" horiz-adv-x="1208" 
d="M950 639q0 241 -107.5 290.5t-189.5 49.5t-155.5 -42t-156.5 -153t-83 -327q0 -150 69.5 -243t232.5 -93t276.5 154.5t113.5 363.5zM553 1524h215q59 -50 106 -99l209 70l35 -94l-174 -58q203 -268 203 -636q0 -321 -170.5 -529.5t-437.5 -208.5q-224 0 -347.5 136
t-123.5 358q0 273 124.5 414t232 193t230.5 52q177 0 275 -125h6q-52 151 -164 289l-293 -96l-35 94l256 84q-74 76 -147 141v15z" />
    <glyph glyph-name="ntilde" unicode="&#xf1;" horiz-adv-x="1159" 
d="M604 1376q-23 0 -41 -20.5t-22 -61.5h-131q10 111 63 165t122 54t120 -28.5t77.5 -41.5t55.5 -13q57 0 63 79h133q-10 -106 -60 -161.5t-122 -55.5t-127 29t-81.5 42t-49.5 13zM744 1126q183 0 274.5 -106t54.5 -283l-147 -737h-187l146 733q23 113 -24.5 175.5
t-169.5 62.5t-216 -74t-121 -205l-135 -692h-186l215 1100h184l-35 -164h4q61 88 154 139t189 51z" />
    <glyph glyph-name="ograve" unicode="&#xf2;" horiz-adv-x="1200" 
d="M481 1577h219l97 -297h-150zM543 121q185 0 296 159t111 367q0 145 -71 237.5t-217 92.5q-182 0 -294 -160.5t-112 -370.5q0 -141 70 -233t217 -92zM541 -31q-226 0 -349.5 136t-123.5 350q0 273 125.5 417t236.5 199t235 55q234 0 355 -137t121 -348q0 -277 -126 -420
t-238 -197.5t-236 -54.5z" />
    <glyph glyph-name="oacute" unicode="&#xf3;" horiz-adv-x="1200" 
d="M780 1577h234l-228 -297h-161zM543 121q185 0 296 159t111 367q0 145 -71 237.5t-217 92.5q-182 0 -294 -160.5t-112 -370.5q0 -141 70 -233t217 -92zM541 -31q-226 0 -349.5 136t-123.5 350q0 273 125.5 417t236.5 199t235 55q234 0 355 -137t121 -348q0 -277 -126 -420
t-238 -197.5t-236 -54.5z" />
    <glyph glyph-name="ocircumflex" unicode="&#xf4;" horiz-adv-x="1200" 
d="M651 1540h209l146 -252h-179l-82 156h-4l-135 -156h-194zM543 121q185 0 296 159t111 367q0 145 -71 237.5t-217 92.5q-182 0 -294 -160.5t-112 -370.5q0 -141 70 -233t217 -92zM541 -31q-226 0 -349.5 136t-123.5 350q0 273 125.5 417t236.5 199t235 55q234 0 355 -137
t121 -348q0 -277 -126 -420t-238 -197.5t-236 -54.5z" />
    <glyph glyph-name="otilde" unicode="&#xf5;" horiz-adv-x="1200" 
d="M616 1376q-23 0 -41 -20.5t-22 -61.5h-131q10 111 63.5 165t122.5 54t119.5 -28.5t77 -41.5t55.5 -13q57 0 64 79h133q-10 -106 -60.5 -161.5t-121.5 -55.5t-127 29t-82.5 42t-49.5 13zM543 121q185 0 296 159t111 367q0 145 -71 237.5t-217 92.5q-182 0 -294 -160.5
t-112 -370.5q0 -141 70 -233t217 -92zM541 -31q-226 0 -349.5 136t-123.5 350q0 273 125.5 417t236.5 199t235 55q234 0 355 -137t121 -348q0 -277 -126 -420t-238 -197.5t-236 -54.5z" />
    <glyph glyph-name="odieresis" unicode="&#xf6;" horiz-adv-x="1200" 
d="M469 1513h184l-43 -219h-184zM868 1513h187l-43 -219h-187zM543 121q185 0 296 159t111 367q0 145 -71 237.5t-217 92.5q-182 0 -294 -160.5t-112 -370.5q0 -141 70 -233t217 -92zM541 -31q-226 0 -349.5 136t-123.5 350q0 273 125.5 417t236.5 199t235 55
q234 0 355 -137t121 -348q0 -277 -126 -420t-238 -197.5t-236 -54.5z" />
    <glyph glyph-name="divide" unicode="&#xf7;" horiz-adv-x="1216" 
d="M481 432h219l-43 -221h-219zM174 770h961l-29 -149h-961zM627 1180h219l-43 -224h-219z" />
    <glyph glyph-name="oslash" unicode="&#xf8;" horiz-adv-x="1200" 
d="M541 121q184 0 295.5 158.5t111.5 367.5q0 86 -22 146l-604 -580q74 -92 219 -92zM252 446q0 -87 22 -151l609 582q-74 100 -226 100q-181 0 -293 -160.5t-112 -370.5zM63 438q0 150 45.5 271.5t126 214t191.5 147.5t244 55q209 0 338 -129l161 156l64 -66l-170 -161
q76 -124 76 -272q0 -290 -174 -487.5t-435 -197.5q-208 0 -333 125l-160 -153l-64 65l166 160q-76 122 -76 272z" />
    <glyph glyph-name="ugrave" unicode="&#xf9;" 
d="M479 1577h219l97 -297h-150zM745 158q-131 -185 -344 -185q-170 0 -253.5 104.5t-51.5 282.5l146 742h184l-145 -740q-40 -233 134.5 -233t263.5 78.5t116 204.5l135 690h188l-217 -1102h-180l29 158h-5z" />
    <glyph glyph-name="uacute" unicode="&#xfa;" 
d="M778 1577h234l-228 -297h-161zM745 158q-131 -185 -344 -185q-170 0 -253.5 104.5t-51.5 282.5l146 742h184l-145 -740q-40 -233 134.5 -233t263.5 78.5t116 204.5l135 690h188l-217 -1102h-180l29 158h-5z" />
    <glyph glyph-name="ucircumflex" unicode="&#xfb;" 
d="M649 1540h209l146 -252h-179l-82 156h-4l-135 -156h-194zM745 158q-131 -185 -344 -185q-170 0 -253.5 104.5t-51.5 282.5l146 742h184l-145 -740q-40 -233 134.5 -233t263.5 78.5t116 204.5l135 690h188l-217 -1102h-180l29 158h-5z" />
    <glyph glyph-name="udieresis" unicode="&#xfc;" 
d="M467 1513h184l-43 -219h-184zM866 1513h187l-43 -219h-187zM745 158q-131 -185 -344 -185q-170 0 -253.5 104.5t-51.5 282.5l146 742h184l-145 -740q-40 -233 134.5 -233t263.5 78.5t116 204.5l135 690h188l-217 -1102h-180l29 158h-5z" />
    <glyph glyph-name="yacute" unicode="&#xfd;" horiz-adv-x="1052" 
d="M733 1577h234l-228 -297h-161zM73 -223q64 0 107 29.5t86 107.5q0 2 34 62.5t34 78.5l-205 1045h193l106 -600q25 -146 37 -307h6q78 183 137 290l338 617h205l-694 -1202q-134 -234 -225 -257.5t-167 -23.5t-133 29l33 153h8q36 -22 100 -22z" />
    <glyph glyph-name="thorn" unicode="&#xfe;" horiz-adv-x="1200" 
d="M952 670q0 139 -64 220t-174 81q-198 0 -304.5 -154t-106.5 -356q0 -150 71 -246t216 -96q80 0 149.5 50t141 171.5t71.5 329.5zM406 954q143 172 337 172q193 0 297.5 -123t104.5 -331q0 -289 -147.5 -496t-393.5 -207q-143 0 -226 58.5t-128 156.5h-4
q-2 -14 -9.5 -71.5t-19.5 -122.5l-70 -363h-188l371 1897h186l-78 -402q-16 -79 -35 -168h3z" />
    <glyph glyph-name="ydieresis" unicode="&#xff;" horiz-adv-x="1052" 
d="M424 1513h184l-43 -219h-184zM823 1513h187l-43 -219h-187zM73 -223q64 0 107 29.5t86 107.5q0 2 34 62.5t34 78.5l-205 1045h193l106 -600q25 -146 37 -307h6q78 183 137 290l338 617h205l-694 -1202q-134 -234 -225 -257.5t-167 -23.5t-133 29l33 153h8q36 -22 100 -22
z" />
    <glyph glyph-name="Amacron" unicode="&#x100;" horiz-adv-x="1413" 
d="M647 1778h576l-31 -150h-576zM481 606h482l-60 416q-18 119 -37 340h-4q-23 -53 -45 -109q-23 -47 -49.5 -105t-54.5 -112zM782 1524h228l258 -1524h-219l-64 446h-590l-239 -446h-215z" />
    <glyph glyph-name="amacron" unicode="&#x101;" horiz-adv-x="1110" 
d="M408 1501h553l-29 -149h-553zM217 280q1 -174 215 -174q122 0 209.5 76.5t112.5 188.5l41 209q-81 -50 -257 -77t-228 -62t-72.5 -72t-20.5 -89zM379 -23q-164 0 -258 77t-94 208q0 252 174 299t271 59t165 21.5t136.5 40.5t64.5 141q-2 76 -57.5 120t-166.5 44
q-244 0 -290 -217h-179q25 158 149.5 257t325.5 99t306.5 -104.5t64.5 -302.5l-92 -481q-12 -61 7.5 -88t88.5 -15h6l-24 -129q-48 -16 -96 -16q-156 0 -164 149h-4q-53 -76 -140.5 -119t-193.5 -43z" />
    <glyph glyph-name="Abreve" unicode="&#x102;" horiz-adv-x="1413" 
d="M1112 1670q-77 -73 -195 -73t-190.5 72.5t-62.5 190.5h129q9 -125 130 -125t156 125h135q-25 -117 -102 -190zM481 606h482l-60 416q-18 119 -37 340h-4q-23 -53 -45 -109q-23 -47 -49.5 -105t-54.5 -112zM782 1524h228l258 -1524h-219l-64 446h-590l-239 -446h-215z" />
    <glyph glyph-name="abreve" unicode="&#x103;" horiz-adv-x="1110" 
d="M847.5 1342.5q-77.5 -72.5 -194.5 -72.5t-189.5 71.5t-64.5 190.5h129q9 -125 127 -125q63 0 103.5 34t56.5 91h135q-25 -117 -102.5 -189.5zM217 280q1 -174 215 -174q122 0 209.5 76.5t112.5 188.5l41 209q-81 -50 -257 -77t-228 -62t-72.5 -72t-20.5 -89zM379 -23
q-164 0 -258 77t-94 208q0 252 174 299t271 59t165 21.5t136.5 40.5t64.5 141q-2 76 -57.5 120t-166.5 44q-244 0 -290 -217h-179q25 158 149.5 257t325.5 99t306.5 -104.5t64.5 -302.5l-92 -481q-12 -61 7.5 -88t88.5 -15h6l-24 -129q-48 -16 -96 -16q-156 0 -164 149h-4
q-53 -76 -140.5 -119t-193.5 -43z" />
    <glyph glyph-name="Aogonek" unicode="&#x104;" horiz-adv-x="1413" 
d="M481 606h482l-60 416q-18 119 -37 340h-4q-23 -53 -45 -109q-23 -47 -49.5 -105t-54.5 -112zM926 -225q0 139 166 225h-43l-64 446h-590l-239 -446h-215l841 1524h228l258 -1522q-61 -24 -115.5 -79.5t-54.5 -115.5q0 -66 84 -65q43 0 82 14h6l-27 -131q-40 -16 -102 -16
q-117 0 -166 48t-49 118z" />
    <glyph glyph-name="aogonek" unicode="&#x105;" horiz-adv-x="1110" 
d="M217 280q1 -174 215 -174q122 0 209.5 76.5t112.5 188.5l41 209q-81 -50 -257 -77t-228 -62t-72.5 -72t-20.5 -89zM614 987q-244 0 -290 -217h-179q25 158 149.5 257t325.5 99t306.5 -104.5t64.5 -302.5l-92 -481q-12 -61 7.5 -88t88.5 -15h6l-24 -129q-71 -18 -133 -75
t-62 -123q0 -67 84 -66q43 0 82 14h6l-26 -131q-40 -16 -103 -16q-117 0 -166 48t-49 118q0 139 181 237q-70 34 -74 127h-4q-53 -76 -140.5 -119t-193.5 -43q-164 0 -258 77t-94 208q0 252 174 299t271 59t165 21.5t136.5 40.5t64.5 141q-2 76 -57.5 120t-166.5 44z" />
    <glyph glyph-name="Cacute" unicode="&#x106;" horiz-adv-x="1525" 
d="M1020 1864h233l-217 -256h-162zM129 627q0 193 61.5 362.5t170 295.5t257 198.5t306.5 72.5q282 0 438 -143q144 -136 154 -352h-201q-10 143 -106.5 233t-276.5 90q-131 0 -239.5 -60t-229.5 -219t-121 -476q0 -229 108.5 -358.5t304.5 -129.5t321 115.5t167 292.5h205
q-31 -135 -88 -241.5t-162 -194.5q-175 -146 -443 -146q-136 0 -254 47t-245 178.5t-127 434.5z" />
    <glyph glyph-name="cacute" unicode="&#x107;" horiz-adv-x="1130" 
d="M756 1577h233l-227 -297h-162zM61 428q0 293 167.5 495.5t437.5 202.5q202 0 307.5 -107.5t109.5 -277.5h-182q-2 104 -62.5 169t-174.5 65q-200 0 -307 -166.5t-107 -386.5q0 -141 66.5 -221t195.5 -80q260 0 340 268h184q-53 -205 -190.5 -312.5t-338.5 -107.5
t-323.5 126.5t-122.5 332.5z" />
    <glyph glyph-name="Ccircumflex" unicode="&#x108;" horiz-adv-x="1525" 
d="M901 1839h207l156 -231h-189l-84 127h-4l-137 -127h-197zM129 627q0 193 61.5 362.5t170 295.5t257 198.5t306.5 72.5q282 0 438 -143q144 -136 154 -352h-201q-10 143 -106.5 233t-276.5 90q-131 0 -239.5 -60t-229.5 -219t-121 -476q0 -229 108.5 -358.5t304.5 -129.5
t321 115.5t167 292.5h205q-31 -135 -88 -241.5t-162 -194.5q-175 -146 -443 -146q-136 0 -254 47t-245 178.5t-127 434.5z" />
    <glyph glyph-name="ccircumflex" unicode="&#x109;" horiz-adv-x="1130" 
d="M627 1540h209l145 -252h-178l-82 156h-4l-135 -156h-195zM61 428q0 293 167.5 495.5t437.5 202.5q202 0 307.5 -107.5t109.5 -277.5h-182q-2 104 -62.5 169t-174.5 65q-200 0 -307 -166.5t-107 -386.5q0 -141 66.5 -221t195.5 -80q260 0 340 268h184
q-53 -205 -190.5 -312.5t-338.5 -107.5t-323.5 126.5t-122.5 332.5z" />
    <glyph glyph-name="Cdotaccent" unicode="&#x10a;" horiz-adv-x="1525" 
d="M907 1829h195l-43 -221h-195zM129 627q0 193 61.5 362.5t170 295.5t257 198.5t306.5 72.5q282 0 438 -143q144 -136 154 -352h-201q-10 143 -106.5 233t-276.5 90q-131 0 -239.5 -60t-229.5 -219t-121 -476q0 -229 108.5 -358.5t304.5 -129.5t321 115.5t167 292.5h205
q-31 -135 -88 -241.5t-162 -194.5q-175 -146 -443 -146q-136 0 -254 47t-245 178.5t-127 434.5z" />
    <glyph glyph-name="cdotaccent" unicode="&#x10b;" horiz-adv-x="1130" 
d="M641 1524h195l-43 -221h-195zM61 428q0 293 167.5 495.5t437.5 202.5q202 0 307.5 -107.5t109.5 -277.5h-182q-2 104 -62.5 169t-174.5 65q-200 0 -307 -166.5t-107 -386.5q0 -141 66.5 -221t195.5 -80q260 0 340 268h184q-53 -205 -190.5 -312.5t-338.5 -107.5
t-323.5 126.5t-122.5 332.5z" />
    <glyph glyph-name="Ccaron" unicode="&#x10c;" horiz-adv-x="1525" 
d="M1069 1608h-207l-155 231h188l84 -127h4l137 127h197zM129 627q0 193 61.5 362.5t170 295.5t257 198.5t306.5 72.5q282 0 438 -143q144 -136 154 -352h-201q-10 143 -106.5 233t-276.5 90q-131 0 -239.5 -60t-229.5 -219t-121 -476q0 -229 108.5 -358.5t304.5 -129.5
t321 115.5t167 292.5h205q-31 -135 -88 -241.5t-162 -194.5q-175 -146 -443 -146q-136 0 -254 47t-245 178.5t-127 434.5z" />
    <glyph glyph-name="ccaron" unicode="&#x10d;" horiz-adv-x="1130" 
d="M446 1534h179l82 -156h4l135 156h196l-241 -254h-207zM61 428q0 293 167.5 495.5t437.5 202.5q202 0 307.5 -107.5t109.5 -277.5h-182q-2 104 -62.5 169t-174.5 65q-200 0 -307 -166.5t-107 -386.5q0 -141 66.5 -221t195.5 -80q260 0 340 268h184q-53 -205 -190.5 -312.5
t-338.5 -107.5t-323.5 126.5t-122.5 332.5z" />
    <glyph glyph-name="Dcaron" unicode="&#x10e;" horiz-adv-x="1478" 
d="M956 1608h-206l-156 231h188l84 -127h4l138 127h196zM627 178q308 0 460 202t152 524t-151.5 384t-258.5 62h-301l-231 -1172h330zM858 1524q283 0 435.5 -170.5t152.5 -438.5q0 -423 -218 -669t-618 -246h-555l297 1524h506z" />
    <glyph glyph-name="dcaron" unicode="&#x10f;" horiz-adv-x="1202" 
d="M1548 1341q-18 -98 -84.5 -147t-158.5 -53l16 90q53 8 81 32.5t38 77.5h-92l34 183h201zM508 119q176 0 285.5 163.5t109.5 377.5t-104.5 261.5t-186.5 47.5t-151.5 -48.5t-138 -162.5t-68.5 -326q0 -139 60.5 -226t193.5 -87zM59 426q0 296 158.5 498t397.5 202
t335 -219h4q8 64 33 195l84 422h186l-299 -1524h-180l25 137q-151 -168 -335 -168q-185 0 -297 123.5t-112 333.5z" />
    <glyph glyph-name="Dcroat" unicode="&#x110;" horiz-adv-x="1497" 
d="M645 178q307 0 459.5 201t152.5 524t-151.5 385t-257.5 62h-301l-98 -498h425l-34 -172h-426l-99 -502h330zM877 1524q281 0 434 -169.5t153 -439.5q0 -424 -217.5 -669.5t-617.5 -245.5h-555l131 680h-148l33 172h150l131 672h506z" />
    <glyph glyph-name="dcroat" unicode="&#x111;" horiz-adv-x="1202" 
d="M508 117q176 0 285.5 165t109.5 379t-104.5 262t-186.5 48t-151.5 -49.5t-138 -163.5t-68.5 -326q0 -139 60.5 -227t193.5 -88zM59 426q0 295 158 498.5t397 203.5t336 -221h4q8 64 33 195l29 145h-305l24 125h305l31 152h186l-30 -152h147l-24 -125h-148l-244 -1247
h-180l25 137q-153 -170 -337 -170t-295.5 125t-111.5 334z" />
    <glyph glyph-name="Emacron" unicode="&#x112;" horiz-adv-x="1345" 
d="M655 1778h576l-31 -150h-575zM358 1524h1063l-35 -176h-856l-92 -471h779l-35 -168h-776l-101 -523h879l-35 -186h-1088z" />
    <glyph glyph-name="emacron" unicode="&#x113;" horiz-adv-x="1163" 
d="M451 1501h553l-29 -149h-553zM414.5 887.5q-96.5 -95.5 -138.5 -248.5h627q25 154 -38 249t-208.5 95t-242 -95.5zM1096 693q0 -79 -15 -187h-827q-2 -16 -2 -20v-42q0 -156 74.5 -239.5t222.5 -83.5q102 0 183 48t120 146h186q-59 -172 -194 -259t-305 -87
q-227 0 -350 133.5t-123 343.5q0 281 167.5 480.5t434.5 199.5q211 0 293.5 -94t108.5 -177t26 -162z" />
    <glyph glyph-name="Ebreve" unicode="&#x114;" horiz-adv-x="1345" 
d="M1122.5 1670q-77.5 -73 -195.5 -73t-189.5 72t-63.5 191h129q9 -125 130 -125t157 125h135q-25 -117 -102.5 -190zM358 1524h1063l-35 -176h-856l-92 -471h779l-35 -168h-776l-101 -523h879l-35 -186h-1088z" />
    <glyph glyph-name="ebreve" unicode="&#x115;" horiz-adv-x="1163" 
d="M890.5 1342.5q-77.5 -72.5 -194.5 -72.5t-189.5 71.5t-64.5 190.5h129q9 -125 127 -125q63 0 103.5 34t56.5 91h135q-25 -117 -102.5 -189.5zM414.5 887.5q-96.5 -95.5 -138.5 -248.5h627q25 154 -38 249t-208.5 95t-242 -95.5zM1096 693q0 -79 -15 -187h-827
q-2 -16 -2 -20v-42q0 -156 74.5 -239.5t222.5 -83.5q102 0 183 48t120 146h186q-59 -172 -194 -259t-305 -87q-227 0 -350 133.5t-123 343.5q0 281 167.5 480.5t434.5 199.5q211 0 293.5 -94t108.5 -177t26 -162z" />
    <glyph glyph-name="Edotaccent" unicode="&#x116;" horiz-adv-x="1345" 
d="M856 1829h195l-43 -221h-195zM358 1524h1063l-35 -176h-856l-92 -471h779l-35 -168h-776l-101 -523h879l-35 -186h-1088z" />
    <glyph glyph-name="edotaccent" unicode="&#x117;" horiz-adv-x="1163" 
d="M635 1524h194l-43 -221h-194zM414.5 887.5q-96.5 -95.5 -138.5 -248.5h627q25 154 -38 249t-208.5 95t-242 -95.5zM1096 693q0 -79 -15 -187h-827q-2 -16 -2 -20v-42q0 -156 74.5 -239.5t222.5 -83.5q102 0 183 48t120 146h186q-59 -172 -194 -259t-305 -87
q-227 0 -350 133.5t-123 343.5q0 281 167.5 480.5t434.5 199.5q211 0 293.5 -94t108.5 -177t26 -162z" />
    <glyph glyph-name="Eogonek" unicode="&#x118;" horiz-adv-x="1345" 
d="M727 -225q0 134 150 225h-816l297 1524h1063l-35 -176h-856l-92 -471h779l-35 -168h-776l-101 -523h879l-35 -186h-102q-68 -53 -108 -94.5t-40 -98.5q0 -66 84 -65q43 0 82 14h6l-27 -131q-40 -16 -102 -16q-117 0 -166 48t-49 118z" />
    <glyph glyph-name="eogonek" unicode="&#x119;" horiz-adv-x="1163" 
d="M414.5 887.5q-96.5 -95.5 -138.5 -248.5h627q25 154 -38 249t-208.5 95t-242 -95.5zM1096 693q0 -79 -15 -187h-827q-2 -16 -2 -20v-42q0 -156 74.5 -239.5t222.5 -83.5q102 0 183 48t120 146h186q-75 -213 -266 -297q-159 -66 -192 -120t-33 -91q0 -66 84 -65
q43 0 82 14h6l-27 -131q-40 -16 -102 -16q-117 0 -166 48t-49 139t119 175q-206 11 -317 142t-111 333q0 281 167.5 480.5t434.5 199.5q211 0 293.5 -94t108.5 -177t26 -162z" />
    <glyph glyph-name="Ecaron" unicode="&#x11a;" horiz-adv-x="1345" 
d="M1018 1608h-207l-156 231h189l84 -127h4l137 127h197zM358 1524h1063l-35 -176h-856l-92 -471h779l-35 -168h-776l-101 -523h879l-35 -186h-1088z" />
    <glyph glyph-name="ecaron" unicode="&#x11b;" horiz-adv-x="1163" 
d="M440 1534h178l82 -156h5l135 156h196l-241 -254h-207zM414.5 887.5q-96.5 -95.5 -138.5 -248.5h627q25 154 -38 249t-208.5 95t-242 -95.5zM1096 693q0 -79 -15 -187h-827q-2 -16 -2 -20v-42q0 -156 74.5 -239.5t222.5 -83.5q102 0 183 48t120 146h186
q-59 -172 -194 -259t-305 -87q-227 0 -350 133.5t-123 343.5q0 281 167.5 480.5t434.5 199.5q211 0 293.5 -94t108.5 -177t26 -162z" />
    <glyph glyph-name="Gcircumflex" unicode="&#x11c;" horiz-adv-x="1579" 
d="M926 1839h207l155 -231h-188l-84 127h-4l-138 -127h-196zM131 614q0 211 74 399.5t213 321.5q221 221 549 221q261 0 413 -129.5t164 -341.5h-215q-10 133 -101.5 214t-263.5 81q-305 0 -462.5 -233.5t-157.5 -523.5q0 -236 113.5 -359t314.5 -123t333.5 122t162.5 319
l8 49h-436l32 174h637l-155 -805h-133l-11 205h-4q-172 -238 -470 -238t-466 201q-139 176 -139 446z" />
    <glyph glyph-name="gcircumflex" unicode="&#x11d;" horiz-adv-x="1185" 
d="M637 1540h209l145 -252h-178l-82 156h-4l-135 -156h-195zM506 197q116 0 187 47t139.5 153.5t68.5 292.5q0 129 -70.5 206t-223.5 77t-247 -147t-94 -343q0 -129 62 -207.5t178 -78.5zM807 217q-143 -168 -323 -168q-188 0 -296 125t-108 320q0 273 114.5 405.5
t212 179.5t205.5 47q243 0 334 -204l35 180h182l-215 -1096q-45 -211 -172 -302t-328 -91t-316.5 86t-123.5 223h178q10 -74 74 -121t193 -47t209.5 67.5t103.5 190.5l12 76l31 129h-2z" />
    <glyph glyph-name="Gbreve" unicode="&#x11e;" horiz-adv-x="1579" 
d="M1198 1670q-77 -73 -195 -73t-190.5 72.5t-62.5 190.5h129q9 -125 130 -125t156 125h135q-25 -117 -102 -190zM131 614q0 211 74 399.5t213 321.5q221 221 549 221q261 0 413 -129.5t164 -341.5h-215q-10 133 -101.5 214t-263.5 81q-305 0 -462.5 -233.5t-157.5 -523.5
q0 -236 113.5 -359t314.5 -123t333.5 122t162.5 319l8 49h-436l32 174h637l-155 -805h-133l-11 205h-4q-172 -238 -470 -238t-466 201q-139 176 -139 446z" />
    <glyph glyph-name="gbreve" unicode="&#x11f;" horiz-adv-x="1185" 
d="M907.5 1342.5q-77.5 -72.5 -195.5 -72.5t-189.5 71t-63.5 191h129q9 -125 127 -125q63 0 103 34t56 91h136q-25 -117 -102.5 -189.5zM506 197q116 0 187 47t139.5 153.5t68.5 292.5q0 129 -70.5 206t-223.5 77t-247 -147t-94 -343q0 -129 62 -207.5t178 -78.5zM807 217
q-143 -168 -323 -168q-188 0 -296 125t-108 320q0 273 114.5 405.5t212 179.5t205.5 47q243 0 334 -204l35 180h182l-215 -1096q-45 -211 -172 -302t-328 -91t-316.5 86t-123.5 223h178q10 -74 74 -121t193 -47t209.5 67.5t103.5 190.5l12 76l31 129h-2z" />
    <glyph glyph-name="Gdotaccent" unicode="&#x120;" horiz-adv-x="1579" 
d="M932 1829h194l-43 -221h-194zM131 614q0 211 74 399.5t213 321.5q221 221 549 221q261 0 413 -129.5t164 -341.5h-215q-10 133 -101.5 214t-263.5 81q-305 0 -462.5 -233.5t-157.5 -523.5q0 -236 113.5 -359t314.5 -123t333.5 122t162.5 319l8 49h-436l32 174h637
l-155 -805h-133l-11 205h-4q-172 -238 -470 -238t-466 201q-139 176 -139 446z" />
    <glyph glyph-name="gdotaccent" unicode="&#x121;" horiz-adv-x="1185" 
d="M651 1524h195l-43 -221h-195zM506 197q116 0 187 47t139.5 153.5t68.5 292.5q0 129 -70.5 206t-223.5 77t-247 -147t-94 -343q0 -129 62 -207.5t178 -78.5zM807 217q-143 -168 -323 -168q-188 0 -296 125t-108 320q0 273 114.5 405.5t212 179.5t205.5 47q243 0 334 -204
l35 180h182l-215 -1096q-45 -211 -172 -302t-328 -91t-316.5 86t-123.5 223h178q10 -74 74 -121t193 -47t209.5 67.5t103.5 190.5l12 76l31 129h-2z" />
    <glyph glyph-name="uni0122" unicode="&#x122;" horiz-adv-x="1579" 
d="M786 -301q-20 -104 -85.5 -150.5t-174.5 -50.5l17 88q59 8 92 34t43 79h-109l39 197h217zM131 614q0 211 74 399.5t213 321.5q221 221 549 221q261 0 413 -129.5t164 -341.5h-215q-10 133 -101.5 214t-263.5 81q-305 0 -462.5 -233.5t-157.5 -523.5q0 -236 113.5 -359
t314.5 -123t333.5 122t162.5 319l8 49h-436l32 174h637l-155 -805h-133l-11 205h-4q-172 -238 -470 -238t-466 201q-139 176 -139 446z" />
    <glyph glyph-name="uni0123" unicode="&#x123;" horiz-adv-x="1185" 
d="M629 1499q20 104 85.5 150.5t174.5 50.5l-17 -88q-59 -8 -91.5 -34t-43.5 -79h109l-39 -196h-217zM506 197q116 0 187 47t139.5 153.5t68.5 292.5q0 129 -70.5 206t-223.5 77t-247 -147t-94 -343q0 -129 62 -207.5t178 -78.5zM807 217q-143 -168 -323 -168
q-188 0 -296 125t-108 320q0 273 114.5 405.5t212 179.5t205.5 47q243 0 334 -204l35 180h182l-215 -1096q-45 -211 -172 -302t-328 -91t-316.5 86t-123.5 223h178q10 -74 74 -121t193 -47t209.5 67.5t103.5 190.5l12 76l31 129h-2z" />
    <glyph glyph-name="Hcircumflex" unicode="&#x124;" horiz-adv-x="1501" 
d="M901 1839h207l156 -231h-189l-84 127h-4l-137 -127h-197zM352 1524h207l-125 -643h772l125 643h207l-297 -1524h-207l140 715h-773l-139 -715h-207z" />
    <glyph glyph-name="hcircumflex" unicode="&#x125;" horiz-adv-x="1159" 
d="M743 1839h207l156 -231h-188l-84 127h-5l-137 -127h-196zM744 1126q182 0 274 -104.5t55 -282.5l-147 -739h-187l146 735q48 236 -194 236q-122 0 -216 -73t-121 -204l-135 -694h-186l297 1524h186l-80 -418l-39 -166h6q61 90 153 138t188 48z" />
    <glyph glyph-name="Hbar" unicode="&#x126;" horiz-adv-x="1501" 
d="M434 881h772l43 227h-772zM150 1253h149l53 271h207l-53 -271h772l53 271h207l-53 -271h153l-30 -145h-152l-215 -1108h-207l140 715h-773l-139 -715h-207l215 1108h-151z" />
    <glyph glyph-name="hbar" unicode="&#x127;" horiz-adv-x="1159" 
d="M744 1126q182 0 274 -104.5t55 -282.5l-147 -739h-187l146 735q48 236 -194 236q-122 0 -216 -73t-121 -204l-135 -694h-186l241 1247h-143l25 125h143l31 152h186l-31 -152h310l-25 -125h-307l-27 -141l-39 -166h6q61 90 153 138t188 48z" />
    <glyph glyph-name="Itilde" unicode="&#x128;" horiz-adv-x="530" 
d="M374 1694q-22 0 -40.5 -20.5t-22.5 -61.5h-131q10 111 63.5 165t120.5 54t120 -28.5t79.5 -42t54.5 -13.5q57 0 64 80h133q-10 -106 -60 -161.5t-123 -55.5t-127 28.5t-81.5 42t-49.5 13.5zM356 1524h209l-297 -1524h-209z" />
    <glyph glyph-name="itilde" unicode="&#x129;" horiz-adv-x="458" 
d="M276 1376q-22 0 -40.5 -20.5t-22.5 -61.5h-131q10 111 63.5 165t122.5 54t119.5 -28.5t77.5 -41.5t55 -13q57 0 64 79h133q-10 -106 -60.5 -161.5t-121.5 -55.5t-127 29t-83 42t-49 13zM248 1100h186l-213 -1100h-188z" />
    <glyph glyph-name="Imacron" unicode="&#x12a;" horiz-adv-x="530" 
d="M262 1778h494l-31 -150h-494zM356 1524h209l-297 -1524h-209z" />
    <glyph glyph-name="imacron" unicode="&#x12b;" horiz-adv-x="458" 
d="M203 1468h418l-29 -149h-418zM248 1100h186l-213 -1100h-188z" />
    <glyph glyph-name="Iogonek" unicode="&#x12e;" horiz-adv-x="530" 
d="M-66 -225q0 136 166 225h-41l297 1524h209l-297 -1524q-58 -28 -110 -82t-52 -111q0 -66 84 -65q43 0 82 14h7l-27 -131q-40 -16 -102 -16q-117 0 -166.5 48t-49.5 118z" />
    <glyph glyph-name="iogonek" unicode="&#x12f;" horiz-adv-x="458" 
d="M326 1524h194l-43 -221h-194zM-113 -225q0 136 166 225h-20l215 1100h186l-215 -1100q-101 -49 -130.5 -105.5t-29.5 -87.5q0 -66 84 -65q43 0 82 14h6l-26 -131q-40 -16 -103 -16q-117 0 -166 48t-49 118z" />
    <glyph glyph-name="Idotaccent" unicode="&#x130;" horiz-adv-x="530" 
d="M422 1829h194l-43 -221h-194zM356 1524h209l-297 -1524h-209z" />
    <glyph glyph-name="dotlessi" unicode="&#x131;" horiz-adv-x="458" 
d="M248 1100h186l-213 -1100h-188z" />
    <glyph glyph-name="IJ" unicode="&#x132;" horiz-adv-x="1558" 
d="M930 139q113 0 174 65.5t88 198.5l217 1121h209l-227 -1162q-33 -183 -146 -282q-116 -111 -326 -111t-325.5 121t-69.5 377l8 39h203l-8 -41q-48 -264 48.5 -295t154.5 -31zM356 1524h209l-297 -1524h-209z" />
    <glyph glyph-name="ij" unicode="&#x133;" horiz-adv-x="917" 
d="M326 1524h194l-43 -221h-194zM784 1524h195l-43 -221h-195zM248 1100h186l-215 -1100h-186zM362 -193q94 0 113 107l232 1186h186l-234 -1196q-43 -214 -143.5 -233t-150.5 -19t-107 10l31 152h4q28 -7 69 -7z" />
    <glyph glyph-name="Jcircumflex" unicode="&#x134;" horiz-adv-x="1095" 
d="M995 1839h207l156 -231h-189l-84 127h-4l-137 -127h-196zM467 139q113 0 174 65.5t88 198.5l217 1121h209l-227 -1162q-33 -183 -146 -282q-116 -111 -326 -111t-325.5 121t-69.5 377l9 39h202l-8 -41q-48 -264 49 -295t154 -31z" />
    <glyph glyph-name="jcircumflex" unicode="&#x135;" horiz-adv-x="458" 
d="M305 1540h209l145 -252h-178l-82 156h-4l-135 -156h-194zM-97 -193q94 0 113 107l232 1186h186l-233 -1196q-43 -213 -143.5 -232.5t-150.5 -19.5t-108 10l31 152h4q28 -7 69 -7z" />
    <glyph glyph-name="uni0136" unicode="&#x136;" horiz-adv-x="1382" 
d="M711 -301q-20 -104 -86 -150.5t-174 -50.5l16 88q59 8 92 34t43 79h-108l38 197h218zM645 776l-276 -229l-105 -547h-209l297 1524h209l-92 -471q-34 -155 -63 -273l864 746h262l-735 -627l483 -899h-223z" />
    <glyph glyph-name="uni0137" unicode="&#x137;" horiz-adv-x="1097" 
d="M510 -301q-20 -104 -86 -150.5t-174 -50.5l16 88q59 8 92 34t43 79h-108l39 197h217zM330 1524h184l-131 -672l-51 -223l557 471h237l-503 -416l335 -684h-200l-275 573l-182 -143l-84 -430h-184z" />
    <glyph glyph-name="Lacute" unicode="&#x139;" horiz-adv-x="1206" 
d="M524 1864h234l-217 -256h-162zM352 1524h209l-262 -1338h774l-37 -186h-981z" />
    <glyph glyph-name="lacute" unicode="&#x13a;" horiz-adv-x="468" 
d="M508 1864h233l-217 -256h-162zM336 1524h186l-297 -1524h-186z" />
    <glyph glyph-name="uni013B" unicode="&#x13b;" horiz-adv-x="1206" 
d="M608 -301q-20 -104 -85.5 -150.5t-174.5 -50.5l17 88q59 8 91.5 34t43.5 79h-109l39 197h217zM352 1524h209l-262 -1338h774l-37 -186h-981z" />
    <glyph glyph-name="uni013C" unicode="&#x13c;" horiz-adv-x="468" 
d="M184 -301q-20 -104 -85.5 -150.5t-174.5 -50.5l17 88q59 8 92 34t43 79h-109l39 197h217zM336 1524h186l-297 -1524h-186z" />
    <glyph glyph-name="Lcaron" unicode="&#x13d;" horiz-adv-x="1206" 
d="M1051 1315q-38 -198 -252 -207l18 92q55 8 83 35t38 80h-94l41 209h207zM352 1524h209l-262 -1338h774l-37 -186h-981z" />
    <glyph glyph-name="lcaron" unicode="&#x13e;" horiz-adv-x="468" 
d="M799 1341q-18 -98 -85 -147t-159 -53l16 90q53 8 81 32.5t38 77.5h-92l35 183h201zM336 1524h186l-297 -1524h-186z" />
    <glyph glyph-name="Ldot" unicode="&#x13f;" horiz-adv-x="1206" 
d="M838 846h219l-43 -225h-221zM352 1524h209l-262 -1338h774l-37 -186h-981z" />
    <glyph glyph-name="ldot" unicode="&#x140;" horiz-adv-x="702" 
d="M532 846h220l-43 -225h-222zM336 1524h186l-297 -1524h-186z" />
    <glyph glyph-name="Lslash" unicode="&#x141;" horiz-adv-x="1206" 
d="M27 616l163 72l164 836h207l-143 -738l557 242l-35 -172l-557 -242l-82 -428h772l-35 -186h-981l101 516l-164 -70z" />
    <glyph glyph-name="lslash" unicode="&#x142;" horiz-adv-x="538" 
d="M37 684l192 121l142 719h186l-115 -588l207 129l-33 -172l-208 -131l-148 -762h-186l123 631l-191 -119z" />
    <glyph glyph-name="Nacute" unicode="&#x143;" horiz-adv-x="1495" 
d="M1028 1864h234l-218 -256h-161zM352 1524h219l418 -977q38 -89 66 -172q28 -82 47 -137h4q17 168 49 331l184 955h193l-297 -1524h-209l-424 979q-40 86 -115 303h-4q-20 -199 -47 -330l-186 -952h-195z" />
    <glyph glyph-name="nacute" unicode="&#x144;" horiz-adv-x="1159" 
d="M766 1577h233l-227 -297h-162zM744 1126q183 0 274.5 -106t54.5 -283l-147 -737h-187l146 733q23 113 -24.5 175.5t-169.5 62.5t-216 -74t-121 -205l-135 -692h-186l215 1100h184l-35 -164h4q61 88 154 139t189 51z" />
    <glyph glyph-name="uni0145" unicode="&#x145;" horiz-adv-x="1495" 
d="M709 -301q-20 -104 -86 -150.5t-174 -50.5l16 88q59 8 92 34t43 79h-108l38 197h218zM352 1524h219l418 -977q38 -89 66 -172q28 -82 47 -137h4q17 168 49 331l184 955h193l-297 -1524h-209l-424 979q-40 86 -115 303h-4q-20 -199 -47 -330l-186 -952h-195z" />
    <glyph glyph-name="uni0146" unicode="&#x146;" horiz-adv-x="1159" 
d="M547 -301q-20 -104 -86 -150.5t-174 -50.5l16 88q59 8 92 34t43 79h-108l39 197h217zM744 1126q183 0 274.5 -106t54.5 -283l-147 -737h-187l146 733q23 113 -24.5 175.5t-169.5 62.5t-216 -74t-121 -205l-135 -692h-186l215 1100h184l-35 -164h4q61 88 154 139t189 51z
" />
    <glyph glyph-name="Ncaron" unicode="&#x147;" horiz-adv-x="1495" 
d="M1077 1608h-207l-155 231h188l84 -127h4l137 127h197zM352 1524h219l418 -977q38 -89 66 -172q28 -82 47 -137h4q17 168 49 331l184 955h193l-297 -1524h-209l-424 979q-40 86 -115 303h-4q-20 -199 -47 -330l-186 -952h-195z" />
    <glyph glyph-name="ncaron" unicode="&#x148;" horiz-adv-x="1159" 
d="M457 1534h178l82 -156h4l135 156h197l-242 -254h-207zM744 1126q183 0 274.5 -106t54.5 -283l-147 -737h-187l146 733q23 113 -24.5 175.5t-169.5 62.5t-216 -74t-121 -205l-135 -692h-186l215 1100h184l-35 -164h4q61 88 154 139t189 51z" />
    <glyph glyph-name="napostrophe" unicode="&#x149;" horiz-adv-x="1159" 
d="M272 1341q-18 -98 -84.5 -147t-158.5 -53l16 90q53 8 81 32.5t38 77.5h-92l34 183h201zM744 1126q183 0 274.5 -106t54.5 -283l-147 -737h-187l146 733q23 113 -24.5 175.5t-169.5 62.5t-216 -74t-121 -205l-135 -692h-186l215 1100h184l-35 -164h4q61 88 154 139t189 51
z" />
    <glyph glyph-name="Omacron" unicode="&#x14c;" horiz-adv-x="1665" 
d="M733 1778h576l-31 -150h-576zM834 143q128 0 239 61.5t226.5 217t115.5 455.5q0 235 -127 368t-344 133q-141 0 -252.5 -62.5t-188.5 -163.5t-117 -233.5t-40 -258.5t32 -219t92 -158.5t148 -102.5t216 -37zM825 -33q-329 0 -511.5 186.5t-182.5 497.5q0 178 58.5 341
t167 289t261 200.5t326.5 74.5q326 0 505 -189.5t179 -485.5q0 -182 -56 -347t-161.5 -291t-258.5 -201t-327 -75z" />
    <glyph glyph-name="omacron" unicode="&#x14d;" horiz-adv-x="1200" 
d="M481 1501h553l-28 -149h-553zM543 121q185 0 296 159t111 367q0 145 -71 237.5t-217 92.5q-182 0 -294 -160.5t-112 -370.5q0 -141 70 -233t217 -92zM541 -31q-226 0 -349.5 136t-123.5 350q0 273 125.5 417t236.5 199t235 55q234 0 355 -137t121 -348q0 -277 -126 -420
t-238 -197.5t-236 -54.5z" />
    <glyph glyph-name="Obreve" unicode="&#x14e;" horiz-adv-x="1665" 
d="M1200.5 1670q-77.5 -73 -195.5 -73t-189.5 71.5t-63.5 191.5h129q9 -125 130 -125t156 125h136q-25 -117 -102.5 -190zM834 143q128 0 239 61.5t226.5 217t115.5 455.5q0 235 -127 368t-344 133q-141 0 -252.5 -62.5t-188.5 -163.5t-117 -233.5t-40 -258.5t32 -219
t92 -158.5t148 -102.5t216 -37zM825 -33q-329 0 -511.5 186.5t-182.5 497.5q0 178 58.5 341t167 289t261 200.5t326.5 74.5q326 0 505 -189.5t179 -485.5q0 -182 -56 -347t-161.5 -291t-258.5 -201t-327 -75z" />
    <glyph glyph-name="obreve" unicode="&#x14f;" horiz-adv-x="1200" 
d="M921.5 1342.5q-77.5 -72.5 -195.5 -72.5t-189.5 71.5t-63.5 190.5h129q9 -125 129 -125t158 125h135q-25 -117 -102.5 -189.5zM543 121q185 0 296 159t111 367q0 145 -71 237.5t-217 92.5q-182 0 -294 -160.5t-112 -370.5q0 -141 70 -233t217 -92zM541 -31
q-226 0 -349.5 136t-123.5 350q0 273 125.5 417t236.5 199t235 55q234 0 355 -137t121 -348q0 -277 -126 -420t-238 -197.5t-236 -54.5z" />
    <glyph glyph-name="Ohungarumlaut" unicode="&#x150;" horiz-adv-x="1665" 
d="M860 1864h187l-150 -256h-139zM1149 1864h186l-149 -256h-139zM834 143q128 0 239 61.5t226.5 217t115.5 455.5q0 235 -127 368t-344 133q-141 0 -252.5 -62.5t-188.5 -163.5t-117 -233.5t-40 -258.5t32 -219t92 -158.5t148 -102.5t216 -37zM825 -33q-329 0 -511.5 186.5
t-182.5 497.5q0 178 58.5 341t167 289t261 200.5t326.5 74.5q326 0 505 -189.5t179 -485.5q0 -182 -56 -347t-161.5 -291t-258.5 -201t-327 -75z" />
    <glyph glyph-name="ohungarumlaut" unicode="&#x151;" horiz-adv-x="1200" 
d="M592 1577h186l-162 -297h-139zM881 1577h186l-162 -297h-139zM543 121q185 0 296 159t111 367q0 145 -71 237.5t-217 92.5q-182 0 -294 -160.5t-112 -370.5q0 -141 70 -233t217 -92zM541 -31q-226 0 -349.5 136t-123.5 350q0 273 125.5 417t236.5 199t235 55
q234 0 355 -137t121 -348q0 -277 -126 -420t-238 -197.5t-236 -54.5z" />
    <glyph glyph-name="OE" unicode="&#x152;" horiz-adv-x="2297" 
d="M344 637q0 -217 101 -358.5t300 -141.5q158 0 273.5 77.5t138.5 201.5l115 592q27 168 -72.5 272t-269.5 104q-258 0 -422 -212t-164 -535zM719 -33q-278 0 -434 188.5t-156 477.5q0 190 60.5 359t168 294t256 197.5t324.5 72.5q286 0 401 -223l37 191h998l-35 -176h-799
l-92 -471h717l-33 -168h-717l-100 -523h821l-35 -186h-1018l25 131q-164 -164 -389 -164z" />
    <glyph glyph-name="oe" unicode="&#x153;" horiz-adv-x="2011" 
d="M1474 983q-107 0 -203 -98t-134 -246h614q39 242 -65.5 293t-211.5 51zM537 121q178 0 289.5 158.5t111.5 367.5q0 145 -71 237.5t-212 92.5q-175 0 -287 -160.5t-112 -370.5q0 -141 69 -233t212 -92zM546 -31q-234 0 -356 136.5t-122 349.5q0 273 174 472t440 199
q142 0 239 -70.5t144 -187.5q74 117 188.5 187.5t243.5 70.5q231 0 339 -125.5t108 -326.5q0 -80 -17 -168h-813q-2 -16 -2 -20v-42q0 -156 74 -239.5t217 -83.5q98 0 178 48t119 146h186q-61 -168 -191 -257t-298 -89t-267.5 71t-144.5 187q-76 -117 -192.5 -187.5
t-246.5 -70.5z" />
    <glyph glyph-name="Racute" unicode="&#x154;" horiz-adv-x="1402" 
d="M915 1864h234l-217 -256h-162zM803 801q186 0 276 87t90 230q4 234 -262 234h-381l-106 -551h383zM1030 401q0 127 -65.5 182.5t-206.5 55.5h-371l-123 -639h-209l297 1524h590q198 0 319 -105t118 -272q-3 -166 -86 -277.5t-267 -156.5v-6q104 -33 156.5 -101.5
t52.5 -189.5l-14 -279q0 -92 26 -121l-2 -16h-209q-24 25 -24 92t9 147t9 162z" />
    <glyph glyph-name="racute" unicode="&#x155;" horiz-adv-x="747" 
d="M618 1577h234l-227 -297h-162zM725 1112q49 0 70 -8l-23 -182h-8q-42 12 -76 12q-123 0 -219 -80t-129 -244l-121 -610h-186l215 1100h182l-39 -195h6q123 207 328 207z" />
    <glyph glyph-name="uni0156" unicode="&#x156;" horiz-adv-x="1402" 
d="M702 -301q-20 -104 -85.5 -150.5t-174.5 -50.5l17 88q59 8 92 34t43 79h-109l39 197h217zM803 801q186 0 276 87t90 230q4 234 -262 234h-381l-106 -551h383zM1030 401q0 127 -65.5 182.5t-206.5 55.5h-371l-123 -639h-209l297 1524h590q198 0 319 -105t118 -272
q-3 -166 -86 -277.5t-267 -156.5v-6q104 -33 156.5 -101.5t52.5 -189.5l-14 -279q0 -92 26 -121l-2 -16h-209q-24 25 -24 92t9 147t9 162z" />
    <glyph glyph-name="uni0157" unicode="&#x157;" horiz-adv-x="747" 
d="M184 -301q-20 -104 -85.5 -150.5t-174.5 -50.5l17 88q59 8 92 34t43 79h-109l39 197h217zM725 1112q49 0 70 -8l-23 -182h-8q-42 12 -76 12q-123 0 -219 -80t-129 -244l-121 -610h-186l215 1100h182l-39 -195h6q123 207 328 207z" />
    <glyph glyph-name="Rcaron" unicode="&#x158;" horiz-adv-x="1402" 
d="M965 1608h-207l-156 231h189l83 -127h5l137 127h196zM803 801q186 0 276 87t90 230q4 234 -262 234h-381l-106 -551h383zM1030 401q0 127 -65.5 182.5t-206.5 55.5h-371l-123 -639h-209l297 1524h590q198 0 319 -105t118 -272q-3 -166 -86 -277.5t-267 -156.5v-6
q104 -33 156.5 -101.5t52.5 -189.5l-14 -279q0 -92 26 -121l-2 -16h-209q-24 25 -24 92t9 147t9 162z" />
    <glyph glyph-name="rcaron" unicode="&#x159;" horiz-adv-x="747" 
d="M303 1534h178l82 -156h4l135 156h197l-242 -254h-206zM725 1112q49 0 70 -8l-23 -182h-8q-42 12 -76 12q-123 0 -219 -80t-129 -244l-121 -610h-186l215 1100h182l-39 -195h6q123 207 328 207z" />
    <glyph glyph-name="Sacute" unicode="&#x15a;" horiz-adv-x="1355" 
d="M872 1864h234l-217 -256h-162zM696 129q160 0 251 76t91 197t-81.5 181.5t-293.5 139.5t-280 140t-98.5 126.5t-30.5 156.5q0 181 134.5 294.5t382.5 113.5q249 0 388 -126.5t152 -325.5h-197q-10 127 -101 211t-245 84t-232.5 -64.5t-78.5 -167.5t68.5 -157.5
t212.5 -107.5q144 -54 230.5 -93t184.5 -120.5t98 -274.5t-154.5 -319t-420.5 -126q-291 0 -454 151t-167 376h207q10 -172 116.5 -268.5t317.5 -96.5z" />
    <glyph glyph-name="sacute" unicode="&#x15b;" horiz-adv-x="1071" 
d="M676 1577h233l-227 -297h-162zM509 119q128 0 184.5 55t56.5 126t-59 113t-163 75t-236.5 84t-137.5 237q-4 138 107 227.5t311 89.5t305.5 -90t109.5 -231h-188q-4 178 -240 178q-115 0 -165 -42t-50 -111.5t65 -105.5t163 -68t231.5 -87.5t138.5 -253.5
q0 -157 -120 -250.5t-330 -93.5q-221 0 -338.5 96.5t-130.5 268.5h190q10 -121 89 -169t207 -48z" />
    <glyph glyph-name="Scircumflex" unicode="&#x15c;" horiz-adv-x="1355" 
d="M752 1839h206l156 -231h-188l-84 127h-4l-138 -127h-196zM696 129q160 0 251 76t91 197t-81.5 181.5t-293.5 139.5t-280 140t-98.5 126.5t-30.5 156.5q0 181 134.5 294.5t382.5 113.5q249 0 388 -126.5t152 -325.5h-197q-10 127 -101 211t-245 84t-232.5 -64.5
t-78.5 -167.5t68.5 -157.5t212.5 -107.5q144 -54 230.5 -93t184.5 -120.5t98 -274.5t-154.5 -319t-420.5 -126q-291 0 -454 151t-167 376h207q10 -172 116.5 -268.5t317.5 -96.5z" />
    <glyph glyph-name="scircumflex" unicode="&#x15d;" horiz-adv-x="1071" 
d="M549 1540h209l145 -252h-178l-82 156h-4l-135 -156h-195zM509 119q128 0 184.5 55t56.5 126t-59 113t-163 75t-236.5 84t-137.5 237q-4 138 107 227.5t311 89.5t305.5 -90t109.5 -231h-188q-4 178 -240 178q-115 0 -165 -42t-50 -111.5t65 -105.5t163 -68t231.5 -87.5
t138.5 -253.5q0 -157 -120 -250.5t-330 -93.5q-221 0 -338.5 96.5t-130.5 268.5h190q10 -121 89 -169t207 -48z" />
    <glyph glyph-name="Scedilla" unicode="&#x15e;" horiz-adv-x="1355" 
d="M588 -254q0 61 -86 61q-39 0 -86 -14l-23 51l142 136q-230 38 -353 177.5t-127 336.5h207q10 -172 116.5 -268.5t317.5 -96.5q160 0 251 76t91 197t-81.5 181.5t-293.5 139.5t-280 140t-98.5 126.5t-30.5 156.5q0 181 134.5 294.5t382.5 113.5q249 0 388 -126.5
t152 -325.5h-197q-10 127 -101 211t-245 84t-232.5 -64.5t-78.5 -167.5t68.5 -157.5t212.5 -107.5q144 -54 230.5 -93t184.5 -120.5t98 -274.5t-154 -319t-403 -126l-57 2l-109 -88l2 -4q125 16 162 -34t37 -96q0 -87 -70 -130t-166 -43q-150 0 -231 66l41 57
q64 -33 150 -33q135 0 135 82z" />
    <glyph glyph-name="scedilla" unicode="&#x15f;" horiz-adv-x="1071" 
d="M453 -254q0 61 -86 61q-39 0 -86 -14l-23 51l137 133q-186 23 -274 118t-98 241h190q10 -121 89 -169t207 -48t184.5 55t56.5 126t-59 113t-163 75t-236.5 84t-137.5 237q-4 138 107 227.5t311 89.5t305.5 -90t109.5 -231h-188q-4 178 -240 178q-115 0 -165 -42
t-50 -111.5t65 -105.5t163 -68t231.5 -87.5t138.5 -253.5q0 -236 -170 -290t-268 -54l-111 -90l2 -4q125 16 162 -34t37 -96q0 -87 -70 -130t-166 -43q-150 0 -231 66l41 57q64 -33 149 -33q136 0 136 82z" />
    <glyph glyph-name="Scaron" unicode="&#x160;" horiz-adv-x="1355" 
d="M920 1608h-207l-156 231h188l84 -127h5l137 127h196zM696 129q160 0 251 76t91 197t-81.5 181.5t-293.5 139.5t-280 140t-98.5 126.5t-30.5 156.5q0 181 134.5 294.5t382.5 113.5q249 0 388 -126.5t152 -325.5h-197q-10 127 -101 211t-245 84t-232.5 -64.5t-78.5 -167.5
t68.5 -157.5t212.5 -107.5q144 -54 230.5 -93t184.5 -120.5t98 -274.5t-154.5 -319t-420.5 -126q-291 0 -454 151t-167 376h207q10 -172 116.5 -268.5t317.5 -96.5z" />
    <glyph glyph-name="scaron" unicode="&#x161;" horiz-adv-x="1071" 
d="M367 1534h178l82 -156h4l135 156h197l-242 -254h-207zM509 119q128 0 184.5 55t56.5 126t-59 113t-163 75t-236.5 84t-137.5 237q-4 138 107 227.5t311 89.5t305.5 -90t109.5 -231h-188q-4 178 -240 178q-115 0 -165 -42t-50 -111.5t65 -105.5t163 -68t231.5 -87.5
t138.5 -253.5q0 -157 -120 -250.5t-330 -93.5q-221 0 -338.5 96.5t-130.5 268.5h190q10 -121 89 -169t207 -48z" />
    <glyph glyph-name="uni0162" unicode="&#x162;" horiz-adv-x="1325" 
d="M608 -301q-20 -104 -85.5 -150.5t-174.5 -50.5l17 88q59 8 91.5 34t43.5 79h-109l39 197h217zM262 1524h1188l-33 -176h-493l-262 -1348h-205l262 1348h-492z" />
    <glyph glyph-name="uni0163" unicode="&#x163;" horiz-adv-x="720" 
d="M362 -301q-20 -104 -85.5 -150.5t-174.5 -50.5l17 88q59 8 92 34t43 79h-109l39 197h217zM395 -6q-113 0 -176 63.5t-39 186.5l139 710h-169l28 146h170l68 348h184l-68 -348h205l-30 -146h-203l-135 -688q-22 -119 90 -119q51 0 90 11h6l-29 -154q-73 -10 -131 -10z" />
    <glyph glyph-name="Tcaron" unicode="&#x164;" horiz-adv-x="1325" 
d="M977 1608h-207l-156 231h189l84 -127h4l137 127h197zM262 1524h1188l-33 -176h-493l-262 -1348h-205l262 1348h-492z" />
    <glyph glyph-name="tcaron" unicode="&#x165;" horiz-adv-x="720" 
d="M920 1364q-37 -194 -244 -203l16 90q53 8 80 30t37 75h-92l33 168h200zM395 -6q-113 0 -176 63.5t-39 186.5l139 710h-169l28 146h170l68 348h184l-68 -348h205l-30 -146h-203l-135 -688q-22 -119 90 -119q51 0 90 11h6l-29 -154q-73 -10 -131 -10z" />
    <glyph glyph-name="Tbar" unicode="&#x166;" horiz-adv-x="1325" 
d="M262 1524h1188l-33 -176h-493l-90 -463h340l-33 -160h-338l-141 -725h-205l141 725h-336l33 160h334l90 463h-492z" />
    <glyph glyph-name="tbar" unicode="&#x167;" horiz-adv-x="720" 
d="M395 -6q-113 0 -176 63.5t-39 186.5l70 358h-166l27 139h165l43 213h-169l28 146h170l68 348h184l-68 -348h205l-30 -146h-203l-43 -213h219l-27 -139h-219l-65 -336q-22 -119 90 -119q51 0 90 11h6l-29 -154q-73 -10 -131 -10z" />
    <glyph glyph-name="Utilde" unicode="&#x168;" horiz-adv-x="1425" 
d="M823 1694q-23 0 -41 -20.5t-22 -61.5h-131q10 111 63 165t121 54t120 -28.5t78.5 -42t55.5 -13.5q57 0 63 80h134q-10 -106 -60.5 -161.5t-123.5 -55.5t-127 28.5t-80.5 42t-49.5 13.5zM668 150q184 0 284.5 81.5t134.5 268.5l201 1024h205l-207 -1057
q-51 -262 -208.5 -377t-416.5 -115t-414.5 143.5t-105.5 409.5l197 996h203l-193 -996q-37 -188 49.5 -283t270.5 -95z" />
    <glyph glyph-name="utilde" unicode="&#x169;" 
d="M614 1376q-23 0 -41 -20.5t-22 -61.5h-131q10 111 63.5 165t122.5 54t119.5 -28.5t77 -41.5t55.5 -13q57 0 64 79h133q-10 -106 -60.5 -161.5t-121.5 -55.5t-127 29t-82.5 42t-49.5 13zM745 158q-131 -185 -344 -185q-170 0 -253.5 104.5t-51.5 282.5l146 742h184
l-145 -740q-40 -233 134.5 -233t263.5 78.5t116 204.5l135 690h188l-217 -1102h-180l29 158h-5z" />
    <glyph glyph-name="Umacron" unicode="&#x16a;" horiz-adv-x="1425" 
d="M670 1778h575l-31 -150h-575zM668 150q184 0 284.5 81.5t134.5 268.5l201 1024h205l-207 -1057q-51 -262 -208.5 -377t-416.5 -115t-414.5 143.5t-105.5 409.5l197 996h203l-193 -996q-37 -188 49.5 -283t270.5 -95z" />
    <glyph glyph-name="umacron" unicode="&#x16b;" 
d="M479 1501h553l-28 -149h-553zM745 158q-131 -185 -344 -185q-170 0 -253.5 104.5t-51.5 282.5l146 742h184l-145 -740q-40 -233 134.5 -233t263.5 78.5t116 204.5l135 690h188l-217 -1102h-180l29 158h-5z" />
    <glyph glyph-name="Ubreve" unicode="&#x16c;" horiz-adv-x="1425" 
d="M1136.5 1670q-77.5 -73 -195.5 -73t-189.5 72t-63.5 191h129q9 -125 130 -125t157 125h135q-25 -117 -102.5 -190zM668 150q184 0 284.5 81.5t134.5 268.5l201 1024h205l-207 -1057q-51 -262 -208.5 -377t-416.5 -115t-414.5 143.5t-105.5 409.5l197 996h203l-193 -996
q-37 -188 49.5 -283t270.5 -95z" />
    <glyph glyph-name="ubreve" unicode="&#x16d;" 
d="M919.5 1342.5q-77.5 -72.5 -195.5 -72.5t-189.5 71.5t-63.5 190.5h129q9 -125 129 -125t158 125h135q-25 -117 -102.5 -189.5zM745 158q-131 -185 -344 -185q-170 0 -253.5 104.5t-51.5 282.5l146 742h184l-145 -740q-40 -233 134.5 -233t263.5 78.5t116 204.5l135 690
h188l-217 -1102h-180l29 158h-5z" />
    <glyph glyph-name="Uring" unicode="&#x16e;" horiz-adv-x="1425" 
d="M919 1595q50 0 81.5 34t31.5 86t-31.5 86t-81.5 34t-82 -34t-32 -86t32 -86t82 -34zM917.5 1511q-43.5 0 -81 15.5t-66.5 43t-45 65.5t-16 81t16 80t45 64.5t66.5 43t81 15.5t82 -15.5t67.5 -43t45 -64.5t16 -80t-16 -81t-45 -65.5t-67.5 -43t-82 -15.5zM668 150
q184 0 284.5 81.5t134.5 268.5l201 1024h205l-207 -1057q-51 -262 -208.5 -377t-416.5 -115t-414.5 143.5t-105.5 409.5l197 996h203l-193 -996q-37 -188 49.5 -283t270.5 -95z" />
    <glyph glyph-name="uring" unicode="&#x16f;" 
d="M701 1313q50 0 82 33.5t32 85.5t-31.5 86t-81.5 34t-82 -33.5t-32 -85.5t31.5 -86t81.5 -34zM700 1229q-43 0 -80.5 15.5t-66.5 43t-45 65.5t-16 81t16 79.5t45 64.5t66.5 43t80.5 15t82 -15t68 -43t45 -64.5t16 -79.5t-16 -81t-45 -65.5t-68 -43t-82 -15.5zM745 158
q-131 -185 -344 -185q-170 0 -253.5 104.5t-51.5 282.5l146 742h184l-145 -740q-40 -233 134.5 -233t263.5 78.5t116 204.5l135 690h188l-217 -1102h-180l29 158h-5z" />
    <glyph glyph-name="Uhungarumlaut" unicode="&#x170;" horiz-adv-x="1425" 
d="M797 1864h186l-149 -256h-140zM1085 1864h187l-150 -256h-139zM668 150q184 0 284.5 81.5t134.5 268.5l201 1024h205l-207 -1057q-51 -262 -208.5 -377t-416.5 -115t-414.5 143.5t-105.5 409.5l197 996h203l-193 -996q-37 -188 49.5 -283t270.5 -95z" />
    <glyph glyph-name="uhungarumlaut" unicode="&#x171;" 
d="M879 1577h186l-162 -297h-139zM590 1577h186l-162 -297h-139zM745 158q-131 -185 -344 -185q-170 0 -253.5 104.5t-51.5 282.5l146 742h184l-145 -740q-40 -233 134.5 -233t263.5 78.5t116 204.5l135 690h188l-217 -1102h-180l29 158h-5z" />
    <glyph glyph-name="Uogonek" unicode="&#x172;" horiz-adv-x="1425" 
d="M498 -225q0 119 127 202q-255 13 -394 157t-90 394l197 996h203l-193 -996q-37 -188 49.5 -283t270.5 -95t284.5 81.5t134.5 268.5l201 1024h205l-207 -1057q-41 -203 -139 -309.5t-238 -151.5q-102 -35 -170.5 -82t-68.5 -115t84 -67q43 0 82 14h6l-27 -131
q-40 -16 -102 -16q-117 0 -166 48t-49 118z" />
    <glyph glyph-name="uogonek" unicode="&#x173;" 
d="M741 -193q0 -66 84 -65q43 0 82 14h6l-26 -131q-40 -16 -103 -16q-117 0 -166 48t-49 118q0 136 166 225h-14l29 158h-5q-131 -185 -344 -185q-170 0 -253.5 104.5t-51.5 282.5l146 742h184l-145 -740q-40 -233 134.5 -233t263.5 78.5t116 204.5l135 690h188l-217 -1102
q-99 -52 -129.5 -107t-30.5 -86z" />
    <glyph glyph-name="Wcircumflex" unicode="&#x174;" horiz-adv-x="1947" 
d="M1110 1839h207l156 -231h-189l-84 127h-4l-137 -127h-197zM1333 369v-148h4q86 262 150 410l399 893h211l-711 -1524h-198l-55 987q-14 176 0 369h-5q-24 -66 -48 -128t-48 -126t-47 -115l-457 -987h-198l-92 1524h202l41 -893q5 -153 3 -244q-3 -90 -5 -166h4
q90 266 156 408l414 895h217l55 -895q8 -114 8 -260z" />
    <glyph glyph-name="wcircumflex" unicode="&#x175;" horiz-adv-x="1579" 
d="M858 1540h209l145 -252h-178l-82 156h-4l-135 -156h-195zM864 799v112h-4q-25 -57 -53 -124t-76 -179l-280 -608h-187l-127 1100h191l49 -611q4 -47 6 -102t4 -108t4 -111h4q36 106 127 317l285 615h180l35 -613q4 -45 5 -111t11 -210h4q69 202 127 321l297 613h199
l-563 -1100h-191l-41 606q-6 61 -6 193z" />
    <glyph glyph-name="Ycircumflex" unicode="&#x176;" horiz-adv-x="1370" 
d="M823 1839h207l156 -231h-189l-84 127h-4l-137 -127h-197zM600 639l-362 885h215l180 -459q16 -41 31.5 -91t30.5 -97t30 -99h4q131 203 199 287l362 459h236l-719 -887l-125 -637h-207z" />
    <glyph glyph-name="ycircumflex" unicode="&#x177;" horiz-adv-x="1052" 
d="M606 1540h209l146 -252h-179l-82 156h-4l-135 -156h-194zM73 -223q64 0 107 29.5t86 107.5q0 2 34 62.5t34 78.5l-205 1045h193l106 -600q25 -146 37 -307h6q78 183 137 290l338 617h205l-694 -1202q-134 -234 -225 -257.5t-167 -23.5t-133 29l33 153h8q36 -22 100 -22z
" />
    <glyph glyph-name="Ydieresis" unicode="&#x178;" horiz-adv-x="1370" 
d="M635 1827h184l-43 -219h-184zM1034 1827h187l-43 -219h-187zM600 639l-362 885h215l180 -459q16 -41 31.5 -91t30.5 -97t30 -99h4q131 203 199 287l362 459h236l-719 -887l-125 -637h-207z" />
    <glyph glyph-name="Zacute" unicode="&#x179;" horiz-adv-x="1349" 
d="M922 1864h233l-217 -256h-162zM879 1352h-580l33 172h1083l-31 -158l-901 -956q-102 -108 -243 -230v-6q196 8 282 8h666l-37 -182h-1169l38 190l908 957q54 61 219 209v6q-122 -10 -268 -10z" />
    <glyph glyph-name="zacute" unicode="&#x17a;" horiz-adv-x="1036" 
d="M717 1577h233l-227 -297h-162zM656 944h-447l31 156h809l-19 -113l-624 -663l-40 -40q-40 -40 -69 -67t-59 -57l-2 -8q215 10 221 10h430l-31 -162h-868l26 139l609 652q23 23 49 50t53 52t55 51v6q-117 -6 -124 -6z" />
    <glyph glyph-name="Zdotaccent" unicode="&#x17b;" horiz-adv-x="1349" 
d="M809 1829h195l-43 -221h-195zM879 1352h-580l33 172h1083l-31 -158l-901 -956q-102 -108 -243 -230v-6q196 8 282 8h666l-37 -182h-1169l38 190l908 957q54 61 219 209v6q-122 -10 -268 -10z" />
    <glyph glyph-name="zdotaccent" unicode="&#x17c;" horiz-adv-x="1036" 
d="M604 1524h195l-43 -221h-195zM656 944h-447l31 156h809l-19 -113l-624 -663l-40 -40q-40 -40 -69 -67t-59 -57l-2 -8q215 10 221 10h430l-31 -162h-868l26 139l609 652q23 23 49 50t53 52t55 51v6q-117 -6 -124 -6z" />
    <glyph glyph-name="Zcaron" unicode="&#x17d;" horiz-adv-x="1349" 
d="M971 1608h-207l-156 231h189l84 -127h4l137 127h197zM879 1352h-580l33 172h1083l-31 -158l-901 -956q-102 -108 -243 -230v-6q196 8 282 8h666l-37 -182h-1169l38 190l908 957q54 61 219 209v6q-122 -10 -268 -10z" />
    <glyph glyph-name="zcaron" unicode="&#x17e;" horiz-adv-x="1036" 
d="M408 1534h178l82 -156h4l135 156h197l-242 -254h-207zM656 944h-447l31 156h809l-19 -113l-624 -663l-40 -40q-40 -40 -69 -67t-59 -57l-2 -8q215 10 221 10h430l-31 -162h-868l26 139l609 652q23 23 49 50t53 52t55 51v6q-117 -6 -124 -6z" />
    <glyph glyph-name="florin" unicode="&#x192;" horiz-adv-x="800" 
d="M137 866h203l82 365q37 156 129 215q110 67 321 39l-22 -154q-121 12 -161 -8t-56.5 -49t-26.5 -72l-76 -336h248l-26 -139h-252l-181 -799q-31 -154 -125 -214t-270 -31l25 147q76 -8 122 13.5t64 105.5l174 778h-198z" />
    <glyph glyph-name="uni0218" unicode="&#x218;" horiz-adv-x="1355" 
d="M684 -301q-20 -104 -86 -150.5t-174 -50.5l16 88q59 8 92 34t43 79h-108l39 197h217zM696 129q160 0 251 76t91 197t-81.5 181.5t-293.5 139.5t-280 140t-98.5 126.5t-30.5 156.5q0 181 134.5 294.5t382.5 113.5q249 0 388 -126.5t152 -325.5h-197q-10 127 -101 211
t-245 84t-232.5 -64.5t-78.5 -167.5t68.5 -157.5t212.5 -107.5q144 -54 230.5 -93t184.5 -120.5t98 -274.5t-154.5 -319t-420.5 -126q-291 0 -454 151t-167 376h207q10 -172 116.5 -268.5t317.5 -96.5z" />
    <glyph glyph-name="uni0219" unicode="&#x219;" horiz-adv-x="1071" 
d="M481 -301q-20 -104 -85.5 -150.5t-174.5 -50.5l17 88q59 8 91.5 34t43.5 79h-109l39 197h217zM509 119q128 0 184.5 55t56.5 126t-59 113t-163 75t-236.5 84t-137.5 237q-4 138 107 227.5t311 89.5t305.5 -90t109.5 -231h-188q-4 178 -240 178q-115 0 -165 -42
t-50 -111.5t65 -105.5t163 -68t231.5 -87.5t138.5 -253.5q0 -157 -120 -250.5t-330 -93.5q-221 0 -338.5 96.5t-130.5 268.5h190q10 -121 89 -169t207 -48z" />
    <glyph glyph-name="uni021A" unicode="&#x21a;" horiz-adv-x="1325" 
d="M608 -301q-20 -104 -85.5 -150.5t-174.5 -50.5l17 88q59 8 91.5 34t43.5 79h-109l39 197h217zM262 1524h1188l-33 -176h-493l-262 -1348h-205l262 1348h-492z" />
    <glyph glyph-name="uni021B" unicode="&#x21b;" horiz-adv-x="720" 
d="M362 -301q-20 -104 -85.5 -150.5t-174.5 -50.5l17 88q59 8 92 34t43 79h-109l39 197h217zM395 -6q-113 0 -176 63.5t-39 186.5l139 710h-169l28 146h170l68 348h184l-68 -348h205l-30 -146h-203l-135 -688q-22 -119 90 -119q51 0 90 11h6l-29 -154q-73 -10 -131 -10z" />
    <glyph glyph-name="circumflex" unicode="&#x2c6;" horiz-adv-x="1089" 
d="M637 1540h209l145 -252h-178l-82 156h-4l-135 -156h-195z" />
    <glyph glyph-name="caron" unicode="&#x2c7;" horiz-adv-x="1089" 
d="M442 1534h179l81 -156h5l135 156h196l-241 -254h-207z" />
    <glyph glyph-name="uni02C9" unicode="&#x2c9;" horiz-adv-x="1089" 
d="M457 1501h553l-29 -149h-553z" />
    <glyph glyph-name="breve" unicode="&#x2d8;" horiz-adv-x="1089" 
d="M954.5 1342.5q-77.5 -72.5 -195.5 -72.5t-189.5 71.5t-63.5 190.5h129q9 -125 129 -125t158 125h135q-25 -117 -102.5 -189.5z" />
    <glyph glyph-name="dotaccent" unicode="&#x2d9;" horiz-adv-x="1089" 
d="M641 1524h195l-43 -221h-195z" />
    <glyph glyph-name="ring" unicode="&#x2da;" horiz-adv-x="1116" 
d="M734 1313q50 0 82 33.5t32 85.5t-32 86t-82 34t-81.5 -33.5t-31.5 -85.5t31.5 -86t81.5 -34zM733 1229q-43 0 -81 15.5t-66.5 43t-45 65.5t-16.5 81t16.5 79.5t45 64.5t66.5 43t81 15t82 -15t67.5 -43t45 -64.5t16.5 -79.5t-16.5 -81t-45 -65.5t-67.5 -43t-82 -15.5z" />
    <glyph glyph-name="ogonek" unicode="&#x2db;" horiz-adv-x="1089" 
d="M252 -225q0 139 166 225h153q-64 -50 -105.5 -93t-41.5 -100q0 -66 84 -65q43 0 82 14h6l-27 -131q-40 -16 -102 -16q-117 0 -166 48t-49 118z" />
    <glyph glyph-name="tilde" unicode="&#x2dc;" horiz-adv-x="1089" 
d="M590 1376q-22 0 -41 -20.5t-23 -61.5h-131q10 111 63.5 165t122.5 54t120 -28.5t77.5 -41.5t55.5 -13q57 0 63 79h133q-10 -106 -60 -161.5t-122 -55.5t-127 29t-82 42t-49 13z" />
    <glyph glyph-name="hungarumlaut" unicode="&#x2dd;" horiz-adv-x="1089" 
d="M557 1577h186l-161 -297h-140zM846 1577h186l-162 -297h-139z" />
    <glyph glyph-name="uni0394" unicode="&#x394;" horiz-adv-x="1429" 
d="M193 170h903l-170 864q-41 211 -47 332h-5q-20 -43 -44 -88t-52 -101.5t-65 -117.5zM-6 184l790 1340h244l275 -1354l-33 -170h-1311z" />
    <glyph glyph-name="uni03A9" unicode="&#x3a9;" horiz-adv-x="1552" 
d="M123 647q0 203 62.5 370t169 286.5t250 185t296.5 65.5q295 0 463 -176t168 -454t-106.5 -468t-274.5 -278v-4h250l-33 -174h-606l29 170q246 23 389 242t143 508q0 207 -111.5 330.5t-314.5 123.5q-246 0 -404.5 -204.5t-158.5 -528.5q0 -281 105.5 -368t183.5 -105
l-33 -168h-582l33 174h278v4q-196 146 -196 469z" />
    <glyph glyph-name="uni03BC" unicode="&#x3bc;" 
d="M752 158q-130 -183 -350 -183q-114 0 -175 62h-6q-2 -20 -6 -45t-9 -56.5t-13 -72.5l-46 -236h-188l289 1475h184l-145 -740q-43 -222 166 -233q129 -8 225.5 73.5t122.5 209.5l135 690h188l-217 -1102h-180l29 158h-4z" />
    <glyph glyph-name="pi" unicode="&#x3c0;" horiz-adv-x="1429" 
d="M193 170h903l-170 864q-41 211 -47 332h-5q-20 -43 -44 -88t-52 -101.5t-65 -117.5zM-6 184l790 1340h244l275 -1354l-33 -170h-1311z" />
    <glyph glyph-name="endash" unicode="&#x2013;" horiz-adv-x="1024" 
d="M117 623h827l-31 -160h-825z" />
    <glyph glyph-name="emdash" unicode="&#x2014;" horiz-adv-x="2048" 
d="M221 623h1643l-31 -160h-1640z" />
    <glyph glyph-name="quoteleft" unicode="&#x2018;" horiz-adv-x="411" 
d="M248 1272q37 192 125 223t133 35l-21 -94q-47 -12 -78.5 -47t-48.5 -119l-6 -29h94l-43 -219h-204z" />
    <glyph glyph-name="quoteright" unicode="&#x2019;" horiz-adv-x="411" 
d="M215 1112q49 10 80 45t47 119l6 31h-92l43 217h203l-47 -248q-37 -192 -125 -224t-133 -36z" />
    <glyph glyph-name="quotesinglbase" unicode="&#x201a;" horiz-adv-x="411" 
d="M-39 -195q49 10 81 45t48 121l4 29h-92l43 217h205l-49 -248q-38 -195 -125.5 -224.5t-132.5 -33.5z" />
    <glyph glyph-name="quotedblleft" unicode="&#x201c;" horiz-adv-x="755" 
d="M592 1272q37 192 125 223t133 35l-19 -94q-49 -12 -80.5 -47t-48.5 -119l-4 -29h93l-43 -219h-205zM248 1272q37 192 125 223t133 35l-21 -94q-47 -12 -78.5 -47t-48.5 -119l-6 -29h94l-43 -219h-204z" />
    <glyph glyph-name="quotedblright" unicode="&#x201d;" horiz-adv-x="755" 
d="M215 1112q49 10 80 45t47 119l6 31h-92l43 217h203l-47 -248q-37 -192 -125 -224t-133 -36zM559 1112q49 10 81 45t48 119l4 31h-92l43 217h205l-49 -248q-38 -194 -125.5 -225t-132.5 -35z" />
    <glyph glyph-name="quotedblbase" unicode="&#x201e;" horiz-adv-x="755" 
d="M-39 -195q49 10 81 45t48 121l4 29h-92l43 217h205l-49 -248q-38 -195 -125.5 -224.5t-132.5 -33.5zM305 -195q49 10 81 45t48 121l4 29h-92l43 217h205l-49 -248q-37 -192 -125 -223t-133 -35z" />
    <glyph glyph-name="dagger" unicode="&#x2020;" horiz-adv-x="1196" 
d="M207 1124h411l78 400h195l-78 -400h410l-31 -166h-412l-231 -1187h-193l230 1187h-412z" />
    <glyph glyph-name="daggerdbl" unicode="&#x2021;" horiz-adv-x="1196" 
d="M780 958l-121 -624h410l-31 -166h-411l-78 -397h-193l76 397h-412l33 166h412l121 624h-412l33 166h411l78 400h195l-78 -400h410l-31 -166h-412z" />
    <glyph glyph-name="bullet" unicode="&#x2022;" horiz-adv-x="694" 
d="M377 432q-53 0 -100.5 20.5t-82 55.5t-54 82t-19.5 100t19.5 101.5t54 84t82 56t100.5 20.5t99 -20.5t81 -56t55.5 -84t20.5 -101.5t-20.5 -100t-55.5 -82t-81 -55.5t-99 -20.5z" />
    <glyph glyph-name="ellipsis" unicode="&#x2026;" horiz-adv-x="1437" 
d="M1049 225h221l-43 -225h-221zM551 225h219l-43 -225h-221zM51 225h221l-45 -225h-219z" />
    <glyph glyph-name="perthousand" unicode="&#x2030;" horiz-adv-x="2588" 
d="M1962 303q0 -207 156 -207q102 0 163.5 115t61.5 276q0 94 -40.5 146.5t-104.5 52.5q-116 0 -176 -113t-60 -270zM1884 62.5q-84 95.5 -84 246.5q0 214 109 359t270 145t241.5 -94.5t80.5 -224.5t-29 -222t-111 -198.5t-238 -106.5q-155 0 -239 95.5zM1161 303
q0 -207 154 -207q102 0 163.5 115t61.5 276q0 94 -40 146.5t-104 52.5q-115 0 -175 -113t-60 -270zM997 309q0 209 110 356.5t270 147.5q161 0 242 -95.5t81 -224.5q0 -233 -110.5 -379.5t-269.5 -146.5t-241 96.5t-82 245.5zM330 985q0 -209 153 -209q103 0 164.5 116.5
t61.5 276.5q0 92 -39.5 144.5t-103.5 52.5q-115 0 -175.5 -110t-60.5 -271zM249.5 744q-83.5 97 -83.5 245q0 211 111 358.5t270 147.5q160 0 240.5 -96t80.5 -225q0 -130 -28.5 -222t-110.5 -198.5t-239 -106.5t-240.5 97zM1372 1458h146l-1024 -1458h-148z" />
    <glyph glyph-name="guilsinglleft" unicode="&#x2039;" horiz-adv-x="653" 
d="M152 483l41 199l389 301l-43 -215l-267 -199v-4l189 -205l-39 -194z" />
    <glyph glyph-name="guilsinglright" unicode="&#x203a;" horiz-adv-x="653" 
d="M133 381l266 199v4l-188 204l39 195l270 -317l-39 -201l-391 -299z" />
    <glyph glyph-name="fraction" unicode="&#x2044;" horiz-adv-x="387" 
d="M895 1524h180l-1569 -1790h-178z" />
    <glyph glyph-name="Euro" unicode="&#x20ac;" horiz-adv-x="1329" 
d="M892 1493q203 0 316.5 -118.5t130.5 -303.5h-190q-18 121 -80.5 192.5t-189.5 71.5q-217 0 -305.5 -159.5t-116.5 -249.5h430l-23 -115h-436q-16 -82 -20 -168h423l-22 -115h-403q8 -399 315 -399q150 0 232.5 89t133.5 245h189q-86 -353 -268 -423.5t-294 -70.5
q-224 0 -362.5 145t-146.5 414h-144l25 115h121q4 86 20 168h-110l24 115h113q122 404 326 485.5t312 81.5z" />
    <glyph glyph-name="uni2113" unicode="&#x2113;" horiz-adv-x="800" 
d="M702 1280q0 109 -86 109q-43 0 -71.5 -27t-42.5 -98l-117 -613q223 158 270 370t47 259zM633 1540q235 0 231 -254q-4 -247 -142.5 -466t-365.5 -318l-32 -162q-16 -92 4 -138t105 -46t163 30h6l-33 -157q-66 -33 -168 -33q-324 0 -266 334l19 104q-74 -33 -138 -51
l31 139q101 35 135 53l137 707q29 143 112 200.5t202 57.5z" />
    <glyph glyph-name="trademark" unicode="&#x2122;" horiz-adv-x="1757" 
d="M274 1524h635l-26 -127h-244l-127 -656h-152l127 656h-239zM1049 1524h208l35 -332q4 -39 6 -90.5t6 -103.5t7 -111h4q103 246 129 297l170 340h217l-154 -783h-137l55 287q21 109 42 201q22 91 36 155h-6q-27 -57 -51 -111t-54 -113.5t-59 -119.5l-149 -299h-142
l-30 299q-26 252 -29 344h-6q-11 -64 -21 -122t-19 -119.5t-20 -114.5l-57 -287h-135z" />
    <glyph glyph-name="Omega" unicode="&#x2126;" horiz-adv-x="1552" 
d="M123 647q0 203 62.5 370t169 286.5t250 185t296.5 65.5q295 0 463 -176t168 -454t-106.5 -468t-274.5 -278v-4h250l-33 -174h-606l29 170q246 23 389 242t143 508q0 207 -111.5 330.5t-314.5 123.5q-246 0 -404.5 -204.5t-158.5 -528.5q0 -281 105.5 -368t183.5 -105
l-33 -168h-582l33 174h278v4q-196 146 -196 469z" />
    <glyph glyph-name="estimated" unicode="&#x212e;" horiz-adv-x="1402" 
d="M715 1192q-209 0 -332 -127v-358h641v385q-100 100 -309 100zM735 76q186 0 288.5 81t154.5 224h106q-65 -286 -248.5 -345t-317.5 -59t-250 48.5t-237.5 181.5t-121.5 423q0 291 172 472.5t444 181.5q217 0 367 -121q115 -96 158.5 -233t41.5 -314h-909v-415
q125 -125 352 -125z" />
    <glyph glyph-name="partialdiff" unicode="&#x2202;" horiz-adv-x="1216" 
d="M911 519q0 145 -71.5 224.5t-218.5 79.5t-240.5 -111t-93.5 -290q0 -129 69.5 -212t217.5 -83t242.5 123.5t94.5 268.5zM1108 649q0 -297 -140 -488.5t-405 -191.5q-212 0 -340.5 128.5t-128.5 322.5q0 238 147 398.5t375 160.5q82 0 162 -31.5t131 -97.5
q-52 345 -244 422.5t-317 99.5v166q401 -52 540.5 -236t179.5 -341.5t40 -311.5z" />
    <glyph glyph-name="Delta" unicode="&#x2206;" horiz-adv-x="1429" 
d="M193 170h903l-170 864q-41 211 -47 332h-5q-20 -43 -44 -88t-52 -101.5t-65 -117.5zM-6 184l790 1340h244l275 -1354l-33 -170h-1311z" />
    <glyph glyph-name="product" unicode="&#x220f;" horiz-adv-x="1533" 
d="M1366 1524v-1737h-211v1552h-776v-1552h-211v1737h1198z" />
    <glyph glyph-name="summation" unicode="&#x2211;" horiz-adv-x="1372" 
d="M106 -213v203l601 682v4l-601 655v193h1145v-178h-899v-5l574 -618v-86l-588 -662v-4h934v-184h-1166z" />
    <glyph glyph-name="minus" unicode="&#x2212;" horiz-adv-x="1216" 
d="M174 768h963l-29 -145h-965z" />
    <glyph glyph-name="uni2215" unicode="&#x2215;" horiz-adv-x="387" 
d="M895 1524h180l-1569 -1790h-178z" />
    <glyph glyph-name="uni2219" unicode="&#x2219;" horiz-adv-x="475" 
d="M176 780h219l-43 -225h-221z" />
    <glyph glyph-name="radical" unicode="&#x221a;" horiz-adv-x="1316" 
d="M57 668h314l145 -381q62 -164 113 -355h4q32 145 92 353l373 1239h198l-544 -1737h-238l-276 702h-181v179z" />
    <glyph glyph-name="infinity" unicode="&#x221e;" horiz-adv-x="1523" 
d="M1274 649q0 84 -38 143.5t-117 59.5t-135 -61.5t-103 -143.5q63 -98 116 -150.5t127 -52.5t112 60.5t38 144.5zM405 852q-81 0 -118 -59.5t-37 -143.5t37 -144.5t121 -60.5q130 0 245 203q-47 82 -107 143.5t-141 61.5zM397 1018q211 0 371 -248q76 118 159.5 183
t196.5 65q149 0 237.5 -102t88.5 -267q0 -164 -88 -267t-246 -103t-236.5 99t-111.5 150q-77 -120 -164.5 -184.5t-206.5 -64.5q-153 0 -238 106t-85 263t85.5 263.5t237.5 106.5z" />
    <glyph glyph-name="integral" unicode="&#x222b;" horiz-adv-x="718" 
d="M104 -221q145 0 146 149v1313q0 293 305 293q90 0 156 -18v-160h-6q-48 18 -119 18q-145 0 -146 -149v-1315q0 -291 -305 -291q-98 0 -155 21v159h6q53 -20 118 -20z" />
    <glyph glyph-name="approxequal" unicode="&#x2248;" horiz-adv-x="1210" 
d="M854 512q94 0 113 98h145q-16 -113 -81.5 -180.5t-165.5 -67.5t-228.5 29t-190 42t-106.5 13q-88 0 -107 -100h-143q18 123 90 186.5t154 63.5t153.5 -13.5t139 -28.5t127 -28.5t100.5 -13.5zM913 885q98 0 115 98h146q-16 -113 -83 -180.5t-166 -67.5t-228.5 29t-191 42
t-106.5 13q-88 0 -104 -100h-143q16 123 87.5 186.5t165.5 63.5t221.5 -29t186.5 -42t100 -13z" />
    <glyph glyph-name="notequal" unicode="&#x2260;" horiz-adv-x="1216" 
d="M207 932h536l175 252h149l-174 -252h274l-28 -150h-348l-160 -231h463l-29 -148h-535l-174 -253h-149l174 253h-277l29 148h348l160 231h-463z" />
    <glyph glyph-name="lessequal" unicode="&#x2264;" horiz-adv-x="1103" 
d="M133 588l39 198l920 340l-33 -176l-508 -178q-41 -14 -89 -28.5t-93 -29.5t-95 -30v-4q43 -14 83 -30t85 -32t86 -32l426 -172l-32 -166zM49 150h854l-29 -150h-854z" />
    <glyph glyph-name="greaterequal" unicode="&#x2265;" horiz-adv-x="1103" 
d="M1034 786l-39 -198l-919 -340l33 176l507 178q122 38 175 55q53 18 102 33v4q-43 14 -83 30t-85 32t-86 32l-426 173l33 165zM883 0h-854l28 150h854z" />
    <glyph glyph-name="lozenge" unicode="&#x25ca;" horiz-adv-x="1196" 
d="M477 387q55 -97 121 -256h4q26 79 119 256l201 367l-205 381q-83 148 -121 256h-4q-33 -102 -119 -256l-201 -367zM1137 760l-428 -760h-220l-430 764l428 760h220z" />
    <glyph glyph-name="uniFB01" unicode="&#xfb01;" 
d="M961 1303l43 221h194l-43 -221h-194zM926 1100h186l-213 -1100h-188zM682 1536q70 0 133 -14l-27 -148q-131 8 -165.5 -7t-49 -36.5t-20.5 -56.5l-35 -174h215l-28 -146h-216l-184 -954h-186l184 954h-160l31 146h158l39 194q48 242 311 242z" />
    <glyph glyph-name="uniFB02" unicode="&#xfb02;" horiz-adv-x="1144" 
d="M1008 1524h188l-297 -1524h-188zM658 1536q92 0 157 -14l-27 -148q-131 8 -165.5 -7t-49 -36.5t-20.5 -56.5l-35 -174h215l-28 -146h-216l-184 -954h-186l184 954h-160l31 146h158l39 194q14 72 44.5 120t90.5 85t152 37z" />
    </font>
</defs>
</svg>
